<?xml version="1.0" encoding="utf-8"?>
<!-- Generator: Adobe Illustrator 24.0.2, SVG Export Plug-In . SVG Version: 6.00 Build 0)  -->
<svg version="1.1" id="Layer_1" xmlns="http://www.w3.org/2000/svg" xmlns:xlink="http://www.w3.org/1999/xlink" x="0px" y="0px"
	 viewBox="0 0 1200 1200" style="enable-background:new 0 0 1200 1200;" xml:space="preserve">
<style type="text/css">
	.st0{fill:#FFFFFF;}
	.st1{fill:#0065A2;}
	.st2{fill:#5AB2DF;}
	.st3{fill:#8CC64F;}
</style>
<rect x="-13.84" y="-15.82" class="st0" width="1213.84" height="1224.72"/>
<g>
	<g>
		<path class="st1" d="M121.97,1034.15l14.98-135.11h31.36l-14.99,135.11H121.97z"/>
		<path class="st1" d="M245.32,1034.15L211.7,953.1h-2.29l-7.72,81.06h-30.21l14.78-135.11h29.07l32.94,67.55h2.27l7.26-67.55h30.22
			l-14.76,135.11H245.32z"/>
		<path class="st1" d="M323.67,1034.15l12.05-108.08h-33.4l2.73-27.03h98.34l-2.94,27.03h-33.38l-12.06,108.08H323.67z"/>
		<path class="st1" d="M474.05,1034.15c-4.31-13.5-9.54-35.2-14.32-51.76c-2.71,0.2-5.9-0.15-17.93-0.15l-5.45,51.91h-31.12
			l14.54-139.66c21.13-2.06,37.71-2.39,45.89-2.39c17.94,0,26.12,1.54,33.39,5.38c8.16,4.31,13.17,12.83,13.17,26.91
			c0,28.62-7.96,44.3-25.21,52.27l21.11,57.5H474.05z M444.28,953.1h11.83c8.4,0,13.84,2.94,17.72-1.14
			c4.07-4.32,5.89-13.39,5.89-21.16c0-11.33-5.67-13.48-16.35-13.48c-2.28,0-6.6-2.53-14.76-2.11L444.28,953.1z"/>
		<path class="st1" d="M513.35,1034.15l49.75-135.11h51.1l19.53,135.11h-33.15l-4.33-27.03h-38.84l-10.9,27.03H513.35z
			 M565.59,980.08h28.39l-6.58-54.01h-3.18L565.59,980.08z"/>
		<path class="st1" d="M648.27,1005.32c17.03,3.19,29.3,4.11,34.53,4.11c15,0,25.22-2.74,25.22-18.19c0-4.98-1.13-8.17-9.33-11.57
			l-21.8-9.34c-12.49-5.45-19.75-13.37-19.75-29.75c0-29.75,13.16-48.14,46.1-48.14c8.17,0,24.53,1.36,39.52,4.77l-2.72,26.33
			c-12.95-2.26-27.02-3.38-33.85-3.38c-14.08,0-18.62,4.06-18.62,16.79c0,3.85,0.91,6.83,7.95,9.77l23.17,9.78
			c12.93,5.69,20.22,12.95,20.22,27.68c0,33.83-17.73,52.68-53.15,52.68c-8.19,0-24.09-0.89-40.2-5.18L648.27,1005.32z"/>
		<path class="st1" d="M753.22,995.32c0-5.91,0.45-14.29,3.17-38.63c6.36-57.43,20.91-64.25,59.5-64.25
			c29.76,0,47.25,4.55,47.25,41.55c0,5.91-0.44,14.33-3.18,38.6c-6.36,57.51-20.9,64.27-59.5,64.27
			C770.71,1036.87,753.22,1032.35,753.22,995.32z M828.86,971.02c2.27-21.35,2.72-28.59,2.72-34.06c0-15.43-5.68-17.7-18.4-17.7
			c-18.4,0-22.26,4.07-25.67,39.06c-2.26,21.35-2.72,28.6-2.72,34.03c0,15.47,5.68,17.75,18.4,17.75
			C821.58,1010.11,825.45,1006,828.86,971.02z"/>
		<path class="st1" d="M868.17,1034.15l14.76-135.11h83.82l-2.97,27.03h-52.23l-3.86,27.02h38.63l-2.96,26.99h-38.62l-5.46,54.07
			H868.17z"/>
		<path class="st1" d="M998.32,1034.15l12.03-108.08h-33.38l2.72-27.03h98.35l-2.95,27.03h-33.38l-12.04,108.08H998.32z"/>
	</g>
	<g>
		<g>
			<path class="st1" d="M618.59,797.75c-1.59,0-2.88-1.3-2.88-2.88v-1.14c-0.02-1.6,1.28-2.88,2.88-2.88l0,0
				c1.59,0,2.87,1.28,2.87,2.88v1.14C621.48,796.45,620.18,797.75,618.59,797.75L618.59,797.75z M618.56,783.65
				c-1.6,0-2.88-1.28-2.88-2.89v-1.14c-0.03-1.59,1.27-2.88,2.85-2.88h0.03c1.56,0,2.85,1.27,2.85,2.85v1.14
				C621.43,782.33,620.16,783.59,618.56,783.65L618.56,783.65z M618.51,769.53c-1.58,0-2.89-1.33-2.89-2.9v-1.14
				c0-1.6,1.29-2.88,2.87-2.89h0.01c1.59,0,2.88,1.29,2.88,2.89v1.14C621.39,768.21,620.11,769.51,618.51,769.53L618.51,769.53z
				 M618.47,755.38c-1.6,0-2.87-1.25-2.88-2.83v-1.18c-0.02-1.59,1.28-2.85,2.87-2.93l0,0c1.6,0,2.89,1.32,2.89,2.93v1.14
				c0.02,1.58-1.27,2.87-2.85,2.87C618.47,755.38,618.47,755.38,618.47,755.38z M618.43,741.31c-1.58,0-2.88-1.27-2.88-2.87
				l-0.01-1.14c0-1.6,1.28-2.93,2.87-2.93h0.01c1.58,0,2.87,1.3,2.87,2.88l0.01,1.14c0,1.58-1.28,2.92-2.86,2.92
				C618.45,741.31,618.45,741.31,618.43,741.31z M618.39,727.17c-1.59,0-2.87-1.29-2.87-2.88v-1.14c-0.01-1.6,1.28-2.87,2.85-2.87
				c0.02,0,0.02,0,0.02,0c1.6,0,2.88,1.27,2.88,2.87v1.14C621.27,725.88,619.99,727.17,618.39,727.17
				C618.4,727.17,618.4,727.17,618.39,727.17z M618.35,713.07c-1.59,0-2.88-1.27-2.88-2.89v-1.17c-0.01-1.57,1.28-2.83,2.87-2.83
				h0.01c1.58,0,2.87,1.25,2.87,2.83v1.17C621.23,711.75,619.95,713.07,618.35,713.07L618.35,713.07z"/>
		</g>
		<g>
			<path class="st1" d="M777.57,523.87c-0.38,0-0.75-0.12-1.13-0.25c-1.47-0.66-2.15-2.34-1.53-3.79c0.63-1.48,2.34-2.15,3.8-1.55
				c1.46,0.65,2.15,2.32,1.53,3.77l-0.03,0.03C779.75,523.18,778.69,523.87,777.57,523.87z M782.55,511.82
				c-0.37,0-0.74-0.04-1.11-0.21c-1.47-0.61-2.15-2.28-1.56-3.76l0.45-1.07c0.61-1.45,2.31-2.16,3.77-1.53
				c1.46,0.57,2.16,2.28,1.55,3.74l-0.43,1.08C784.75,511.18,783.67,511.82,782.55,511.82z M787.96,498.81
				c-0.36,0-0.74-0.09-1.1-0.21c-1.47-0.62-2.17-2.31-1.57-3.8l0.43-1.07c0.62-1.44,2.32-2.15,3.79-1.54
				c1.45,0.6,2.14,2.31,1.53,3.75l-0.43,1.07C790.17,498.13,789.09,498.81,787.96,498.81z M793.37,485.77
				c-0.37,0-0.74-0.06-1.11-0.22c-1.45-0.62-2.16-2.28-1.56-3.75l0.45-1.09c0.6-1.46,2.3-2.13,3.76-1.54
				c1.46,0.6,2.17,2.27,1.56,3.76l-0.43,1.04C795.58,485.07,794.51,485.77,793.37,485.77z M798.78,472.73
				c-0.36,0-0.75-0.08-1.09-0.22c-1.47-0.62-2.17-2.3-1.56-3.77l0.43-1.08c0.61-1.44,2.3-2.15,3.76-1.54
				c1.48,0.63,2.17,2.3,1.56,3.76l-0.44,1.08C800.98,472.06,799.91,472.73,798.78,472.73z M804.19,459.67
				c-0.37,0-0.75-0.05-1.12-0.21c-1.47-0.63-2.15-2.28-1.53-3.76l0.43-1.07c0.61-1.46,2.3-2.18,3.75-1.56
				c1.48,0.62,2.17,2.31,1.56,3.8l-0.45,1.05C806.39,459.03,805.32,459.67,804.19,459.67z M809.6,446.67
				c-0.37,0-0.75-0.07-1.12-0.25c-1.46-0.57-2.15-2.27-1.56-3.72l0.46-1.08c0.59-1.47,2.27-2.17,3.75-1.58
				c1.48,0.62,2.17,2.31,1.55,3.77l-0.43,1.07C811.81,445.98,810.71,446.67,809.6,446.67z M814.99,433.61
				c-0.36,0-0.72-0.07-1.07-0.22c-1.48-0.59-2.18-2.28-1.59-3.76l0.45-1.05c0.6-1.49,2.3-2.16,3.77-1.56
				c1.47,0.61,2.17,2.28,1.56,3.74l-0.43,1.1C817.21,432.96,816.13,433.61,814.99,433.61z M820.43,420.57
				c-0.39,0-0.76-0.06-1.11-0.22c-1.47-0.62-2.16-2.28-1.56-3.77l0.44-1.04c0.63-1.46,2.3-2.18,3.77-1.56
				c1.46,0.61,2.15,2.31,1.56,3.76l-0.45,1.07C822.63,419.9,821.54,420.57,820.43,420.57z M825.83,407.55
				c-0.36,0-0.73-0.06-1.12-0.24c-1.45-0.61-2.14-2.3-1.53-3.77l0.44-1.07c0.59-1.47,2.3-2.15,3.76-1.54
				c1.46,0.6,2.18,2.31,1.56,3.75l-0.44,1.05C828.02,406.87,826.95,407.55,825.83,407.55z M831.24,394.51
				c-0.37,0-0.75-0.07-1.1-0.22c-1.48-0.62-2.17-2.28-1.56-3.75l0.45-1.09c0.6-1.47,2.3-2.16,3.76-1.54
				c1.47,0.62,2.18,2.28,1.55,3.75l-0.43,1.09C833.43,393.86,832.38,394.51,831.24,394.51z M836.65,381.47
				c-0.36,0-0.74-0.07-1.11-0.22c-1.46-0.59-2.16-2.31-1.56-3.77l0.45-1.07c0.61-1.47,2.28-2.16,3.76-1.55
				c1.48,0.59,2.18,2.31,1.56,3.76l-0.44,1.04C838.85,380.8,837.78,381.47,836.65,381.47z M842.05,368.42
				c-0.36,0-0.73-0.05-1.1-0.21c-1.48-0.63-2.16-2.3-1.56-3.76l0.44-1.05c0.61-1.5,2.3-2.17,3.77-1.58
				c1.47,0.62,2.16,2.31,1.55,3.77l-0.45,1.07C844.26,367.76,843.2,368.42,842.05,368.42z M847.46,355.39
				c-0.37,0-0.74-0.09-1.1-0.22c-1.48-0.61-2.17-2.32-1.55-3.76l0.43-1.07c0.61-1.49,2.3-2.16,3.76-1.57
				c1.47,0.62,2.16,2.31,1.55,3.77l-0.44,1.04C849.67,354.72,848.59,355.39,847.46,355.39z M852.87,342.36
				c-0.37,0-0.74-0.09-1.11-0.24c-1.46-0.6-2.15-2.28-1.56-3.76l0.45-1.07c0.6-1.49,2.31-2.16,3.77-1.55
				c1.48,0.6,2.17,2.28,1.56,3.75l-0.45,1.09C855.08,341.68,854,342.36,852.87,342.36z"/>
		</g>
		<g>
			<path class="st1" d="M462.03,394.75c-0.03,0-0.05,0-0.07,0l-1.14-0.03c-1.6-0.02-2.89-1.36-2.84-2.93
				c0.04-1.59,1.32-2.83,2.88-2.83c0.03,0,0.03,0,0.05,0h1.16c1.6,0.05,2.85,1.37,2.82,2.96
				C464.87,393.51,463.59,394.75,462.03,394.75z M447.9,394.48c-0.01,0-0.02,0-0.05,0h-1.15c-1.6-0.05-2.86-1.37-2.82-2.95
				c0.02-1.59,1.29-2.83,2.86-2.83c0.04,0,0.04,0,0.07,0l1.16,0.02c1.58,0.04,2.84,1.34,2.82,2.93
				C450.76,393.23,449.47,394.48,447.9,394.48z M433.8,394.18c-0.03,0-0.04,0-0.07,0l-1.14-0.03c-1.6-0.01-2.86-1.34-2.83-2.91
				c0.03-1.61,1.16-2.87,2.93-2.85l1.15,0.03c1.6,0.05,2.85,1.35,2.82,2.95C436.64,392.93,435.34,394.18,433.8,394.18z
				 M419.67,393.91c0,0-0.03,0-0.05,0l-1.15-0.03c-1.58-0.03-2.85-1.33-2.82-2.93c0.03-1.59,1.46-2.81,2.93-2.81l1.15,0.01
				c1.59,0.03,2.85,1.35,2.82,2.94C422.52,392.67,421.25,393.91,419.67,393.91z M405.56,393.64c-0.01,0-0.03,0-0.06,0l-1.15-0.03
				c-1.6-0.04-2.85-1.33-2.82-2.93c0.03-1.59,1.31-2.83,2.87-2.83c0.04,0,0.04,0,0.07,0l1.15,0.03c1.59,0.04,2.86,1.34,2.82,2.93
				C408.41,392.38,407.13,393.64,405.56,393.64z M391.47,393.36c-0.04,0-0.05,0-0.07,0l-1.15-0.02c-1.58-0.03-2.86-1.34-2.83-2.96
				c0.03-1.56,1.36-2.78,2.95-2.8l1.15,0.02c1.58,0.03,2.84,1.33,2.82,2.93C394.3,392.12,393.02,393.36,391.47,393.36z
				 M377.34,393.09c-0.01,0-0.04,0-0.05,0l-1.15-0.03c-1.6-0.05-2.86-1.34-2.84-2.93c0.05-1.6,1.21-2.95,2.92-2.84l1.17,0.03
				c1.58,0.03,2.86,1.35,2.83,2.94C380.19,391.83,378.9,393.09,377.34,393.09z M363.22,392.79c-0.01,0-0.03,0-0.04,0h-1.17
				c-1.59-0.05-2.85-1.36-2.83-2.95c0.04-1.62,1.45-2.76,2.95-2.83l1.15,0.03c1.59,0.05,2.86,1.35,2.84,2.93
				C366.08,391.55,364.79,392.79,363.22,392.79z M349.11,392.52c-0.01,0-0.04,0-0.06,0l-1.16-0.03c-1.57-0.02-2.83-1.35-2.81-2.93
				c0.04-1.59,1.12-2.78,2.93-2.83l1.16,0.04c1.59,0.01,2.85,1.35,2.83,2.93C351.96,391.28,350.68,392.52,349.11,392.52z
				 M335,392.25c-0.01,0-0.02,0-0.05,0h-1.15c-1.59-0.06-2.87-1.37-2.83-2.95c0.04-1.6,1.34-2.74,2.93-2.84l1.16,0.03
				c1.58,0.06,2.86,1.35,2.82,2.94C337.85,391.01,336.56,392.25,335,392.25z M320.89,391.96c-0.02,0-0.04,0-0.06,0l-1.14-0.01
				c-1.6-0.03-2.86-1.36-2.83-2.94c0.03-1.58,1.31-2.82,2.88-2.82c0.01,0,0.02,0,0.06,0l1.16,0.02c1.57,0.04,2.84,1.32,2.82,2.93
				C323.75,390.72,322.47,391.96,320.89,391.96z"/>
		</g>
		<g>
			<path class="st1" d="M556.39,496.09c-0.76,0-1.55-0.3-2.1-0.92c-1.08-1.17-1.03-3,0.15-4.06l0.84-0.81
				c1.18-1.08,2.98-1.01,4.08,0.16c1.09,1.18,1,3-0.16,4.08l-0.85,0.77C557.81,495.84,557.1,496.09,556.39,496.09z M566.75,486.51
				c-0.76,0-1.54-0.31-2.11-0.92c-1.07-1.16-1-2.98,0.16-4.06l0.84-0.81c1.16-1.09,3-0.99,4.08,0.18c1.09,1.18,1,3-0.17,4.07
				l-0.85,0.8C568.17,486.27,567.46,486.51,566.75,486.51z M577.12,476.93c-0.76,0-1.52-0.32-2.1-0.92c-1.08-1.17-1.01-3,0.16-4.07
				l0.85-0.77c1.15-1.09,2.98-1.03,4.07,0.15c1.07,1.18,1,2.99-0.17,4.05l-0.83,0.82C578.53,476.68,577.82,476.93,577.12,476.93z
				 M587.49,467.36c-0.77,0-1.53-0.31-2.12-0.93c-1.07-1.17-1.01-2.99,0.17-4.07l0.84-0.77c1.16-1.09,2.99-1.02,4.07,0.15
				c1.08,1.15,1.02,3-0.16,4.07l-0.86,0.78C588.9,467.12,588.19,467.36,587.49,467.36z M597.85,457.76c-0.77,0-1.53-0.32-2.1-0.92
				c-1.09-1.18-1.01-2.99,0.16-4.07l0.84-0.77c1.17-1.08,3-1.02,4.08,0.15c1.06,1.17,1.01,3-0.17,4.1l-0.86,0.77
				C599.26,457.51,598.56,457.76,597.85,457.76z M608.22,448.18c-0.78,0-1.55-0.3-2.13-0.89c-1.07-1.19-1-3.01,0.18-4.1l0.83-0.8
				c1.18-1.04,2.98-0.99,4.08,0.18c1.06,1.16,1,3-0.17,4.1l-0.84,0.74C609.62,447.93,608.91,448.18,608.22,448.18z M618.58,438.6
				c-0.77,0-1.54-0.3-2.1-0.89c-1.09-1.19-1.01-3.03,0.17-4.1l0.82-0.77c1.17-1.09,3.01-1.02,4.08,0.15c1.09,1.17,1,2.98-0.16,4.07
				l-0.85,0.79C619.99,438.35,619.28,438.6,618.58,438.6z M628.96,429.03c-0.79,0-1.56-0.28-2.12-0.92
				c-1.09-1.18-1.02-2.99,0.16-4.06l0.83-0.78c1.17-1.08,2.99-1.03,4.09,0.15c1.05,1.15,0.99,2.99-0.17,4.08l-0.83,0.77
				C630.36,428.77,629.64,429.03,628.96,429.03z M639.31,419.44c-0.78,0-1.55-0.31-2.12-0.91c-1.09-1.19-1.01-3,0.16-4.1l0.85-0.77
				c1.17-1.09,2.99-1.02,4.07,0.15c1.08,1.17,1.01,3-0.16,4.07l-0.85,0.81C640.71,419.18,640.02,419.44,639.31,419.44z
				 M649.73,409.8c-0.77,0-1.54-0.34-2.09-0.92c-1.08-1.17-1.08-2.9,0.09-4l0.14-0.12c1.16-1.07,2.99-1.02,4.06,0.14
				c1.08,1.17,1.02,2.98-0.14,4.07C651.22,409.49,650.46,409.8,649.73,409.8z"/>
		</g>
		<g>
			<path class="st1" d="M552.11,367.74c-0.85,0-1.69-0.39-2.26-1.12c-0.98-1.24-0.76-3.05,0.48-4.01l0.91-0.73
				c1.24-0.97,3.05-0.72,4.01,0.5c0.98,1.27,0.74,3.05-0.48,4.03l-0.91,0.71C553.35,367.52,552.72,367.74,552.11,367.74z
				 M563.15,359.07c-0.84,0-1.69-0.37-2.24-1.08c-0.99-1.24-0.78-3.05,0.46-4.05l0.92-0.67c1.24-0.99,3.03-0.79,4.02,0.45
				c0.97,1.24,0.77,3.05-0.48,4.03l-0.89,0.71C564.39,358.88,563.76,359.07,563.15,359.07z M574.19,350.42
				c-0.85,0-1.69-0.4-2.26-1.09c-0.98-1.25-0.75-3.04,0.49-4.02l0.9-0.69c1.24-1.02,3.05-0.8,4.03,0.47c0.97,1.24,0.76,3.03-0.5,4
				l-0.89,0.74C575.43,350.22,574.81,350.42,574.19,350.42z M585.24,341.73c-0.86,0-1.7-0.35-2.27-1.09
				c-0.97-1.23-0.76-3.01,0.48-3.98l0.91-0.73c1.25-0.97,3.03-0.74,4.01,0.5c0.98,1.24,0.77,3.03-0.47,4.02l-0.91,0.69
				C586.47,341.55,585.86,341.73,585.24,341.73z M596.26,333.09c-0.85,0-1.68-0.37-2.25-1.08c-0.97-1.28-0.74-3.07,0.5-4.06
				l0.9-0.71c1.25-0.94,3.05-0.74,4.01,0.51c0.98,1.23,0.76,3.05-0.49,4.02l-0.89,0.72C597.51,332.88,596.88,333.09,596.26,333.09z
				 M607.3,324.42c-0.85,0-1.7-0.39-2.25-1.09c-0.97-1.27-0.76-3.05,0.48-4.02l0.89-0.72c1.27-0.99,3.06-0.77,4.05,0.5
				c0.95,1.24,0.74,3.04-0.51,4.05l-0.89,0.67C608.55,324.21,607.91,324.42,607.3,324.42z M618.35,315.75
				c-0.84,0-1.69-0.38-2.27-1.08c-0.96-1.24-0.76-3.05,0.49-4.02l0.89-0.71c1.25-0.98,3.05-0.77,4.04,0.5
				c0.96,1.23,0.76,3.03-0.48,4.01l-0.91,0.71C619.59,315.55,618.97,315.75,618.35,315.75z M629.39,307.08
				c-0.85,0-1.69-0.37-2.26-1.08c-0.97-1.27-0.77-3.05,0.48-4.02l0.91-0.71c1.23-0.98,3.04-0.78,4,0.49
				c0.99,1.24,0.78,3.07-0.47,4.02l-0.91,0.7C630.64,306.88,630,307.08,629.39,307.08z M640.42,298.42c-0.84,0-1.68-0.39-2.25-1.09
				c-0.97-1.23-0.76-3.04,0.49-4.01l0.89-0.69c1.25-0.97,3.05-0.76,4.02,0.47c0.99,1.25,0.76,3.05-0.48,4.02l-0.89,0.72
				C641.67,298.23,641.04,298.42,640.42,298.42z M651.47,289.77c-0.86,0-1.7-0.37-2.26-1.09c-0.98-1.25-0.76-3.04,0.48-4.02
				l0.91-0.72c1.26-0.96,3.03-0.74,4.03,0.5c0.96,1.25,0.75,3.05-0.5,4.01l-0.89,0.73C652.71,289.54,652.07,289.77,651.47,289.77z
				 M662.51,281.13c-0.85,0-1.7-0.42-2.26-1.12c-0.97-1.25-0.76-3.05,0.5-4.02l0.87-0.72c1.27-0.96,3.07-0.74,4.03,0.49
				c0.98,1.25,0.76,3.07-0.49,4.04l-0.91,0.7C663.75,280.93,663.13,281.13,662.51,281.13z M673.55,272.46
				c-0.86,0-1.7-0.39-2.25-1.12c-0.99-1.24-0.78-3.05,0.47-4.02l0.91-0.69c1.24-0.99,3.04-0.77,4.01,0.47
				c0.99,1.24,0.76,3.05-0.48,4.02l-0.89,0.71C674.78,272.26,674.16,272.46,673.55,272.46z M684.58,263.77
				c-0.84,0-1.69-0.37-2.25-1.09c-0.98-1.24-0.76-3.05,0.48-4.02l0.9-0.72c1.25-0.94,3.05-0.76,4.02,0.5
				c0.99,1.24,0.76,3.05-0.49,4.02l-0.9,0.7C685.83,263.6,685.2,263.77,684.58,263.77z M695.63,255.11c-0.86,0-1.71-0.35-2.25-1.09
				c-0.97-1.24-0.77-3.05,0.48-4l0.89-0.73c1.26-0.98,3.05-0.74,4.03,0.49c0.97,1.26,0.77,3.05-0.48,4.02l-0.9,0.71
				C696.86,254.92,696.24,255.11,695.63,255.11z M706.67,246.46c-0.86,0-1.7-0.37-2.26-1.1c-0.98-1.24-0.76-3.05,0.49-4.02l0.9-0.72
				c1.24-0.97,3.05-0.74,4.01,0.5c0.98,1.25,0.76,3.05-0.48,4.02l-0.91,0.69C707.89,246.25,707.28,246.46,706.67,246.46z
				 M717.71,237.79c-0.86,0-1.7-0.39-2.25-1.11c-0.99-1.24-0.78-3.03,0.48-4.03l0.89-0.71c1.25-0.97,3.05-0.74,4.02,0.5
				c0.98,1.27,0.76,3.05-0.49,4.03l-0.91,0.68C718.95,237.59,718.32,237.79,717.71,237.79z M728.75,229.13
				c-0.86,0-1.7-0.39-2.26-1.11c-0.99-1.24-0.76-3.03,0.49-4.02l0.89-0.69c1.25-0.99,3.06-0.77,4.02,0.5c0.98,1.24,0.78,3.03-0.49,4
				l-0.89,0.71C729.97,228.94,729.37,229.13,728.75,229.13z M739.79,220.45c-0.85,0-1.69-0.36-2.24-1.09
				c-0.99-1.25-0.77-3.03,0.48-4.01l0.89-0.72c1.26-0.97,3.05-0.76,4.03,0.48c0.96,1.27,0.76,3.05-0.49,4.02l-0.91,0.71
				C741.02,220.28,740.39,220.45,739.79,220.45z"/>
		</g>
		<g>
			<path class="st1" d="M462.03,393.19c-1.29,0-2.41-0.89-2.69-2.16c-0.32-1.49,0.63-2.97,2.11-3.28l1.07-0.22
				c1.49-0.31,2.96,0.63,3.27,2.11c0.32,1.49-0.63,2.93-2.11,3.28l-1.07,0.21C462.39,393.17,462.21,393.19,462.03,393.19z
				 M475.17,390.37c-1.27,0-2.42-0.88-2.69-2.17c-0.31-1.49,0.64-2.93,2.13-3.27l1.06-0.23c1.49-0.3,2.93,0.64,3.27,2.13
				c0.31,1.49-0.63,2.94-2.13,3.25l-1.07,0.25C475.55,390.35,475.36,390.37,475.17,390.37z M488.33,387.56
				c-1.27,0-2.41-0.87-2.67-2.19c-0.33-1.48,0.6-2.93,2.1-3.25l1.08-0.22c1.49-0.3,2.94,0.65,3.27,2.1c0.3,1.5-0.64,2.94-2.14,3.29
				l-1.07,0.22C488.72,387.53,488.52,387.56,488.33,387.56z M501.5,384.74c-1.29,0-2.41-0.88-2.69-2.16
				c-0.32-1.5,0.63-2.94,2.1-3.29l1.08-0.2c1.49-0.32,2.95,0.62,3.26,2.09c0.31,1.5-0.63,2.95-2.12,3.28l-1.08,0.22
				C501.88,384.7,501.67,384.74,501.5,384.74z M514.66,381.91c-1.27,0-2.41-0.87-2.7-2.17c-0.3-1.46,0.63-2.93,2.12-3.25l1.07-0.25
				c1.48-0.3,2.94,0.63,3.26,2.11c0.31,1.51-0.62,2.96-2.1,3.27l-1.09,0.23C515.04,381.89,514.85,381.91,514.66,381.91z
				 M527.81,379.09c-1.26,0-2.41-0.87-2.69-2.15c-0.31-1.49,0.62-2.95,2.11-3.29l1.07-0.21c1.49-0.34,2.96,0.61,3.28,2.11
				c0.32,1.45-0.63,2.93-2.11,3.27l-1.07,0.21C528.2,379.09,528.01,379.09,527.81,379.09z M540.97,376.26
				c-1.26,0-2.4-0.89-2.69-2.16c-0.32-1.49,0.63-2.94,2.1-3.23l1.09-0.25c1.48-0.35,2.94,0.61,3.26,2.08
				c0.31,1.49-0.62,2.96-2.1,3.28l-1.09,0.21C541.36,376.23,541.16,376.26,540.97,376.26z"/>
		</g>
		<g>
			<path class="st1" d="M474.64,570.47c-1.46,0-2.71-1.13-2.85-2.61l-0.12-1.14c-0.17-1.58,0.99-3,2.56-3.18
				c1.56-0.2,3,0.99,3.16,2.56l0.12,1.18c0.16,1.59-0.99,2.99-2.57,3.16C474.83,570.47,474.74,570.47,474.64,570.47z M473.18,556.42
				c-1.46,0-2.69-1.12-2.85-2.58l-0.11-1.17c-0.16-1.58,0.97-3.02,2.54-3.15c1.55-0.25,3.01,0.97,3.18,2.56l0.11,1.19
				c0.16,1.55-0.99,2.95-2.56,3.1C473.39,556.42,473.3,556.42,473.18,556.42z M471.75,542.38c-1.46,0-2.72-1.1-2.87-2.61l-0.12-1.15
				c-0.15-1.57,0.99-2.98,2.58-3.15c1.56-0.25,3,0.99,3.16,2.58l0.11,1.15c0.18,1.55-0.97,2.99-2.58,3.14
				C471.94,542.38,471.84,542.38,471.75,542.38z M470.31,528.32c-1.46,0-2.7-1.08-2.87-2.61l-0.12-1.13c-0.18-1.58,1-2.96,2.57-3.14
				c1.55-0.21,2.98,0.97,3.16,2.57l0.1,1.13c0.18,1.59-0.97,3.03-2.56,3.18C470.5,528.32,470.4,528.32,470.31,528.32z
				 M468.86,514.29c-1.46,0-2.71-1.12-2.86-2.61l-0.12-1.12c-0.16-1.6,1-3,2.57-3.15c1.56-0.22,3,0.97,3.16,2.56l0.12,1.13
				c0.16,1.6-0.99,3-2.56,3.14C469.05,514.29,468.95,514.29,468.86,514.29z M467.4,500.24c-1.45,0-2.69-1.09-2.85-2.58l-0.1-1.14
				c-0.17-1.58,0.97-3.02,2.56-3.15c1.56-0.2,3,0.97,3.17,2.58l0.1,1.12c0.17,1.59-0.97,3.01-2.56,3.18
				C467.61,500.24,467.51,500.24,467.4,500.24z M465.96,486.2c-1.45,0-2.69-1.11-2.86-2.58l-0.1-1.16c-0.18-1.59,0.97-3,2.57-3.15
				c1.53-0.22,3,0.98,3.15,2.58l0.11,1.13c0.17,1.58-0.97,3.02-2.56,3.15C466.17,486.2,466.07,486.2,465.96,486.2z M464.52,472.16
				c-1.45,0-2.7-1.09-2.85-2.58l-0.12-1.12c-0.16-1.61,0.99-3.03,2.58-3.18c1.55-0.22,2.99,0.97,3.15,2.57l0.13,1.14
				c0.17,1.58-1,2.99-2.58,3.16C464.72,472.16,464.62,472.16,464.52,472.16z M463.08,458.12c-1.47,0-2.72-1.11-2.85-2.6l-0.12-1.14
				c-0.16-1.56,0.99-2.98,2.56-3.15c1.57-0.15,2.99,1,3.17,2.58l0.12,1.14c0.17,1.58-0.99,2.98-2.57,3.16
				C463.28,458.12,463.17,458.12,463.08,458.12z M461.64,444.08c-1.45,0-2.72-1.09-2.86-2.58l-0.12-1.15c-0.17-1.58,1-3,2.57-3.16
				c1.55-0.16,3,1,3.16,2.58l0.12,1.14c0.16,1.59-0.99,2.99-2.56,3.15C461.83,444.08,461.73,444.08,461.64,444.08z M460.19,430.03
				c-1.46,0-2.7-1.11-2.85-2.58l-0.12-1.15c-0.16-1.58,1-2.99,2.57-3.15c1.54-0.14,3,0.98,3.17,2.57l0.1,1.15
				c0.17,1.58-0.99,3.02-2.57,3.15C460.38,430.03,460.29,430.03,460.19,430.03z M458.73,415.98c-1.44,0-2.71-1.07-2.85-2.58
				l-0.1-1.15c-0.18-1.56,0.97-2.98,2.56-3.14c1.57-0.14,3,0.97,3.17,2.58l0.11,1.14c0.17,1.58-0.99,3-2.56,3.15
				C458.95,415.98,458.85,415.98,458.73,415.98z M457.31,401.95c-1.46,0-2.7-1.09-2.87-2.58l-0.12-1.14c-0.17-1.59,0.99-3,2.58-3.18
				c1.55-0.15,3,0.99,3.15,2.58l0.12,1.17c0.17,1.57-0.99,2.97-2.56,3.15C457.49,401.95,457.39,401.95,457.31,401.95z"/>
		</g>
		<g>
			<path class="st1" d="M714.63,575.78c-0.01,0-0.01,0-0.01,0h-1.15c-1.56-0.02-2.83-1.31-2.79-2.92c0.02-1.55,1.24-2.87,2.87-2.79
				h1.14c1.56,0.03,2.82,1.31,2.82,2.89C717.46,574.56,716.19,575.78,714.63,575.78z M700.71,575.62c-0.01,0-0.02,0-0.03,0h-1.13
				c-1.58-0.03-2.84-1.3-2.81-2.87c0.01-1.57,1.27-2.83,2.84-2.83c0.02,0,0.03,0,0.04,0h1.12c1.57,0.03,2.83,1.35,2.83,2.91
				C703.54,574.38,702.28,575.62,700.71,575.62z M686.78,575.46c0,0-0.02,0-0.04,0h-1.12c-1.58-0.01-2.82-1.29-2.81-2.91
				c0.02-1.54,1.2-2.85,2.87-2.78h1.14c1.58,0.04,2.83,1.32,2.81,2.9C689.62,574.22,688.34,575.46,686.78,575.46z M672.86,575.31
				c-0.03,0-0.03,0-0.03,0h-1.14c-1.57-0.05-2.84-1.31-2.82-2.88c0.02-1.56,1.34-2.73,2.88-2.79h1.14c1.56,0,2.82,1.31,2.8,2.87
				C675.68,574.07,674.42,575.31,672.86,575.31z M658.93,575.15c-0.02,0-0.02,0-0.02,0h-1.14c-1.58-0.03-2.84-1.3-2.8-2.87
				c0.01-1.56,1.49-2.9,2.87-2.8h1.14c1.56,0.02,2.82,1.29,2.81,2.88C661.75,573.9,660.48,575.15,658.93,575.15z M645,574.99
				c-0.01,0-0.01,0-0.03,0h-1.14c-1.57-0.01-2.82-1.29-2.82-2.86c0.03-1.56,1.3-2.8,2.84-2.8c0.03,0,0.04,0,0.05,0h1.12
				c1.57,0.01,2.84,1.31,2.83,2.89C647.83,573.75,646.56,574.99,645,574.99z M631.08,574.87c-0.01,0-0.01,0-0.05,0l-1.11-0.03
				c-1.58-0.03-2.85-1.29-2.83-2.85c0.03-1.6,1.11-2.92,2.88-2.83h1.13c1.58,0.03,2.83,1.32,2.81,2.91
				C633.91,573.6,632.63,574.87,631.08,574.87z M617.14,574.69c-0.01,0-0.02,0-0.03,0h-1.14c-1.56,0-2.82-1.31-2.8-2.85
				c0.01-1.59,1.29-2.83,2.84-2.83c0.01,0,0.01,0,0.03,0l1.14,0.03c1.56,0,2.81,1.32,2.8,2.87
				C619.97,573.46,618.7,574.69,617.14,574.69z M603.21,574.56h-0.02h-1.14c-1.57-0.05-2.83-1.33-2.81-2.89
				c0.02-1.59,1.29-2.79,2.84-2.79c0,0,0.03,0,0.04,0h1.14c1.56,0,2.83,1.33,2.8,2.88C606.05,573.3,604.78,574.56,603.21,574.56z
				 M589.28,574.41c0,0,0,0-0.02,0l-1.13-0.03c-1.58,0-2.84-1.3-2.83-2.87c0.03-1.59,1.18-2.78,2.88-2.8l1.13,0.03
				c1.59,0,2.83,1.29,2.82,2.83C592.13,573.15,590.85,574.41,589.28,574.41z M575.36,574.27c0,0-0.01,0-0.03,0l-1.12-0.05
				c-1.59,0-2.84-1.28-2.84-2.85c0.01-1.55,1.28-2.81,2.84-2.81c0.02,0,0.04,0,0.05,0h1.12c1.6,0,2.84,1.29,2.83,2.83
				C578.2,573,576.93,574.27,575.36,574.27z M561.44,574.1c-0.01,0-0.02,0-0.03,0l-1.15-0.03c-1.56,0-2.82-1.3-2.8-2.88
				c0.03-1.55,1.14-2.76,2.87-2.81l1.14,0.03c1.57,0.03,2.83,1.3,2.81,2.91C564.26,572.83,562.99,574.1,561.44,574.1z
				 M547.51,573.95c-0.01,0-0.03,0-0.03,0l-1.13-0.05c-1.57,0-2.84-1.24-2.81-2.83c0-1.57,1.14-2.74,2.85-2.81h1.14
				c1.56,0,2.83,1.28,2.82,2.86C550.34,572.68,549.08,573.95,547.51,573.95z M533.59,573.77c-0.01,0-0.01,0-0.04,0l-1.12-0.02
				c-1.58,0-2.84-1.25-2.82-2.86c0.02-1.55,1.28-2.8,2.85-2.8c0.01,0,0.02,0,0.04,0l1.13,0.01c1.57,0.03,2.81,1.3,2.81,2.89
				C536.41,572.53,535.13,573.77,533.59,573.77z M519.66,573.61c-0.01,0-0.03,0-0.04,0h-1.13c-1.58-0.01-2.83-1.33-2.81-2.87
				c0.03-1.59,1.21-2.96,2.88-2.78h1.13c1.57,0,2.82,1.3,2.82,2.85C522.47,572.38,521.22,573.61,519.66,573.61z M505.73,573.48
				c-0.02,0-0.02,0-0.04,0l-1.12-0.01c-1.58,0-2.83-1.3-2.83-2.88c0.02-1.58,1.35-2.79,2.89-2.79h1.12
				c1.58,0.01,2.83,1.32,2.82,2.88C508.55,572.23,507.29,573.48,505.73,573.48z M491.81,573.33c-0.02,0-0.03,0-0.03,0h-1.15
				c-1.57-0.03-2.82-1.32-2.8-2.88c0.03-1.58,1.43-2.66,2.88-2.83h1.13c1.58,0.05,2.84,1.33,2.81,2.89
				C494.63,572.1,493.36,573.33,491.81,573.33z"/>
		</g>
		<g>
			<path class="st1" d="M710.77,770.52c-1.59,0-2.88-1.23-2.88-2.88v-1.09c0-1.63,1.29-2.92,2.87-2.92l0,0
				c1.59,0,2.89,1.29,2.89,2.85v1.15C713.64,769.25,712.34,770.52,710.77,770.52L710.77,770.52z M710.72,756.42
				c-1.58,0-2.87-1.29-2.87-2.87v-1.14c-0.03-1.59,1.26-2.88,2.86-2.88l0,0c1.6,0,2.89,1.29,2.89,2.88l0.01,1.14
				c0,1.58-1.28,2.87-2.89,2.87C710.72,756.42,710.72,756.42,710.72,756.42z M710.69,742.33c-1.59,0-2.87-1.28-2.87-2.88v-1.17
				c-0.03-1.58,1.26-2.87,2.85-2.92h0.02c1.58,0,2.87,1.29,2.87,2.9l0.02,1.18C713.57,740.99,712.28,742.33,710.69,742.33
				L710.69,742.33z M710.63,728.23c-1.58,0-2.87-1.29-2.87-2.88v-1.2c-0.02-1.58,1.28-2.85,2.87-2.85l0,0
				c1.59,0,2.89,1.28,2.89,2.85v1.14c0.01,1.6-1.28,2.94-2.87,2.94H710.63z M710.61,714.06c-1.6,0-2.88-1.26-2.88-2.86v-1.14
				c0-1.63,1.28-2.89,2.86-2.89c0,0,0,0,0.02,0c1.58,0,2.87,1.27,2.87,2.89v1.14C713.49,712.81,712.19,714.06,710.61,714.06
				L710.61,714.06z M710.57,699.96c-1.59,0-2.89-1.24-2.89-2.87l-0.01-1.17c0-1.57,1.29-2.88,2.86-2.88
				c1.73-0.06,2.89,1.28,2.89,2.85l0.01,1.19C713.44,698.69,712.16,699.95,710.57,699.96L710.57,699.96z M710.52,685.85
				c-1.59,0-2.87-1.25-2.89-2.88v-1.14c-0.02-1.57,1.27-2.85,2.87-2.88l0,0c1.58,0,2.87,1.28,2.89,2.88v1.12
				C713.41,684.56,712.12,685.82,710.52,685.85L710.52,685.85z M710.48,671.73c-1.59,0-2.89-1.29-2.89-2.88v-1.13
				c-0.01-1.61,1.29-2.89,2.89-2.89l0,0c1.58,0,2.87,1.28,2.87,2.89v1.13C713.37,670.44,712.07,671.73,710.48,671.73L710.48,671.73z
				 M710.45,657.63c-1.6,0-2.87-1.27-2.87-2.88v-1.14c-0.03-1.59,1.27-2.89,2.85-2.89h0.02c1.56,0,2.86,1.28,2.86,2.87v1.13
				C713.32,656.33,712.04,657.58,710.45,657.63L710.45,657.63z M710.39,643.52c-1.58,0-2.88-1.31-2.88-2.91v-1.13
				c0-1.6,1.28-2.88,2.87-2.89h0.01c1.59,0,2.89,1.29,2.89,2.89v1.13C713.28,642.21,712,643.49,710.39,643.52L710.39,643.52z
				 M710.36,629.38c-1.6,0-2.87-1.25-2.88-2.83v-1.18c-0.02-1.58,1.28-2.87,2.86-2.92l0,0c1.61,0,2.89,1.31,2.89,2.92v1.13
				c0.01,1.59-1.28,2.88-2.86,2.88C710.36,629.38,710.36,629.38,710.36,629.38z M710.32,615.31c-1.59,0-2.88-1.28-2.88-2.88
				l-0.01-1.14c0-1.59,1.28-2.9,2.87-2.9h0.01c1.58,0,2.87,1.29,2.87,2.87v1.13c0,1.59-1.28,2.93-2.85,2.93
				C710.33,615.31,710.33,615.31,710.32,615.31z M710.28,601.16c-1.59,0-2.88-1.28-2.88-2.85v-1.14c-0.01-1.61,1.28-2.88,2.85-2.88
				c0.03,0,0.03,0,0.03,0c1.59,0,2.88,1.27,2.88,2.88v1.14C713.16,599.88,711.87,601.16,710.28,601.16
				C710.28,601.16,710.28,601.16,710.28,601.16z M710.24,587.08c-1.6,0-2.89-1.29-2.89-2.91v-1.16c-0.01-1.58,1.28-2.84,2.87-2.84
				h0.01c1.57,0,2.87,1.27,2.87,2.84v1.16C713.12,585.76,711.84,587.08,710.24,587.08L710.24,587.08z"/>
		</g>
		<g>
			<path class="st1" d="M421.42,728.51c-0.93,0-1.86-0.46-2.4-1.31c-0.84-1.32-0.47-3.05,0.85-3.93l0.96-0.63
				c1.33-0.81,3.09-0.46,3.93,0.88c0.86,1.29,0.5,3.07-0.84,3.91l-0.95,0.63C422.5,728.36,421.96,728.51,421.42,728.51z
				 M433.13,720.94c-0.93,0-1.83-0.46-2.39-1.3c-0.85-1.33-0.49-3.09,0.84-3.92l0.96-0.66c1.31-0.86,3.09-0.49,3.95,0.83
				c0.84,1.31,0.47,3.08-0.85,3.93l-0.95,0.61C434.2,720.72,433.67,720.94,433.13,720.94z M444.84,713.32
				c-0.94,0-1.84-0.43-2.39-1.28c-0.85-1.34-0.48-3.09,0.85-3.97l0.96-0.61c1.31-0.84,3.08-0.47,3.95,0.81
				c0.84,1.34,0.47,3.12-0.86,3.95l-0.95,0.67C445.9,713.14,445.38,713.32,444.84,713.32z M456.55,705.7c-0.93,0-1.84-0.43-2.4-1.28
				c-0.85-1.31-0.47-3.07,0.86-3.95l0.96-0.63c1.31-0.82,3.08-0.46,3.93,0.88c0.84,1.29,0.47,3.04-0.84,3.92l-0.96,0.62
				C457.61,705.59,457.08,705.7,456.55,705.7z M468.26,698.12c-0.94,0-1.84-0.49-2.39-1.32c-0.86-1.3-0.48-3.05,0.84-3.91l0.94-0.65
				c1.33-0.87,3.09-0.47,3.95,0.82c0.86,1.34,0.49,3.08-0.83,3.97l-0.95,0.59C469.33,697.96,468.8,698.12,468.26,698.12z
				 M479.97,690.53c-0.93,0-1.85-0.48-2.39-1.31c-0.85-1.3-0.48-3.08,0.86-3.93l0.95-0.62c1.3-0.86,3.07-0.5,3.91,0.84
				c0.86,1.34,0.48,3.07-0.84,3.95l-0.94,0.6C481.05,690.37,480.49,690.53,479.97,690.53z M491.68,682.93
				c-0.93,0-1.86-0.49-2.39-1.31c-0.85-1.3-0.48-3.08,0.85-3.91l0.95-0.65c1.32-0.87,3.07-0.5,3.95,0.82
				c0.84,1.31,0.49,3.09-0.84,3.95l-0.97,0.62C492.75,682.74,492.22,682.93,491.68,682.93z M503.39,675.31
				c-0.93,0-1.84-0.46-2.39-1.3c-0.85-1.29-0.48-3.05,0.84-3.92l0.98-0.62c1.3-0.84,3.07-0.51,3.92,0.81
				c0.87,1.34,0.49,3.1-0.83,3.96l-0.96,0.62C504.47,675.17,503.93,675.31,503.39,675.31z M515.09,667.73
				c-0.92,0-1.84-0.47-2.37-1.28c-0.86-1.34-0.49-3.11,0.82-3.95l0.97-0.62c1.31-0.87,3.09-0.48,3.94,0.84
				c0.86,1.32,0.47,3.07-0.85,3.91l-0.96,0.63C516.17,667.59,515.64,667.73,515.09,667.73z M526.82,660.13
				c-0.95,0-1.86-0.46-2.4-1.29c-0.86-1.33-0.49-3.08,0.84-3.97l0.95-0.6c1.32-0.87,3.07-0.48,3.94,0.81
				c0.86,1.31,0.49,3.11-0.83,3.97l-0.95,0.62C527.88,659.98,527.34,660.13,526.82,660.13z M538.53,652.53
				c-0.93,0-1.84-0.48-2.4-1.31c-0.85-1.33-0.47-3.1,0.85-3.97l0.96-0.58c1.32-0.85,3.08-0.47,3.93,0.83
				c0.84,1.32,0.48,3.09-0.83,3.95l-0.97,0.61C539.59,652.38,539.05,652.53,538.53,652.53z"/>
		</g>
		<g>
			<path class="st1" d="M618.61,700.58c-0.55,0-1.12-0.15-1.62-0.51l-0.94-0.66c-1.33-0.89-1.66-2.68-0.74-3.97
				c0.88-1.31,2.69-1.66,3.99-0.79l0.96,0.66c1.31,0.93,1.64,2.73,0.74,4.02C620.43,700.15,619.53,700.58,618.61,700.58z
				 M606.96,692.61c-0.54,0-1.13-0.16-1.62-0.53l-0.94-0.66c-1.32-0.89-1.65-2.69-0.76-4c0.93-1.29,2.71-1.64,4.02-0.74l0.95,0.66
				c1.31,0.91,1.64,2.71,0.74,4.02C608.79,692.16,607.87,692.61,606.96,692.61z M595.33,684.59c-0.57,0-1.13-0.15-1.63-0.51
				l-0.96-0.63c-1.32-0.92-1.64-2.69-0.74-4.02c0.91-1.27,2.7-1.62,4.02-0.72l0.95,0.66c1.29,0.91,1.62,2.7,0.73,3.97
				C597.14,684.16,596.25,684.59,595.33,684.59z M583.7,676.62c-0.56,0-1.15-0.15-1.64-0.51l-0.96-0.66
				c-1.3-0.88-1.64-2.69-0.74-3.97c0.89-1.33,2.7-1.64,4-0.76l0.96,0.65c1.32,0.92,1.64,2.7,0.74,4
				C585.52,676.19,584.62,676.62,583.7,676.62z M572.04,668.63c-0.56,0-1.12-0.15-1.61-0.47l-0.95-0.67c-1.32-0.89-1.65-2.65-0.77-4
				c0.91-1.31,2.7-1.64,4.01-0.74l0.96,0.65c1.31,0.88,1.66,2.67,0.76,4.01C573.87,668.22,572.97,668.63,572.04,668.63z
				 M560.41,660.65c-0.56,0-1.13-0.15-1.63-0.47l-0.95-0.67c-1.32-0.88-1.66-2.69-0.75-4.01c0.91-1.29,2.7-1.61,4.01-0.74l0.94,0.67
				c1.32,0.87,1.64,2.65,0.76,4C562.23,660.2,561.32,660.65,560.41,660.65z M548.76,652.71c-0.56,0-1.13-0.17-1.62-0.52l-0.95-0.66
				c-1.31-0.91-1.64-2.71-0.75-4c0.9-1.32,2.7-1.65,4-0.76l0.96,0.67c1.31,0.88,1.64,2.67,0.75,4
				C550.58,652.27,549.67,652.71,548.76,652.71z"/>
		</g>
		<g>
			<path class="st1" d="M472.92,573c-0.09,0-0.16,0-0.24-0.04l-1.14-0.1c-1.59-0.11-2.77-1.51-2.64-3.09
				c0.14-1.58,1.46-2.8,3.13-2.66l1.14,0.13c1.57,0.14,2.75,1.51,2.62,3.13C475.67,571.86,474.41,573,472.92,573z M458.87,571.84
				c-0.08,0-0.15,0-0.23-0.03l-1.16-0.11c-1.58-0.14-2.77-1.5-2.63-3.11c0.13-1.57,1.5-2.73,3.09-2.61l1.16,0.1
				c1.58,0.12,2.76,1.49,2.64,3.08C461.61,570.67,460.36,571.84,458.87,571.84z M444.81,570.64c-0.09,0-0.16,0-0.25,0l-1.14-0.12
				c-1.59-0.14-2.78-1.51-2.63-3.07c0.12-1.6,1.49-2.74,3.09-2.67l1.16,0.1c1.58,0.12,2.76,1.53,2.62,3.11
				C447.55,569.5,446.28,570.64,444.81,570.64z M430.72,569.48c-0.07,0-0.15,0-0.23-0.03l-1.15-0.08c-1.58-0.14-2.76-1.53-2.63-3.13
				c0.14-1.59,1.46-2.83,3.11-2.63l1.15,0.1c1.58,0.15,2.75,1.53,2.63,3.08C433.48,568.32,432.21,569.48,430.72,569.48z
				 M416.68,568.32c-0.09,0-0.17-0.04-0.27-0.04l-1.13-0.09c-1.6-0.16-2.76-1.53-2.64-3.14c0.15-1.57,1.44-2.81,3.13-2.63l1.14,0.12
				c1.6,0.12,2.77,1.54,2.63,3.1C419.39,567.16,418.13,568.32,416.68,568.32z M402.6,567.12c-0.08,0-0.14-0.02-0.23-0.02l-1.14-0.08
				c-1.6-0.12-2.78-1.54-2.65-3.09c0.14-1.61,1.5-2.74,3.12-2.65l1.14,0.08c1.58,0.12,2.77,1.51,2.63,3.12
				C405.34,566,404.08,567.12,402.6,567.12z M388.54,565.98c-0.09,0-0.16-0.05-0.25-0.05l-1.15-0.07c-1.57-0.14-2.76-1.54-2.62-3.11
				c0.12-1.59,1.49-2.76,3.11-2.64l1.15,0.09c1.58,0.12,2.75,1.55,2.62,3.1C391.29,564.8,390.02,565.98,388.54,565.98z
				 M374.47,564.79c-0.08,0-0.16,0-0.24,0l-1.17-0.12c-1.59-0.12-2.75-1.51-2.62-3.13c0.14-1.54,1.44-2.81,3.12-2.61l1.16,0.12
				c1.58,0.11,2.76,1.51,2.62,3.1C377.21,563.66,375.95,564.79,374.47,564.79z M360.4,563.62c-0.07,0-0.17,0-0.25-0.02l-1.14-0.08
				c-1.59-0.16-2.77-1.54-2.62-3.13c0.13-1.6,1.44-2.83,3.1-2.63l1.16,0.08c1.57,0.17,2.75,1.55,2.63,3.14
				C363.14,562.48,361.88,563.62,360.4,563.62z M346.34,562.43c-0.09,0-0.16,0-0.25,0l-1.14-0.11c-1.58-0.11-2.76-1.51-2.64-3.11
				c0.14-1.57,1.48-2.71,3.11-2.61l1.16,0.1c1.57,0.12,2.76,1.51,2.63,3.08C349.08,561.3,347.82,562.43,346.34,562.43z
				 M332.27,561.25c-0.08,0-0.16,0-0.24,0l-1.15-0.09c-1.58-0.12-2.77-1.54-2.62-3.12c0.13-1.57,1.46-2.72,3.1-2.64l1.15,0.1
				c1.57,0.14,2.76,1.51,2.63,3.12C335.01,560.12,333.75,561.25,332.27,561.25z M318.2,560.07c-0.07,0-0.17,0-0.25,0l-1.13-0.08
				c-1.6-0.16-2.78-1.5-2.63-3.11c0.11-1.6,1.44-2.83,3.1-2.62l1.15,0.06c1.6,0.17,2.75,1.55,2.63,3.13
				C320.94,558.95,319.69,560.07,318.2,560.07z M304.13,558.9c-0.08,0-0.16,0-0.24,0l-1.14-0.11c-1.6-0.14-2.76-1.51-2.63-3.09
				c0.14-1.59,1.44-2.82,3.12-2.63l1.14,0.1c1.6,0.14,2.77,1.54,2.64,3.13C306.86,557.78,305.61,558.9,304.13,558.9z"/>
		</g>
		<g>
			<path class="st1" d="M461.81,374.94c-0.27,0-0.53-0.02-0.8-0.1c-1.53-0.46-2.41-2.04-1.96-3.57l0.32-1.09
				c0.45-1.54,2.03-2.42,3.56-1.97c1.52,0.43,2.41,2.05,1.96,3.55l-0.32,1.11C464.2,374.12,463.06,374.94,461.81,374.94z
				 M465.73,361.39c-0.27,0-0.54-0.04-0.81-0.1c-1.52-0.45-2.41-2.06-1.95-3.6l0.31-1.09c0.44-1.53,2.06-2.41,3.56-1.97
				c1.53,0.45,2.41,2.05,1.97,3.56l-0.32,1.12C468.12,360.57,466.98,361.39,465.73,361.39z M469.66,347.83
				c-0.27,0-0.55-0.03-0.81-0.12c-1.53-0.45-2.42-2.02-1.97-3.55l0.31-1.12c0.44-1.51,2.05-2.41,3.58-1.96
				c1.52,0.45,2.4,2.02,1.96,3.56l-0.32,1.1C472.06,347,470.91,347.83,469.66,347.83z M473.56,334.27c-0.26,0-0.53-0.04-0.79-0.11
				c-1.52-0.43-2.4-2.04-1.96-3.56l0.31-1.11c0.44-1.54,2.04-2.42,3.57-1.97c1.53,0.43,2.41,2.02,1.97,3.55l-0.32,1.13
				C475.98,333.46,474.83,334.27,473.56,334.27z M477.49,320.69c-0.27,0-0.53,0-0.8-0.1c-1.52-0.43-2.41-2.03-1.97-3.54l0.32-1.13
				c0.45-1.51,2.06-2.42,3.56-1.95c1.54,0.43,2.42,2.01,1.98,3.55l-0.32,1.09C479.89,319.88,478.74,320.69,477.49,320.69z
				 M481.41,307.15c-0.25,0-0.53-0.04-0.81-0.1c-1.51-0.45-2.4-2.03-1.95-3.59l0.32-1.09c0.44-1.54,2.03-2.41,3.57-1.97
				c1.51,0.44,2.39,2.04,1.96,3.59l-0.32,1.11C483.82,306.34,482.68,307.15,481.41,307.15z M485.33,293.58
				c-0.27,0-0.51-0.04-0.79-0.1c-1.52-0.43-2.41-2.05-1.96-3.56l0.31-1.12c0.43-1.51,2.03-2.41,3.57-1.96
				c1.53,0.45,2.4,2.03,1.95,3.55l-0.32,1.12C487.73,292.76,486.58,293.58,485.33,293.58z M489.27,280.03
				c-0.27,0-0.54-0.05-0.82-0.11c-1.51-0.43-2.39-2.03-1.95-3.56l0.32-1.13c0.43-1.51,2.05-2.42,3.56-1.96
				c1.53,0.45,2.41,2.05,1.97,3.58l-0.32,1.13C491.66,279.22,490.5,280.03,489.27,280.03z M493.18,266.48
				c-0.25,0-0.52-0.05-0.8-0.12c-1.53-0.45-2.41-2.05-1.97-3.57l0.33-1.09c0.42-1.54,2.03-2.41,3.55-1.99
				c1.53,0.45,2.43,2.06,1.98,3.58l-0.34,1.12C495.59,265.64,494.42,266.48,493.18,266.48z M497.1,252.9c-0.26,0-0.54-0.03-0.8-0.1
				c-1.53-0.43-2.41-2.05-1.96-3.57l0.32-1.09c0.44-1.54,2.04-2.41,3.56-1.97c1.52,0.43,2.41,2.05,1.97,3.56l-0.31,1.11
				C499.5,252.08,498.36,252.9,497.1,252.9z M501.03,239.37c-0.27,0-0.55-0.05-0.82-0.12c-1.52-0.42-2.39-2.04-1.96-3.58l0.32-1.12
				c0.45-1.51,2.03-2.41,3.57-1.96c1.53,0.45,2.4,2.03,1.97,3.57l-0.33,1.09C503.43,238.54,502.27,239.37,501.03,239.37z
				 M504.95,225.79c-0.28,0-0.54,0-0.8-0.12c-1.52-0.43-2.41-2.02-1.97-3.56l0.32-1.08c0.45-1.55,2.05-2.42,3.59-1.97
				c1.52,0.43,2.41,2.02,1.97,3.55l-0.33,1.11C507.35,224.97,506.2,225.79,504.95,225.79z M508.88,212.24
				c-0.28,0-0.55-0.05-0.81-0.12c-1.52-0.42-2.41-2.04-1.96-3.55l0.32-1.12c0.43-1.54,2.03-2.41,3.56-1.96
				c1.53,0.42,2.4,2.01,1.96,3.55l-0.32,1.12C511.27,211.42,510.11,212.24,508.88,212.24z M512.78,198.66
				c-0.25,0-0.52-0.01-0.79-0.11c-1.53-0.43-2.41-2.02-1.97-3.54l0.32-1.11c0.43-1.54,2.04-2.41,3.56-1.97
				c1.53,0.43,2.42,2.05,1.97,3.56l-0.32,1.11C515.19,197.85,514.04,198.66,512.78,198.66z"/>
		</g>
		<g>
			<path class="st1" d="M721.4,327.63c-0.86,0-1.72-0.45-2.18-1.27l-0.49-0.87c-0.68-1.19-0.26-2.7,0.94-3.4
				c1.2-0.67,2.73-0.26,3.41,0.95l0.48,0.84c0.69,1.24,0.28,2.73-0.91,3.4C722.25,327.52,721.82,327.63,721.4,327.63z
				 M715.33,316.99c-0.85,0-1.71-0.44-2.15-1.24l-0.51-0.88c-0.68-1.2-0.28-2.71,0.94-3.4c1.18-0.69,2.71-0.26,3.39,0.92l0.5,0.89
				c0.69,1.19,0.28,2.7-0.93,3.41C716.18,316.9,715.76,316.99,715.33,316.99z M709.28,306.38c-0.87,0-1.71-0.47-2.17-1.26
				l-0.49-0.85c-0.69-1.19-0.27-2.73,0.93-3.4c1.19-0.7,2.74-0.27,3.41,0.92l0.49,0.86c0.68,1.2,0.25,2.73-0.93,3.4
				C710.13,306.26,709.69,306.38,709.28,306.38z M703.21,295.75c-0.86,0-1.71-0.45-2.17-1.24l-0.5-0.89
				c-0.68-1.19-0.26-2.71,0.93-3.4c1.2-0.67,2.74-0.27,3.42,0.94l0.48,0.87c0.69,1.18,0.27,2.71-0.92,3.39
				C704.07,295.65,703.64,295.75,703.21,295.75z M697.15,285.15c-0.87,0-1.71-0.48-2.17-1.29l-0.49-0.84
				c-0.7-1.22-0.28-2.73,0.91-3.42c1.22-0.67,2.72-0.27,3.42,0.94l0.49,0.84c0.69,1.22,0.27,2.76-0.91,3.43
				C698.01,285.02,697.57,285.15,697.15,285.15z M691.08,274.5c-0.86,0-1.7-0.42-2.18-1.25l-0.49-0.87
				c-0.68-1.2-0.27-2.72,0.92-3.39c1.22-0.69,2.74-0.27,3.41,0.93l0.5,0.84c0.67,1.2,0.26,2.72-0.93,3.42
				C691.94,274.4,691.51,274.5,691.08,274.5z M685.01,263.9c-0.85,0-1.7-0.47-2.16-1.29l-0.5-0.84c-0.68-1.22-0.26-2.73,0.94-3.43
				c1.19-0.67,2.71-0.27,3.4,0.95l0.48,0.87c0.68,1.2,0.27,2.73-0.93,3.41C685.86,263.77,685.44,263.9,685.01,263.9z M678.95,253.27
				c-0.86,0-1.7-0.47-2.17-1.27l-0.49-0.87c-0.67-1.22-0.27-2.73,0.93-3.4c1.22-0.7,2.71-0.27,3.41,0.92l0.48,0.87
				c0.69,1.2,0.28,2.72-0.94,3.42C679.8,253.17,679.38,253.27,678.95,253.27z M672.9,242.63c-0.87,0-1.7-0.45-2.18-1.28l-0.48-0.85
				c-0.68-1.19-0.27-2.72,0.93-3.4c1.19-0.7,2.71-0.3,3.41,0.92l0.5,0.85c0.67,1.22,0.27,2.74-0.93,3.42
				C673.74,242.55,673.31,242.63,672.9,242.63z M666.85,232.02c-0.9,0-1.73-0.47-2.19-1.25l-0.47-0.87
				c-0.71-1.23-0.29-2.74,0.9-3.44c1.2-0.67,2.72-0.25,3.41,0.94l0.51,0.88c0.68,1.2,0.27,2.72-0.94,3.42
				C667.68,231.91,667.26,232.02,666.85,232.02z M660.77,221.4c-0.86,0-1.71-0.45-2.17-1.27l-0.5-0.84
				c-0.68-1.22-0.27-2.73,0.93-3.43c1.22-0.68,2.72-0.27,3.4,0.93l0.5,0.87c0.69,1.18,0.27,2.72-0.93,3.4
				C661.61,221.28,661.19,221.4,660.77,221.4z M654.71,210.77c-0.86,0-1.72-0.45-2.17-1.27l-0.51-0.87
				c-0.67-1.19-0.25-2.73,0.94-3.4c1.21-0.69,2.72-0.27,3.41,0.93l0.49,0.88c0.68,1.19,0.27,2.72-0.91,3.4
				C655.55,210.67,655.13,210.77,654.71,210.77z M648.65,200.15c-0.87,0-1.72-0.47-2.19-1.27l-0.49-0.89
				c-0.68-1.18-0.27-2.69,0.96-3.38c1.18-0.7,2.71-0.27,3.38,0.94l0.48,0.85c0.7,1.22,0.28,2.73-0.92,3.42
				C649.48,200.05,649.06,200.15,648.65,200.15z M642.53,189.5c-0.86,0-1.68-0.43-2.14-1.27l-0.03-0.06
				c-0.66-1.2-0.22-2.72,0.97-3.37c1.2-0.69,2.74-0.25,3.4,0.97c0.68,1.18,0.25,2.73-0.95,3.4
				C643.37,189.39,642.96,189.5,642.53,189.5z"/>
		</g>
		<g>
			<path class="st1" d="M710.2,579.06c-0.07,0-0.16-0.03-0.25-0.03c-1.6-0.15-2.76-1.56-2.61-3.1l0.11-1.19
				c0.14-1.57,1.55-2.78,3.12-2.61c1.59,0.15,2.76,1.57,2.62,3.13l-0.1,1.17C712.94,577.94,711.7,579.06,710.2,579.06z
				 M711.5,564.99c-0.11,0-0.18,0-0.27-0.01c-1.58-0.14-2.75-1.55-2.61-3.16l0.1-1.13c0.16-1.59,1.57-2.77,3.15-2.59
				c1.57,0.15,2.75,1.54,2.59,3.13l-0.1,1.18C714.23,563.87,712.95,564.99,711.5,564.99z M712.78,550.92c-0.1,0-0.18,0-0.27-0.01
				c-1.59-0.12-2.76-1.57-2.61-3.13l0.1-1.17c0.14-1.56,1.53-2.76,3.12-2.57c1.6,0.12,2.77,1.53,2.62,3.12l-0.11,1.14
				C715.5,549.79,714.25,550.92,712.78,550.92z M714.06,536.86c-0.1,0-0.19,0-0.27,0c-1.58-0.15-2.76-1.53-2.6-3.1l0.1-1.17
				c0.14-1.59,1.5-2.78,3.11-2.61c1.6,0.14,2.75,1.54,2.64,3.13l-0.12,1.15C716.79,535.74,715.52,536.86,714.06,536.86z
				 M715.33,522.83c-0.09,0-0.19,0-0.26-0.03c-1.6-0.14-2.76-1.58-2.62-3.15l0.11-1.12c0.14-1.59,1.56-2.82,3.12-2.63
				c1.61,0.14,2.77,1.55,2.61,3.17l-0.09,1.13C718.07,521.69,716.8,522.83,715.33,522.83z M716.61,508.75c-0.11,0-0.18,0-0.28-0.02
				c-1.57-0.12-2.74-1.54-2.59-3.13l0.1-1.14c0.14-1.58,1.56-2.78,3.12-2.59c1.59,0.14,2.77,1.53,2.61,3.11l-0.11,1.14
				C719.34,507.64,718.07,508.75,716.61,508.75z M717.87,494.7c-0.09,0-0.17,0-0.27-0.03c-1.59-0.12-2.75-1.57-2.61-3.13l0.11-1.14
				c0.14-1.59,1.55-2.78,3.12-2.6c1.58,0.14,2.77,1.53,2.61,3.1l-0.11,1.16C720.6,493.56,719.36,494.7,717.87,494.7z M719.16,480.63
				c-0.1,0-0.18,0-0.27-0.03c-1.6-0.12-2.76-1.53-2.6-3.1l0.1-1.14c0.13-1.6,1.55-2.78,3.11-2.61c1.59,0.12,2.76,1.54,2.61,3.1
				l-0.1,1.14C721.89,479.5,720.61,480.63,719.16,480.63z M720.42,466.59c-0.08,0-0.16,0-0.24-0.01c-1.58-0.15-2.76-1.54-2.61-3.14
				l0.1-1.16c0.14-1.59,1.56-2.74,3.12-2.61c1.58,0.15,2.77,1.57,2.61,3.12l-0.09,1.15C723.17,465.43,721.9,466.59,720.42,466.59z
				 M721.72,452.52c-0.1,0-0.18,0-0.27-0.01c-1.58-0.14-2.75-1.55-2.6-3.14l0.1-1.14c0.14-1.56,1.54-2.76,3.12-2.61
				c1.58,0.14,2.76,1.57,2.61,3.12l-0.12,1.15C724.43,451.41,723.17,452.52,721.72,452.52z M722.99,438.47c-0.09,0-0.19,0-0.25-0.02
				c-1.61-0.12-2.76-1.54-2.61-3.12l0.11-1.15c0.13-1.59,1.53-2.78,3.11-2.61c1.6,0.14,2.76,1.55,2.61,3.11l-0.1,1.16
				C725.71,437.34,724.46,438.47,722.99,438.47z M724.26,424.41c-0.08,0-0.18,0-0.26-0.01c-1.59-0.12-2.76-1.53-2.6-3.12l0.11-1.15
				c0.14-1.59,1.55-2.81,3.13-2.61c1.58,0.14,2.75,1.54,2.6,3.1l-0.11,1.17C727,423.28,725.73,424.41,724.26,424.41z M725.54,410.35
				c-0.09,0-0.17,0-0.27-0.01c-1.59-0.14-2.76-1.53-2.61-3.11l0.1-1.15c0.14-1.6,1.57-2.77,3.12-2.59c1.6,0.15,2.76,1.53,2.62,3.13
				l-0.1,1.12C728.26,409.23,727.02,410.35,725.54,410.35z M726.82,396.29c-0.08,0-0.18,0-0.27-0.01c-1.58-0.14-2.76-1.53-2.6-3.12
				l0.09-1.17c0.14-1.56,1.53-2.76,3.13-2.59c1.6,0.14,2.75,1.51,2.61,3.12l-0.09,1.14C729.55,395.18,728.29,396.29,726.82,396.29z
				 M728.09,382.24c-0.09,0-0.17,0-0.26-0.03c-1.59-0.14-2.76-1.55-2.61-3.13l0.1-1.14c0.14-1.59,1.54-2.8,3.12-2.59
				c1.61,0.11,2.76,1.53,2.62,3.1l-0.11,1.15C730.83,381.1,729.56,382.24,728.09,382.24z M729.37,368.17c-0.08,0-0.18,0-0.26-0.03
				c-1.59-0.12-2.76-1.51-2.61-3.11l0.1-1.14c0.15-1.6,1.56-2.79,3.14-2.61c1.58,0.15,2.75,1.54,2.62,3.13l-0.12,1.12
				C732.09,367.05,730.83,368.17,729.37,368.17z M730.65,354.12c-0.09,0-0.19,0-0.27-0.03c-1.59-0.12-2.75-1.51-2.61-3.1l0.1-1.17
				c0.14-1.58,1.53-2.76,3.13-2.59c1.6,0.14,2.76,1.55,2.61,3.12l-0.1,1.14C733.37,352.98,732.12,354.12,730.65,354.12z"/>
		</g>
		<g>
			<path class="st1" d="M888.91,589.51c-0.07,0-0.16,0-0.22,0l-1.16-0.12c-1.58-0.1-2.77-1.49-2.64-3.05
				c0.12-1.61,1.51-2.76,3.1-2.66l1.15,0.08c1.58,0.1,2.76,1.49,2.64,3.08C891.66,588.34,890.4,589.51,888.91,589.51z M874.83,588.4
				c-0.07,0-0.15,0-0.24-0.01l-1.14-0.09c-1.58-0.15-2.74-1.53-2.65-3.1c0.15-1.61,1.5-2.76,3.12-2.64l1.15,0.1
				c1.58,0.09,2.76,1.53,2.63,3.08C877.58,587.22,876.32,588.4,874.83,588.4z M860.76,587.28c-0.07,0-0.16,0-0.22,0l-1.15-0.1
				c-1.59-0.12-2.79-1.51-2.64-3.09c0.12-1.62,1.51-2.74,3.08-2.66l1.15,0.11c1.58,0.12,2.79,1.47,2.65,3.08
				C863.52,586.14,862.25,587.28,860.76,587.28z M846.69,586.15c-0.08,0-0.16,0-0.24,0l-1.15-0.11c-1.57-0.08-2.76-1.51-2.61-3.08
				c0.1-1.59,1.49-2.73,3.09-2.63l1.15,0.1c1.58,0.12,2.77,1.49,2.63,3.13C849.44,585.03,848.18,586.15,846.69,586.15z
				 M832.62,585.06c-0.07,0-0.14,0-0.22,0l-1.16-0.11c-1.59-0.11-2.77-1.51-2.65-3.1c0.12-1.59,1.53-2.73,3.1-2.63l1.14,0.1
				c1.59,0.12,2.78,1.49,2.65,3.07C835.37,583.91,834.11,585.06,832.62,585.06z M818.55,583.95c-0.07,0-0.16-0.03-0.22-0.03
				l-1.16-0.1c-1.59-0.14-2.77-1.49-2.62-3.09c0.11-1.58,1.49-2.72,3.09-2.63l1.16,0.09c1.57,0.12,2.75,1.53,2.63,3.1
				C821.29,582.81,820.04,583.95,818.55,583.95z M804.48,582.81c-0.08,0-0.16,0-0.21,0l-1.17-0.07c-1.56-0.15-2.78-1.51-2.63-3.1
				c0.11-1.59,1.51-2.76,3.09-2.66l1.16,0.1c1.57,0.1,2.77,1.5,2.63,3.09C807.24,581.69,805.96,582.81,804.48,582.81z
				 M790.42,581.72c-0.08,0-0.17,0-0.24,0l-1.14-0.09c-1.6-0.14-2.77-1.53-2.65-3.09c0.14-1.6,1.51-2.76,3.11-2.64l1.16,0.06
				c1.58,0.14,2.76,1.51,2.63,3.1C793.16,580.57,791.9,581.72,790.42,581.72z M776.34,580.6c-0.07,0-0.14,0-0.23-0.01l-1.14-0.09
				c-1.59-0.1-2.78-1.51-2.66-3.07c0.12-1.6,1.48-2.72,3.09-2.69l1.15,0.1c1.59,0.14,2.78,1.51,2.66,3.13
				C779.08,579.46,777.83,580.6,776.34,580.6z M762.27,579.51c-0.07,0-0.15-0.03-0.22-0.03l-1.16-0.1
				c-1.59-0.14-2.77-1.48-2.64-3.08c0.12-1.59,1.48-2.7,3.09-2.66l1.16,0.1c1.58,0.12,2.76,1.5,2.64,3.08
				C765.02,578.37,763.76,579.51,762.27,579.51z M748.19,578.38c-0.08,0-0.14,0-0.22-0.01l-1.13-0.08
				c-1.61-0.12-2.78-1.53-2.67-3.08c0.12-1.61,1.48-2.71,3.11-2.68l1.15,0.12c1.57,0.11,2.75,1.51,2.63,3.08
				C750.95,577.23,749.68,578.38,748.19,578.38z M734.1,577.27c-0.05,0-0.12,0-0.21,0l-1.15-0.11c-1.58-0.1-2.78-1.5-2.64-3.09
				c0.12-1.57,1.47-2.72,3.1-2.62l1.15,0.06c1.58,0.12,2.77,1.51,2.64,3.11C736.88,576.12,735.61,577.27,734.1,577.27z
				 M720.05,576.17c-0.07,0-0.15,0-0.24,0l-1.14-0.09c-1.58-0.15-2.77-1.53-2.65-3.12c0.15-1.6,1.54-2.72,3.11-2.64l1.14,0.06
				c1.6,0.14,2.77,1.58,2.65,3.13C722.8,575.01,721.55,576.17,720.05,576.17z"/>
		</g>
		<g>
			<polygon class="st2" points="882.01,592.43 775.45,519.63 781.95,510.11 888.52,582.91 			"/>
		</g>
		<g>
			<polygon class="st2" points="781.38,520.25 777.4,509.45 898.56,464.94 902.53,475.76 			"/>
		</g>
		<g>
			<polygon class="st2" points="714.19,577.57 706.75,568.76 775.67,510.44 783.12,519.23 			"/>
		</g>
		<g>
			<polygon class="st2" points="771.41,642.74 706.39,577.23 714.57,569.11 779.57,634.61 			"/>
		</g>
		<g>
			<polygon class="st2" points="830.42,696.36 771.61,642.92 779.37,634.4 838.17,687.85 			"/>
		</g>
		<g>
			<polygon class="st2" points="715.34,769.57 705.08,764.35 770.36,636.06 780.63,641.27 			"/>
		</g>
		<g>
			<polygon class="st2" points="576.49,262.22 507.54,206.92 514.73,197.96 583.7,253.21 			"/>
		</g>
		<g>
			<polygon class="st2" points="644.04,409.26 574.86,260.15 585.32,255.31 654.49,404.41 			"/>
		</g>
		<g>
			<polygon class="st2" points="705.06,575.15 643.86,408.86 654.69,404.88 715.88,571.19 			"/>
		</g>
		<g>
			<polygon class="st2" points="707.83,578.29 553.21,498.35 558.49,488.12 713.11,568.04 			"/>
		</g>
		<g>
			<polygon class="st2" points="551.75,497.26 451.64,396.1 459.83,387.98 559.94,489.17 			"/>
		</g>
		<g>
			<polygon class="st2" points="450.36,394.07 401.9,265.11 412.68,261.07 461.14,390.01 			"/>
		</g>
		<g>
			<polygon class="st2" points="584.56,261.35 575.63,254.08 635.25,180.88 644.17,188.17 			"/>
		</g>
		<g>
			<polygon class="st2" points="736.21,344.24 724.71,343.64 731.09,222.09 742.6,222.71 			"/>
		</g>
		<g>
			<polygon class="st2" points="623.26,701.1 613.96,694.25 705.83,569.77 715.11,576.6 			"/>
		</g>
		<g>
			<polygon class="st2" points="506.77,789.53 499.82,780.33 615.15,693.14 622.08,702.27 			"/>
		</g>
		<g>
			
				<rect x="326.26" y="602.54" transform="matrix(0.8767 -0.481 0.481 0.8767 -242.6605 269.813)" class="st2" width="157.53" height="11.51"/>
		</g>
		<g>
			
				<rect x="387.79" y="489.29" transform="matrix(0.9998 -0.0211 0.0211 0.9998 -10.3295 10.0549)" class="st2" width="168.07" height="11.51"/>
		</g>
		<g>
			<polygon class="st2" points="386.36,502.45 285.87,476.23 288.75,465.11 389.28,491.29 			"/>
		</g>
		<g>
			<polygon class="st2" points="421.99,730.16 411.16,726.25 468.68,568.43 479.49,572.38 			"/>
		</g>
		<g>
			<polygon class="st2" points="478.04,574.6 470.13,566.24 551.89,489.03 559.8,497.4 			"/>
		</g>
		<g>
			<polygon class="st2" points="730.99,349.68 729.91,338.2 855.15,326.56 856.23,338.03 			"/>
		</g>
		<g>
			<polygon class="st2" points="652.79,411.41 645.75,402.3 726.94,339.41 733.99,348.52 			"/>
		</g>
		<g>
			<polygon class="st2" points="647.42,412.32 546.35,377.93 550.06,367.02 651.12,401.4 			"/>
		</g>
		<g>
			<polygon class="st2" points="545.83,651.45 541.18,640.92 707.89,567.66 712.52,578.21 			"/>
		</g>
		<g>
			<polygon class="st2" points="773.7,515.72 760.64,432.34 772.03,430.53 785.1,513.97 			"/>
		</g>
		<g>
			<polygon class="st2" points="304.28,560.68 297.79,551.16 384.57,492.12 391.05,501.6 			"/>
		</g>
		<g>
			<path class="st3" d="M908.86,497.63c15.07-4.59,23.57-20.53,18.99-35.59c-4.59-15.08-20.54-23.57-35.62-19
				c-15.07,4.62-23.57,20.56-18.97,35.63C877.85,493.73,893.8,502.24,908.86,497.63"/>
		</g>
		<g>
			<path class="st0" d="M900.55,500.31C900.54,500.31,900.54,500.31,900.55,500.31c-13.27,0-24.81-8.53-28.66-21.23
				c-4.81-15.8,4.12-32.6,19.93-37.41c2.83-0.87,5.77-1.3,8.72-1.3c13.29,0,24.8,8.53,28.68,21.24c2.33,7.67,1.53,15.79-2.21,22.84
				c-3.77,7.05-10.08,12.24-17.73,14.56C906.44,499.87,903.49,500.31,900.55,500.31z M900.54,443.24c-2.66,0-5.3,0.4-7.89,1.19
				c-14.28,4.37-22.37,19.51-18.01,33.81c3.49,11.47,13.89,19.19,25.9,19.19c0,0,0,0,0.01,0c2.66,0,5.31-0.4,7.91-1.19
				c6.91-2.1,12.59-6.78,15.99-13.16c3.4-6.38,4.12-13.7,2.01-20.63C922.97,450.96,912.56,443.24,900.54,443.24z"/>
		</g>
		<g>
			<path class="st3" d="M788.25,542.15c15.09-4.57,23.56-20.52,18.97-35.65c-4.58-15.04-20.52-23.53-35.61-18.94
				c-15.04,4.59-23.55,20.56-18.95,35.62C757.24,538.25,773.17,546.74,788.25,542.15"/>
		</g>
		<g>
			<path class="st0" d="M779.93,544.84c-0.02,0-0.02,0-0.02,0c-13.26,0-24.77-8.55-28.64-21.29c-4.81-15.78,4.12-32.53,19.94-37.37
				c2.87-0.87,5.79-1.31,8.76-1.31c13.26,0,24.77,8.56,28.64,21.26c4.82,15.8-4.13,32.6-19.93,37.39
				C785.82,544.38,782.88,544.84,779.93,544.84z M779.96,487.75c-2.7,0-5.35,0.4-7.92,1.18c-14.29,4.37-22.37,19.53-18.02,33.8
				c3.5,11.53,13.92,19.19,25.89,19.19h0.02c2.67,0,5.33-0.35,7.9-1.17c14.28-4.32,22.36-19.53,18.02-33.81
				C802.35,495.49,791.95,487.75,779.96,487.75z"/>
		</g>
		<g>
			<path class="st3" d="M551.81,673.48c15.08-4.58,23.55-20.53,18.98-35.61c-4.59-15.07-20.53-23.55-35.6-18.97
				c-15.08,4.61-23.57,20.54-18.98,35.6C520.81,669.59,536.74,678.05,551.81,673.48"/>
		</g>
		<g>
			<path class="st0" d="M543.49,676.14L543.49,676.14c-13.27,0-24.78-8.5-28.65-21.2c-2.33-7.7-1.55-15.75,2.21-22.83
				c3.77-7.08,10.05-12.26,17.71-14.6c2.86-0.87,5.8-1.3,8.78-1.3c13.26,0,24.76,8.55,28.63,21.24c4.8,15.83-4.13,32.59-19.93,37.41
				C549.4,675.72,546.44,676.14,543.49,676.14z M543.54,619.11c-2.69,0-5.34,0.37-7.93,1.18c-6.92,2.1-12.61,6.76-16.01,13.18
				c-3.42,6.37-4.11,13.69-2,20.63c3.48,11.46,13.89,19.17,25.88,19.17l0,0c2.68,0,5.34-0.37,7.92-1.14
				c14.27-4.37,22.34-19.53,18-33.83C565.93,626.81,555.51,619.11,543.54,619.11z"/>
		</g>
		<g>
			<path class="st3" d="M481.91,594.28c13.19-4.01,20.61-17.98,16.6-31.13c-4.03-13.21-17.96-20.65-31.14-16.6
				c-13.19,4.01-20.62,17.95-16.61,31.14C454.78,590.9,468.72,598.32,481.91,594.28"/>
		</g>
		<g>
			<path class="st0" d="M474.61,596.82L474.61,596.82c-11.67,0-21.83-7.53-25.22-18.71c-2.07-6.77-1.37-13.89,1.93-20.11
				c3.33-6.23,8.86-10.79,15.61-12.86c2.51-0.77,5.12-1.14,7.72-1.14c11.68,0,21.81,7.55,25.22,18.74
				c4.24,13.93-3.62,28.68-17.55,32.92C479.83,596.44,477.22,596.82,474.61,596.82z M474.66,546.89c-2.33,0-4.64,0.35-6.89,1.04
				c-5.99,1.85-10.94,5.91-13.89,11.39c-2.96,5.57-3.58,11.95-1.75,17.95c3.03,9.94,12.06,16.66,22.47,16.66l0,0
				c2.32,0,4.64-0.32,6.88-1.03c12.4-3.77,19.41-16.94,15.65-29.36C494.1,553.58,485.06,546.89,474.66,546.89z"/>
		</g>
		<g>
			<path class="st3" d="M556.54,399.77c15.05-4.59,23.55-20.54,18.94-35.62c-4.59-15.07-20.51-23.56-35.59-18.94
				c-15.08,4.57-23.57,20.48-18.97,35.6C525.49,395.85,541.43,404.36,556.54,399.77"/>
		</g>
		<g>
			<path class="st0" d="M548.2,402.48h-0.02c-13.26,0-24.77-8.57-28.63-21.28c-2.34-7.64-1.55-15.76,2.21-22.81
				c3.77-7.08,10.07-12.24,17.72-14.57c2.85-0.87,5.8-1.34,8.74-1.34c13.26,0,24.78,8.56,28.62,21.28
				c2.37,7.62,1.58,15.74-2.18,22.83c-3.77,7.06-10.06,12.23-17.71,14.55C554.08,402.03,551.15,402.48,548.2,402.48z M548.22,345.39
				c-2.67,0-5.33,0.4-7.91,1.18c-6.93,2.08-12.62,6.78-16,13.17c-3.41,6.37-4.12,13.7-2.01,20.62c3.49,11.51,13.89,19.2,25.88,19.2
				h0.02c2.68,0,5.33-0.38,7.89-1.15c6.93-2.12,12.61-6.83,16.02-13.18c3.41-6.38,4.11-13.73,1.99-20.63
				C570.6,353.1,560.2,345.39,548.22,345.39z"/>
		</g>
		<g>
			<path class="st3" d="M624.86,718.17c11.32-3.45,17.66-15.39,14.23-26.67c-3.44-11.31-15.39-17.7-26.69-14.3
				c-11.32,3.49-17.67,15.44-14.23,26.75C601.6,715.27,613.54,721.63,624.86,718.17"/>
		</g>
		<g>
			<path class="st0" d="M618.6,720.54L618.6,720.54c-10.12,0-18.89-6.5-21.81-16.16c-3.68-12.08,3.15-24.88,15.18-28.55
				c2.17-0.66,4.4-0.98,6.67-0.98c10.12,0,18.89,6.49,21.84,16.18c3.66,12.08-3.16,24.86-15.2,28.52
				C623.09,720.21,620.85,720.54,618.6,720.54z M618.64,677.72c-1.97,0-3.93,0.31-5.82,0.91c-10.52,3.2-16.48,14.36-13.29,24.87
				c2.58,8.48,10.24,14.14,19.07,14.14l0,0c1.97,0,3.92-0.26,5.83-0.81c10.52-3.23,16.48-14.42,13.29-24.92
				C635.13,683.43,627.47,677.72,618.64,677.72z"/>
		</g>
		<g>
			<path class="st3" d="M625.88,819.72c13.21-4.01,20.63-17.94,16.61-31.17c-4.01-13.18-17.97-20.61-31.13-16.56
				c-13.21,4.01-20.62,17.94-16.61,31.13C598.76,816.34,612.71,823.74,625.88,819.72"/>
		</g>
		<g>
			<path class="st0" d="M618.62,822.25L618.62,822.25c-11.69,0-21.82-7.53-25.25-18.69c-2.05-6.74-1.36-13.89,1.95-20.13
				c3.33-6.23,8.86-10.77,15.62-12.82c2.51-0.78,5.08-1.14,7.7-1.14c11.67,0,21.83,7.51,25.24,18.67
				c4.25,13.96-3.66,28.72-17.56,32.98C623.8,821.86,621.22,822.25,618.62,822.25z M618.64,772.34c-2.32,0-4.63,0.35-6.87,1
				c-6.02,1.82-10.95,5.88-13.9,11.45c-2.96,5.54-3.57,11.88-1.74,17.92c3.04,9.97,12.07,16.63,22.49,16.63l0,0
				c2.32,0,4.62-0.32,6.85-1c12.4-3.75,19.42-16.93,15.66-29.33C638.08,779.02,629.03,772.34,618.64,772.34z"/>
		</g>
		<g>
			<path class="st3" d="M425.44,755.5c15.07-4.61,23.56-20.56,18.95-35.58c-4.6-15.11-20.52-23.62-35.6-19.02
				c-15.07,4.59-23.55,20.56-18.97,35.6C394.42,751.57,410.35,760.11,425.44,755.5"/>
		</g>
		<g>
			<path class="st0" d="M417.12,758.2L417.12,758.2c-13.27,0-24.79-8.54-28.68-21.26c-2.32-7.69-1.53-15.77,2.23-22.83
				c3.77-7.1,10.06-12.24,17.71-14.58c2.86-0.83,5.8-1.29,8.76-1.29c13.26,0,24.76,8.51,28.64,21.23c2.35,7.65,1.56,15.81-2.2,22.79
				c-3.77,7.08-10.06,12.26-17.71,14.61C423,757.74,420.06,758.2,417.12,758.2z M417.14,701.1c-2.68,0-5.33,0.42-7.91,1.19
				c-6.92,2.11-12.61,6.79-16,13.13c-3.42,6.43-4.12,13.74-2.03,20.64c3.51,11.52,13.92,19.25,25.92,19.25l0,0
				c2.67,0,5.31-0.4,7.89-1.19c6.93-2.12,12.61-6.83,16.02-13.19c3.39-6.41,4.1-13.68,1.99-20.64
				C439.53,708.81,429.12,701.1,417.14,701.1z"/>
		</g>
		<g>
			<path class="st3" d="M395.02,517.19c11.21-3.66,17.33-15.74,13.66-26.99c-3.68-11.22-15.74-17.35-26.99-13.68
				c-11.23,3.7-17.35,15.76-13.68,26.98C371.69,514.74,383.79,520.88,395.02,517.19"/>
		</g>
		<g>
			<path class="st0" d="M388.34,519.68L388.34,519.68c-9.89,0-18.6-6.29-21.7-15.69c-3.9-11.99,2.65-24.9,14.6-28.83
				c2.31-0.76,4.7-1.12,7.11-1.12c9.88,0,18.61,6.32,21.7,15.74c1.89,5.8,1.41,12-1.33,17.42c-2.77,5.42-7.48,9.48-13.26,11.39
				C393.16,519.3,390.74,519.68,388.34,519.68z M388.36,476.9c-2.11,0-4.19,0.33-6.2,1c-10.46,3.43-16.19,14.71-12.77,25.17
				c2.67,8.2,10.29,13.74,18.95,13.74l0,0c2.11,0,4.2-0.34,6.23-0.98c5.05-1.68,9.17-5.2,11.59-9.94
				c2.41-4.74,2.82-10.15,1.15-15.22C404.63,482.44,397.01,476.9,388.36,476.9z"/>
		</g>
		<g>
			<path class="st3" d="M308.31,579.83c13.19-4.05,20.61-17.99,16.61-31.16c-4.03-13.21-17.97-20.63-31.15-16.6
				c-13.2,4-20.63,17.96-16.61,31.17C281.17,576.38,295.12,583.83,308.31,579.83"/>
		</g>
		<g>
			<path class="st0" d="M301.01,582.34L301.01,582.34c-11.68,0-21.81-7.52-25.24-18.69c-4.23-13.93,3.63-28.72,17.57-32.97
				c2.5-0.77,5.1-1.14,7.69-1.14c11.68,0,21.82,7.52,25.25,18.74c2.06,6.73,1.35,13.88-1.96,20.06
				c-3.33,6.24-8.87,10.82-15.61,12.86C306.21,581.97,303.61,582.34,301.01,582.34z M301.04,532.44c-2.33,0-4.62,0.34-6.86,1.02
				c-12.41,3.77-19.44,16.91-15.66,29.34c3.04,9.97,12.08,16.66,22.49,16.66l0,0c2.33,0,4.64-0.35,6.86-1.02
				c6.02-1.84,10.96-5.91,13.91-11.45c2.96-5.55,3.56-11.93,1.73-17.9C320.48,539.13,311.45,532.44,301.04,532.44z"/>
		</g>
		<g>
			<path class="st3" d="M464.61,419.33c15.08-4.59,23.55-20.53,18.96-35.61c-4.59-15.06-20.53-23.56-35.58-18.95
				c-15.09,4.59-23.57,20.53-18.99,35.6C433.59,415.43,449.55,423.92,464.61,419.33"/>
		</g>
		<g>
			<path class="st0" d="M456.27,422.02L456.27,422.02c-13.26,0-24.78-8.53-28.66-21.24c-4.8-15.81,4.16-32.62,19.95-37.4
				c2.87-0.87,5.8-1.33,8.75-1.33c13.26,0,24.78,8.57,28.64,21.26c2.35,7.64,1.56,15.75-2.21,22.8
				c-3.76,7.07-10.05,12.24-17.72,14.6C462.16,421.57,459.23,422.02,456.27,422.02z M456.3,364.96c-2.67,0-5.34,0.4-7.91,1.17
				c-14.28,4.34-22.36,19.51-18.01,33.81c3.49,11.47,13.89,19.22,25.88,19.22c2.69,0,5.34-0.42,7.92-1.19
				c6.92-2.11,12.61-6.8,16.03-13.18c3.4-6.38,4.11-13.7,2-20.62C478.7,372.68,468.28,364.96,456.3,364.96z"/>
		</g>
		<g>
			<path class="st3" d="M320.76,416.51c15.1-4.61,23.55-20.54,18.99-35.59c-4.6-15.12-20.54-23.61-35.61-19.02
				c-15.08,4.58-23.57,20.54-18.97,35.63C289.76,412.6,305.69,421.09,320.76,416.51"/>
		</g>
		<g>
			<path class="st0" d="M312.41,419.18L312.41,419.18c-13.26,0-24.76-8.54-28.62-21.22c-2.34-7.67-1.53-15.76,2.21-22.84
				c3.77-7.07,10.09-12.24,17.74-14.57c2.84-0.87,5.78-1.31,8.72-1.31c13.27,0,24.78,8.54,28.66,21.25
				c4.8,15.81-4.14,32.59-19.94,37.37C318.35,418.74,315.39,419.18,312.41,419.18z M312.46,362.13c-2.66,0-5.32,0.38-7.89,1.16
				c-6.93,2.14-12.6,6.78-16.01,13.17c-3.41,6.39-4.12,13.72-2.01,20.64c3.49,11.47,13.89,19.19,25.86,19.19l0,0
				c2.68,0,5.35-0.4,7.94-1.19c14.28-4.35,22.36-19.5,18.01-33.79C334.86,369.84,324.47,362.13,312.46,362.13z"/>
		</g>
		<g>
			<path class="st3" d="M656.05,427.31c11.31-3.44,17.68-15.39,14.23-26.69c-3.45-11.32-15.4-17.69-26.7-14.24
				c-11.3,3.45-17.66,15.38-14.23,26.7C632.79,424.4,644.75,430.74,656.05,427.31"/>
		</g>
		<g>
			<path class="st0" d="M649.8,429.68L649.8,429.68c-10.11,0-18.87-6.5-21.83-16.16c-3.66-12.06,3.13-24.82,15.18-28.49
				c2.17-0.68,4.43-1.04,6.66-1.04c10.11,0,18.88,6.54,21.84,16.2c1.79,5.85,1.18,12.03-1.69,17.4c-2.87,5.36-7.66,9.33-13.5,11.1
				C654.3,429.36,652.05,429.68,649.8,429.68z M649.81,386.91c-1.95,0-3.91,0.27-5.82,0.84c-10.52,3.2-16.48,14.4-13.27,24.92
				c2.57,8.47,10.23,14.13,19.07,14.13l0,0c1.95,0,3.91-0.3,5.83-0.87c5.09-1.54,9.27-4.99,11.79-9.71
				c2.51-4.68,3.05-10.1,1.48-15.21C666.33,392.57,658.65,386.91,649.81,386.91z"/>
		</g>
		<g>
			<path class="st3" d="M588.96,285c15.07-4.59,23.55-20.51,18.97-35.6c-4.6-15.07-20.53-23.57-35.61-18.97
				c-15.05,4.59-23.57,20.51-18.96,35.61C557.95,281.1,573.87,289.59,588.96,285"/>
		</g>
		<g>
			<path class="st0" d="M580.63,287.68L580.63,287.68c-13.26,0-24.77-8.54-28.66-21.23c-4.81-15.79,4.13-32.57,19.92-37.41
				c2.85-0.87,5.8-1.3,8.75-1.3c13.26,0,24.78,8.51,28.66,21.24c4.8,15.8-4.13,32.57-19.93,37.4
				C586.54,287.24,583.58,287.68,580.63,287.68z M580.65,230.61c-2.67,0-5.34,0.42-7.91,1.19c-14.28,4.37-22.36,19.54-18.02,33.81
				c3.5,11.49,13.92,19.19,25.91,19.19l0,0c2.67,0,5.33-0.4,7.89-1.2c14.29-4.34,22.37-19.5,18.02-33.78
				C603.04,238.35,592.63,230.61,580.65,230.61z"/>
		</g>
		<g>
			<path class="st3" d="M519.44,229.76c15.05-4.61,23.55-20.56,18.97-35.62c-4.59-15.07-20.54-23.56-35.59-18.98
				c-15.1,4.58-23.57,20.52-18.99,35.61C488.43,225.83,504.37,234.33,519.44,229.76"/>
		</g>
		<g>
			<path class="st0" d="M511.11,232.42L511.11,232.42c-13.25,0-24.78-8.54-28.65-21.24c-4.8-15.8,4.13-32.6,19.93-37.4
				c2.87-0.84,5.79-1.3,8.74-1.3c13.27,0,24.8,8.53,28.67,21.24c4.8,15.81-4.14,32.57-19.95,37.41
				C517,231.97,514.08,232.42,511.11,232.42z M511.14,175.36c-2.65,0-5.32,0.41-7.89,1.2c-14.29,4.34-22.36,19.5-18.04,33.78
				c3.52,11.49,13.92,19.23,25.91,19.23l0,0c2.69,0,5.33-0.41,7.91-1.22c14.29-4.35,22.37-19.52,18.03-33.8
				C533.54,183.09,523.12,175.36,511.14,175.36z"/>
		</g>
		<g>
			<path class="st3" d="M739.31,371.23c15.09-4.58,23.59-20.54,18.99-35.59c-4.61-15.07-20.55-23.59-35.61-18.95
				c-15.08,4.57-23.58,20.49-18.97,35.59C708.32,367.34,724.23,375.84,739.31,371.23"/>
		</g>
		<g>
			<path class="st0" d="M730.99,373.94L730.99,373.94c-13.27,0-24.78-8.57-28.64-21.24c-2.35-7.66-1.56-15.79,2.2-22.84
				c3.77-7.05,10.06-12.24,17.71-14.57c2.86-0.86,5.8-1.32,8.75-1.32c13.28,0,24.78,8.54,28.68,21.25
				c2.32,7.65,1.54,15.77-2.23,22.82c-3.77,7.08-10.07,12.24-17.73,14.57C736.88,373.48,733.93,373.94,730.99,373.94z
				 M731.01,316.85c-2.66,0-5.31,0.41-7.9,1.19c-6.93,2.11-12.59,6.77-16.01,13.17c-3.4,6.38-4.11,13.7-2,20.63
				c3.5,11.46,13.9,19.18,25.89,19.18c2.68,0,5.32-0.4,7.91-1.17c6.92-2.11,12.6-6.79,16.01-13.16c3.41-6.38,4.1-13.71,2.02-20.62
				C753.4,324.56,742.99,316.85,731.01,316.85z"/>
		</g>
		<g>
			<path class="st3" d="M745.15,249.69c15.08-4.59,23.57-20.53,18.97-35.61c-4.6-15.06-20.52-23.56-35.6-18.93
				c-15.06,4.56-23.56,20.53-18.96,35.59C714.14,245.8,730.08,254.27,745.15,249.69"/>
		</g>
		<g>
			<path class="st0" d="M736.83,252.38h-0.02c-13.26,0-24.77-8.54-28.64-21.24c-2.34-7.64-1.56-15.76,2.22-22.83
				c3.77-7.05,10.05-12.24,17.73-14.55c2.83-0.87,5.79-1.33,8.75-1.33c13.25,0,24.75,8.53,28.63,21.22
				c2.34,7.66,1.56,15.78-2.22,22.83c-3.75,7.07-10.05,12.24-17.71,14.55C742.71,251.93,739.79,252.38,736.83,252.38z
				 M736.87,195.35c-2.67,0-5.34,0.37-7.92,1.14c-6.92,2.12-12.62,6.79-16.01,13.18c-3.4,6.38-4.12,13.7-2,20.62
				c3.49,11.47,13.9,19.19,25.87,19.19h0.02c2.66,0,5.32-0.4,7.89-1.18c6.94-2.08,12.61-6.78,16.01-13.17
				c3.41-6.39,4.12-13.72,2.01-20.63C759.24,203.03,748.84,195.35,736.87,195.35z"/>
		</g>
		<g>
			<path class="st3" d="M840.54,712.57c11.28-3.45,17.66-15.39,14.22-26.73c-3.45-11.28-15.43-17.64-26.7-14.2
				c-11.32,3.41-17.68,15.38-14.24,26.65C817.27,709.67,829.22,716.04,840.54,712.57"/>
		</g>
		<g>
			<path class="st0" d="M834.26,714.97L834.26,714.97c-10.1,0-18.86-6.55-21.82-16.21c-1.78-5.82-1.17-12.03,1.69-17.39
				c2.87-5.38,7.67-9.31,13.5-11.11c2.18-0.67,4.42-0.99,6.66-0.99c10.11,0,18.89,6.5,21.83,16.18c1.79,5.82,1.18,12.02-1.68,17.39
				c-2.88,5.4-7.68,9.31-13.5,11.08C838.78,714.6,836.54,714.97,834.26,714.97z M834.3,672.16c-1.96,0-3.92,0.3-5.84,0.84
				c-5.09,1.58-9.26,5.03-11.77,9.71c-2.51,4.72-3.03,10.12-1.48,15.22c2.58,8.43,10.23,14.16,19.05,14.16l0,0
				c1.98,0,3.95-0.34,5.84-0.88c5.11-1.54,9.29-5,11.82-9.73c2.5-4.69,3.01-10.09,1.44-15.17
				C850.85,677.97,842.99,672.16,834.3,672.16z"/>
		</g>
		<g>
			<path class="st1" d="M772.56,451.9c11.3-3.46,17.68-15.39,14.23-26.72c-3.45-11.31-15.39-17.66-26.7-14.24
				c-11.32,3.47-17.68,15.42-14.22,26.74C749.29,448.98,761.25,455.35,772.56,451.9"/>
		</g>
		<g>
			<path class="st2" d="M770.7,445.75c7.89-2.43,12.34-10.77,9.94-18.69c-2.41-7.87-10.77-12.35-18.67-9.93
				c-7.9,2.39-12.36,10.75-9.95,18.67C754.42,443.69,762.77,448.15,770.7,445.75"/>
		</g>
		<g>
			<path class="st0" d="M766.33,448.9L766.33,448.9c-7.74,0-14.46-4.96-16.72-12.39c-2.81-9.21,2.4-18.99,11.62-21.81
				c1.67-0.51,3.38-0.74,5.1-0.74c7.74,0,14.45,4.98,16.73,12.37c2.79,9.21-2.42,18.99-11.62,21.82
				C769.78,448.65,768.04,448.9,766.33,448.9z M766.33,418.96c-1.2,0-2.44,0.22-3.63,0.56c-6.55,2-10.28,8.99-8.27,15.53
				c1.61,5.29,6.4,8.84,11.91,8.84l0,0c1.22,0,2.45-0.2,3.63-0.54c6.55-2.03,10.25-8.99,8.26-15.54
				C776.63,422.54,771.83,418.96,766.33,418.96z"/>
		</g>
		<g>
			<path class="st1" d="M509.52,805.41c11.3-3.46,17.67-15.39,14.22-26.72c-3.44-11.33-15.39-17.65-26.69-14.23
				c-11.31,3.49-17.66,15.39-14.23,26.7C486.26,802.49,498.22,808.84,509.52,805.41"/>
		</g>
		<g>
			<path class="st2" d="M507.31,798.21c7.36-2.26,11.49-10.02,9.26-17.3c-2.24-7.31-9.99-11.47-17.32-9.22
				c-7.34,2.2-11.48,9.99-9.23,17.28C492.25,796.3,500,800.47,507.31,798.21"/>
		</g>
		<g>
			<path class="st0" d="M503.28,801.35L503.28,801.35c-7.25,0-13.56-4.7-15.66-11.64c-1.29-4.2-0.86-8.63,1.22-12.51
				c2.03-3.85,5.49-6.68,9.67-7.95c1.56-0.51,3.16-0.71,4.78-0.71c7.26,0,13.56,4.68,15.68,11.62c2.63,8.65-2.27,17.8-10.92,20.45
				C506.49,801.09,504.88,801.35,503.28,801.35z M503.29,773.59c-1.12,0-2.22,0.15-3.29,0.46c-2.92,0.88-5.29,2.83-6.72,5.54
				c-1.45,2.63-1.74,5.75-0.85,8.65c1.46,4.8,5.81,8.06,10.85,8.06l0,0c1.12,0,2.22-0.2,3.31-0.51c5.98-1.84,9.39-8.17,7.57-14.18
				C512.72,776.88,508.25,773.59,503.29,773.59z"/>
		</g>
		<g>
			<path class="st1" d="M566.78,527.32c18.84-5.7,29.47-25.67,23.71-44.49c-5.74-18.84-25.67-29.45-44.51-23.71
				c-18.81,5.74-29.46,25.65-23.71,44.51C528.02,522.43,547.97,533.08,566.78,527.32"/>
		</g>
		<g>
			<path class="st2" d="M563.59,516.82c13-3.97,20.37-17.77,16.39-30.78c-3.95-13.03-17.74-20.38-30.76-16.41
				c-13.02,4-20.4,17.75-16.4,30.79C536.76,513.45,550.56,520.78,563.59,516.82"/>
		</g>
		<g>
			<path class="st0" d="M556.39,520.41L556.39,520.41c-12.06,0-22.5-7.73-26.01-19.25c-2.12-6.98-1.39-14.31,2.02-20.71
				c3.41-6.38,9.14-11.11,16.06-13.23c2.59-0.77,5.26-1.17,7.94-1.17c12.02,0,22.47,7.75,25.98,19.25
				c4.37,14.31-3.74,29.56-18.09,33.9C561.73,519.98,559.06,520.41,556.39,520.41z M556.41,471.07c-2.18,0-4.34,0.32-6.46,0.97
				c-5.65,1.72-10.32,5.56-13.1,10.77c-2.77,5.22-3.35,11.2-1.63,16.84c2.87,9.41,11.38,15.7,21.19,15.7l0,0
				c2.16,0,4.34-0.31,6.44-0.96c11.68-3.54,18.29-15.94,14.75-27.64C574.75,477.54,566.05,471.07,556.41,471.07z"/>
		</g>
		<g>
			<path class="st1" d="M343.23,670.08c13.18-4.02,20.62-17.99,16.61-31.13c-4.04-13.22-17.95-20.64-31.15-16.62
				c-13.2,4-20.63,17.94-16.6,31.13C316.1,666.66,330.05,674.11,343.23,670.08"/>
		</g>
		<g>
			<path class="st2" d="M340.58,661.37c8.39-2.53,13.11-11.39,10.55-19.83c-2.55-8.38-11.41-13.07-19.79-10.51
				c-8.36,2.57-13.1,11.42-10.53,19.79C323.35,659.2,332.21,663.94,340.58,661.37"/>
		</g>
		<g>
			<path class="st0" d="M335.94,664.6L335.94,664.6c-8.15,0-15.19-5.25-17.56-13.04c-2.95-9.72,2.53-19.97,12.22-22.93
				c1.76-0.57,3.57-0.82,5.39-0.82c8.12,0,15.19,5.24,17.56,13.02c1.43,4.67,0.95,9.68-1.35,14.02c-2.31,4.34-6.18,7.49-10.87,8.94
				C339.57,664.29,337.76,664.6,335.94,664.6z M335.98,632.83c-1.33,0-2.63,0.21-3.91,0.57c-7.04,2.15-11.02,9.66-8.89,16.7
				c1.73,5.66,6.85,9.42,12.75,9.42l0,0c1.32,0,2.63-0.15,3.92-0.58c3.41-1.02,6.21-3.33,7.89-6.47c1.66-3.13,2.02-6.75,0.98-10.15
				C347.01,636.62,341.87,632.83,335.98,632.83z"/>
		</g>
		<g>
			<path class="st1" d="M292.5,487.71c9.43-2.88,14.73-12.82,11.87-22.23c-2.86-9.43-12.82-14.75-22.25-11.89
				c-9.4,2.9-14.73,12.86-11.87,22.24C273.11,485.27,283.08,490.58,292.5,487.71"/>
		</g>
		<g>
			<path class="st2" d="M290.27,480.36c5.38-1.62,8.39-7.3,6.76-12.65c-1.63-5.41-7.31-8.42-12.67-6.8
				c-5.38,1.69-8.42,7.35-6.77,12.71C279.22,478.99,284.9,482,290.27,480.36"/>
		</g>
		<g>
			<path class="st0" d="M287.3,483.33L287.3,483.33c-5.62,0-10.48-3.6-12.13-8.96c-2.04-6.7,1.74-13.8,8.43-15.84
				c1.2-0.37,2.46-0.52,3.7-0.52c5.64,0,10.5,3.58,12.13,8.95c0.98,3.25,0.65,6.67-0.94,9.67c-1.6,2.99-4.27,5.16-7.5,6.16
				C289.8,483.16,288.56,483.33,287.3,483.33z M287.31,463c-0.75,0-1.5,0.12-2.23,0.35c-4.04,1.22-6.33,5.51-5.1,9.53
				c0.99,3.25,3.94,5.42,7.32,5.42l0,0c0.75,0,1.5-0.12,2.24-0.34c1.94-0.61,3.55-1.91,4.51-3.72c0.97-1.79,1.17-3.86,0.56-5.79
				C293.63,465.18,290.71,463,287.31,463z"/>
		</g>
		<g>
			<path class="st1" d="M416.62,293.8c16.98-5.2,26.54-23.08,21.38-40.08c-5.2-16.93-23.1-26.49-40.06-21.34
				c-16.97,5.15-26.5,23.09-21.34,40.06C381.76,289.41,399.69,298.95,416.62,293.8"/>
		</g>
		<g>
			<path class="st2" d="M413.83,284.56c11.85-3.62,18.54-16.16,14.95-28.03c-3.62-11.85-16.18-18.53-28.02-14.92
				c-11.86,3.61-18.54,16.16-14.9,27.99C389.43,281.47,401.98,288.17,413.83,284.56"/>
		</g>
		<g>
			<path class="st0" d="M407.29,288.05L407.29,288.05c-11.06,0-20.65-7.11-23.86-17.68c-4.01-13.19,3.44-27.15,16.59-31.17
				c2.37-0.71,4.83-1.08,7.27-1.08c11.04,0,20.65,7.09,23.87,17.68c4,13.16-3.44,27.15-16.6,31.16
				C412.19,287.68,409.74,288.05,407.29,288.05z M407.29,243.14c-1.95,0-3.92,0.3-5.8,0.87c-10.51,3.22-16.47,14.38-13.24,24.88
				c2.57,8.45,10.22,14.13,19.05,14.13l0,0c1.97,0,3.9-0.3,5.8-0.84c10.5-3.22,16.44-14.4,13.27-24.9
				C423.78,248.83,416.12,243.14,407.29,243.14z"/>
		</g>
		<g>
			<path class="st1" d="M646.26,204.99c11.29-3.45,17.67-15.37,14.22-26.69c-3.45-11.3-15.4-17.68-26.69-14.24
				c-11.31,3.44-17.69,15.39-14.23,26.7C622.99,202.06,634.97,208.45,646.26,204.99"/>
		</g>
		<g>
			<path class="st2" d="M643.58,197.22c7.01-2.14,10.97-9.53,8.83-16.56c-2.15-7.01-9.56-10.95-16.55-8.81
				c-7.01,2.13-10.98,9.53-8.83,16.55C629.15,195.39,636.57,199.35,643.58,197.22"/>
		</g>
		<g>
			<path class="st0" d="M639.7,200.29c-6.89,0-13.08-4.59-15.08-11.19c-1.24-4-0.84-8.27,1.16-11.99c1.98-3.73,5.29-6.46,9.33-7.67
				c1.49-0.46,3.05-0.7,4.59-0.7c6.99,0,13.05,4.49,15.11,11.2c1.22,4.03,0.81,8.29-1.18,12.03c-1.98,3.71-5.28,6.45-9.33,7.66
				C642.81,200.1,641.27,200.29,639.7,200.29z M639.71,173.78c-1.05,0-2.11,0.16-3.13,0.47c-2.76,0.85-4.99,2.69-6.36,5.24
				c-1.35,2.5-1.61,5.44-0.78,8.17c1.66,5.51,7.85,8.84,13.4,7.15c2.76-0.81,5.01-2.68,6.35-5.23c1.35-2.52,1.65-5.42,0.8-8.18
				C648.6,176.84,644.46,173.78,639.71,173.78z"/>
		</g>
		<g>
			<path class="st1" d="M864,359.58c15.08-4.59,23.55-20.54,18.97-35.59c-4.6-15.11-20.53-23.57-35.61-19
				c-15.08,4.61-23.54,20.53-18.98,35.6C832.99,355.7,848.93,364.17,864,359.58"/>
		</g>
		<g>
			<path class="st2" d="M861.43,351.13c10.42-3.16,16.27-14.17,13.11-24.6c-3.17-10.39-14.18-16.29-24.57-13.07
				c-10.44,3.15-16.29,14.16-13.12,24.56C840.02,348.45,851.04,354.31,861.43,351.13"/>
		</g>
		<g>
			<path class="st0" d="M855.7,354.52L855.7,354.52c-9.86,0-18.39-6.34-21.27-15.78c-3.55-11.71,3.08-24.15,14.78-27.71
				c2.13-0.64,4.29-0.97,6.49-0.97c9.84,0,18.38,6.32,21.24,15.74c1.73,5.68,1.14,11.68-1.65,16.93
				c-2.78,5.23-7.45,9.09-13.13,10.81C860.05,354.19,857.87,354.52,855.7,354.52z M855.7,315.1c-1.68,0-3.38,0.26-5.02,0.74
				c-9.05,2.74-14.21,12.4-11.42,21.45c2.19,7.29,8.8,12.18,16.43,12.18l0,0c1.68,0,3.38-0.26,5.01-0.76
				c4.37-1.35,7.99-4.28,10.14-8.35c2.17-4.02,2.6-8.69,1.27-13.1C869.92,319.98,863.31,315.1,855.7,315.1z"/>
		</g>
		<g>
			<path class="st1" d="M892.81,617.29c16.95-5.18,26.5-23.06,21.34-40.02c-5.18-16.98-23.09-26.49-40.06-21.34
				c-16.93,5.13-26.49,23.05-21.33,40.03C857.92,612.95,875.83,622.46,892.81,617.29"/>
		</g>
		<g>
			<path class="st2" d="M889.27,605.7c10.53-3.2,16.48-14.39,13.28-24.9c-3.23-10.55-14.37-16.51-24.92-13.28
				c-10.55,3.2-16.49,14.35-13.29,24.91C867.57,602.98,878.71,608.93,889.27,605.7"/>
		</g>
		<g>
			<path class="st0" d="M883.43,609.1L883.43,609.1c-9.93,0-18.59-6.39-21.49-15.91c-3.59-11.89,3.1-24.45,14.95-28.08
				c2.14-0.65,4.36-0.98,6.58-0.98c9.93,0,18.58,6.39,21.5,15.92c3.6,11.87-3.11,24.44-14.98,28.05
				C887.87,608.75,885.66,609.1,883.43,609.1z M883.47,569.15c-1.74,0-3.46,0.27-5.12,0.77c-9.19,2.78-14.39,12.55-11.6,21.77
				c2.25,7.4,8.96,12.39,16.68,12.39c1.73,0,3.44-0.27,5.1-0.81c9.21-2.77,14.4-12.52,11.6-21.73
				C897.88,574.17,891.19,569.15,883.47,569.15z"/>
		</g>
		<g>
			<path class="st1" d="M721.16,801.09c18.81-5.76,29.45-25.72,23.69-44.54c-5.72-18.84-25.63-29.47-44.49-23.71
				c-18.84,5.72-29.45,25.65-23.7,44.49C682.39,796.24,702.32,806.81,721.16,801.09"/>
		</g>
		<g>
			<path class="st2" d="M717.64,789.5c12.44-3.8,19.46-16.93,15.66-29.38c-3.79-12.5-16.96-19.53-29.4-15.73
				c-12.47,3.82-19.47,16.99-15.67,29.44C692.01,786.24,705.21,793.29,717.64,789.5"/>
		</g>
		<g>
			<path class="st0" d="M710.77,793.02L710.77,793.02c-11.56,0-21.6-7.44-24.96-18.46c-2.02-6.62-1.33-13.73,1.92-19.87
				c3.28-6.16,8.75-10.65,15.42-12.7c2.49-0.72,5.06-1.14,7.63-1.14c11.56,0,21.57,7.42,24.92,18.52
				c2.03,6.65,1.35,13.72-1.92,19.86c-3.28,6.16-8.76,10.65-15.41,12.68C715.89,792.67,713.33,793.02,710.77,793.02z M710.79,745.9
				c-2.07,0-4.15,0.31-6.16,0.92c-5.39,1.65-9.81,5.25-12.44,10.22c-2.65,4.96-3.2,10.67-1.55,16.05
				c2.67,8.8,10.94,14.91,20.13,14.91l0,0c2.07,0,4.13-0.3,6.15-0.89c5.36-1.63,9.77-5.28,12.42-10.26
				c2.65-4.94,3.2-10.64,1.56-16.06C728.22,752.04,719.96,745.9,710.79,745.9z"/>
		</g>
		<g>
			<path class="st1" d="M723.68,617.16c24.42-7.44,38.2-33.25,30.74-57.67c-7.45-24.39-33.26-38.17-57.68-30.75
				c-24.41,7.42-38.17,33.27-30.73,57.67C673.45,610.8,699.28,624.57,723.68,617.16"/>
		</g>
		<g>
			<path class="st2" d="M720.08,605.33c17.89-5.46,27.97-24.38,22.52-42.27c-5.45-17.88-24.37-27.97-42.25-22.5
				c-17.9,5.46-27.97,24.35-22.52,42.25C683.29,600.68,702.21,610.8,720.08,605.33"/>
		</g>
		<g>
			<path class="st0" d="M710.2,609.3L710.2,609.3c-16.11,0-30.08-10.35-34.77-25.75c-2.84-9.29-1.88-19.14,2.69-27.73
				c4.56-8.55,12.2-14.85,21.5-17.68c3.45-1.04,7.02-1.6,10.61-1.6c16.1,0,30.08,10.39,34.78,25.77c2.83,9.3,1.88,19.13-2.69,27.72
				c-4.57,8.56-12.21,14.88-21.49,17.7C717.37,608.75,713.78,609.3,710.2,609.3z M710.23,541.6c-3.09,0-6.16,0.47-9.14,1.39
				c-8.02,2.43-14.59,7.83-18.51,15.22c-3.95,7.4-4.79,15.86-2.33,23.86c4.05,13.31,16.07,22.19,29.96,22.19l0,0
				c3.1,0,6.17-0.45,9.15-1.34c8-2.43,14.57-7.85,18.53-15.23c3.93-7.43,4.75-15.85,2.3-23.87
				C736.15,550.49,724.09,541.6,710.23,541.6z"/>
		</g>
	</g>
</g>
</svg>
