<?xml version="1.0" encoding="utf-8"?>
<!-- Generator: Adobe Illustrator 24.0.2, SVG Export Plug-In . SVG Version: 6.00 Build 0)  -->
<svg version="1.1" id="Layer_1" xmlns="http://www.w3.org/2000/svg" xmlns:xlink="http://www.w3.org/1999/xlink" x="0px" y="0px"
	 viewBox="0 0 1200 1200" style="enable-background:new 0 0 1200 1200;" xml:space="preserve">
<style type="text/css">
	.st0{fill:#FFFFFF;}
	.st1{fill:none;stroke:#95CC41;stroke-width:16.647;stroke-linecap:round;stroke-linejoin:round;stroke-miterlimit:10;}
	.st2{fill:none;stroke:#95CC41;stroke-width:19.3614;stroke-linecap:round;stroke-linejoin:round;stroke-miterlimit:10;}
	.st3{fill:none;stroke:#95CC41;stroke-width:17.4877;stroke-linecap:round;stroke-linejoin:round;stroke-miterlimit:10;}
	.st4{fill:none;stroke:#95CC41;stroke-width:16.2386;stroke-linecap:round;stroke-linejoin:round;stroke-miterlimit:10;}
	.st5{fill:none;stroke:#95CC41;stroke-width:16.8632;stroke-linecap:round;stroke-linejoin:round;stroke-miterlimit:10;}
	.st6{fill:none;stroke:#95CC41;stroke-width:14.3649;stroke-linecap:round;stroke-linejoin:round;stroke-miterlimit:10;}
	.st7{fill:none;stroke:#95CC41;stroke-width:14.3649;stroke-miterlimit:10;}
	.st8{fill:#95CC41;}
	.st9{fill:#95CC41;stroke:#95CC41;stroke-width:1.374;stroke-miterlimit:10;}
</style>
<rect x="-20.32" y="-13.48" class="st0" width="1228.14" height="1228.14"/>
<g>
	<path class="st1" d="M564.62,352.93c0,0,50.17,48.82,78.56-13.45"/>
	<path class="st1" d="M705.63,386.9c0,0-41.06,24.66-75.47-26.12"/>
	<path class="st1" d="M674.26,443.28c0,0,16.35-17.41,10.55-49.88"/>
	<path class="st1" d="M618.29,419.61c0,0-24.68,62.32,56.02,69.58c98.2,8.84,123.09-57.23,95.22-78.83"/>
	<path class="st1" d="M738.19,419.35c0,0,44.45-4.32,37.38-53.52c-7.43-51.68-70.05-46.18-70.05-46.18"/>
	<path class="st1" d="M696.92,352.93c0,0,22.91-68.7-48.7-79.85c0,0-38.22-7.68-59.65,18.19"/>
	<path class="st1" d="M598.79,309.69c0,0-24.6-48.49-78.72-25.51c-49.48,21.01-22.06,66.18-22.06,66.18"/>
	<path class="st1" d="M555.13,459.43c0,0-137.36,53.69-140-61.22c-1.86-80.86,73.36-85.74,73.36-85.74"/>
	<path class="st1" d="M535.15,425.87c0,0,4.02,55.82,83.14,42.83"/>
	<path class="st1" d="M564.62,405c0,0-33.31,34.94-66.61-3.25"/>
	<path class="st1" d="M466.13,424.33c0,0-29.36-28.25,1.98-50.55"/>
</g>
<path class="st2" d="M846.18,655.42c32.44-49.34,48.76-107.32,47.36-170.66c-3.57-163.37-138.91-292.96-302.3-289.37
	c-163.41,3.59-292.96,138.96-289.4,302.34c1.27,57.72,21.07,109.22,52.86,154.39"/>
<line class="st3" x1="605.83" y1="136.66" x2="605.83" y2="58.36"/>
<line class="st4" x1="947.7" y1="513.12" x2="1029.15" y2="512.27"/>
<line class="st4" x1="250.66" y1="513.12" x2="169.22" y2="512.27"/>
<line class="st5" x1="830.34" y1="135.63" x2="791.94" y2="198.05"/>
<line class="st3" x1="974.5" y1="297.05" x2="910.98" y2="341.48"/>
<line class="st3" x1="218.9" y1="297.05" x2="282.42" y2="341.48"/>
<line class="st5" x1="371.49" y1="135.63" x2="409.89" y2="198.05"/>
<line class="st3" x1="246.08" y1="721.59" x2="308.9" y2="683.85"/>
<line class="st3" x1="952.99" y1="721.59" x2="890.17" y2="683.85"/>
<g>
	<path class="st6" d="M513.43,1075.4c0,0,4.07-63.99,100.07-42.17c86.82,19.73,112.64,11.16,112.64,11.16
		s-38.06,121.51-160.75,84.07c0,0-21.89-4.75-38.34-19.27C513.57,1097.32,513.43,1075.4,513.43,1075.4z"/>
	<path class="st6" d="M489.75,1091.25c0,0,41.51-19.92,137.3-12.64c57.62,4.4,99.09-34.22,99.09-34.22"/>
	<line class="st7" x1="553.03" y1="1078.29" x2="613.49" y2="1033.23"/>
	<line class="st6" x1="553.03" y1="1078.29" x2="624.84" y2="1133"/>
	<line class="st6" x1="622.52" y1="1078.19" x2="670.26" y2="1114.3"/>
	<line class="st6" x1="622.52" y1="1078.19" x2="662.92" y2="1042.62"/>
</g>
<g>
	<g>
		<g>
			<path class="st8" d="M466.77,769.96c-4.68-0.06-7.51-4.41-7.54-8.58c-0.03-3.67,2.17-7.43,7.13-7.56h1.62
				c0.05-7.52,0.14-15.72,0.23-24.42c0.4-38.58,0.9-86.53-0.99-128.74l-0.16,0c-0.09,0.01-0.19,0.02-0.29,0.02
				c-0.12,0-0.26,0-0.39-0.02h-0.13c-0.13,0.01-0.3,0.01-0.47,0.01c-2.44,0-4.44-1.12-5.61-3.14c-1.34-2.31-1.32-5.45,0.05-7.82
				c1.32-2.29,3.65-3.55,6.55-3.55c0.27,0,0.55,0.01,0.84,0.03c4.48,0.35,6.3,0.46,7.78,0.46h0c1.2,0,2.11-0.07,3.63-0.2
				c1.17-0.1,2.67-0.22,4.89-0.35c0.19-0.01,0.38-0.02,0.56-0.02c4.66,0,6.81,3.45,6.87,6.86c0.06,3.49-2.17,7.27-6.43,7.42
				c-0.31,0-0.56,0.04-0.75,0.11c1.01,64.37,0.28,142.9,0.01,153.93c0.47,0.02,1.05,0.05,1.76,0.09c4.33,0.25,6.25,3.86,6.22,7.31
				c-0.03,3.94-2.58,8.04-7.38,8.25l-0.02,0L466.77,769.96z"/>
		</g>
		<g>
			<path class="st8" d="M484.47,586.77c8.43,0,7.91,12.65,0.41,12.91c-0.68,0-1.13,0.18-1.42,0.42c0-0.09,0-0.19,0-0.28
				c0,0,0-0.01,0-0.01c0,0,0,0.01,0,0.01c0,0.1,0,0.2,0,0.28c-0.62,0.51-0.5,1.31-0.3,1.31c0.13,0,0.29-0.34,0.3-1.31c0,0,0,0,0,0
				c1.05,66.42,0.25,146.82,0,154.93c0,0.02-0.01,0.03-0.03,0.04c-0.23-0.01-0.41-0.01-0.55-0.01c-0.79,0-0.35,0.08,0.07,0.08
				c0.2,0,0.41-0.02,0.48-0.07c0.53,0.01,1.32,0.05,2.46,0.11c7.94,0.46,7.24,13.83-1.15,14.19l-17.96-0.1
				c-8.2-0.1-9.89-14.52-0.39-14.77h2.28c0.27-40.93,1.59-102.43-0.79-154.7c-1.12,0.09-1.43,0.14-1.42,0.16c-0.06,0-0.13,0-0.21,0
				c-0.16,0.01-0.32,0.01-0.47,0.01c-8.01,0-8.07-13.14,0.99-13.14c0.25,0,0.52,0.01,0.78,0.03c4.23,0.33,6.25,0.47,7.84,0.47
				c2.17,0,3.51-0.25,8.56-0.55C484.13,586.78,484.3,586.77,484.47,586.77 M466.46,599.96c0.83,0,0.59,0.02,0.31,0.02
				C466.62,599.99,466.47,599.98,466.46,599.96 M484.47,585.4c-0.19,0-0.39,0.01-0.6,0.02c-2.22,0.13-3.71,0.25-4.9,0.35
				c-1.5,0.12-2.41,0.2-3.57,0.2c-1.46,0-3.26-0.11-7.73-0.46c-0.3-0.02-0.6-0.04-0.89-0.04c-3.22,0-5.16,1.42-6.22,2.62
				c-1.32,1.49-2.05,3.48-2.05,5.59c0,3.81,2.5,7.67,7.29,7.67c0.17,0,0.34,0,0.51-0.01l0.05,0c0.08,0.01,0.15,0.02,0.22,0.02
				c1.85,42.03,1.36,89.67,0.96,128.03c-0.09,8.42-0.17,16.4-0.22,23.74h-0.92c-5.47,0.15-7.87,4.25-7.84,8.26
				c0.04,5.74,4.21,9.22,8.21,9.26l17.96,0.1l0.03,0l0.03,0c5.23-0.22,8-4.66,8.03-8.93c0.04-4.47-2.79-7.77-6.86-8
				c-0.4-0.02-0.76-0.04-1.1-0.06c0.28-13.22,0.97-89.64-0.01-152.7c0.01,0,0.02,0,0.03,0c4.74-0.17,7.21-4.31,7.14-8.12
				C491.95,589.31,489.56,585.4,484.47,585.4L484.47,585.4z"/>
		</g>
	</g>
	<g>
		<g>
			<path class="st8" d="M716.14,769.98c-6,0-11.28-2.45-15.68-7.27c-12.15-13.3-15.57-42.81-13.6-64.6c0.69-5.9,4.62-8.54,8.21-8.54
				c2.11,0,4.1,0.85,5.59,2.39c1.23,1.28,2.68,3.61,2.55,7.48c-0.12,3.73-0.39,16.85,1.39,28.98c1.83,12.52,5.29,20.04,9.99,21.75
				c0.84,0.34,1.61,0.51,2.3,0.51c1.3,0,2.38-0.59,3.3-1.8c2.34-3.09,3.36-10.04,2.89-19.59c-0.41-8.36-1.95-17.91-4.1-25.55
				c-3.79-13.43-10.02-27.19-16.04-40.49c-4.91-10.84-9.54-21.08-12.73-30.75c-6.51-19.75-6.64-35.4-0.38-44.06
				c3.18-4.4,7.78-6.72,13.29-6.72c6.31,0,13.07,3.05,19.05,8.59c0.09,0.07,14.5,11.23,16.7,37.25c0.43,5.15-0.61,9.38-2.93,11.91
				c-1.23,1.33-2.75,2.07-4.3,2.07c-2.57,0-4.8-1.96-5.96-5.23c-1.01-2.84-1.85-5.62-2.66-8.3c-2.28-7.54-4.25-14.05-9-19.18
				c-1.92-2.06-3.85-3.15-5.57-3.15c-1.21,0-2.32,0.56-3.21,1.61c-1.79,2.11-2.48,5.88-1.82,9.84c3.43,20.3,10.88,35.35,18.09,49.91
				c7.77,15.7,15.12,30.53,16.77,50.45c1.88,17.9,0.1,49.06-18.53,52.21C718.52,769.88,717.31,769.98,716.14,769.98z"/>
		</g>
		<g>
			<path class="st8" d="M703.12,582.4c5.97,0,12.65,2.91,18.59,8.41c0,0,14.28,10.78,16.48,36.8c0.73,8.67-2.95,13.24-6.54,13.24
				c-2.1,0-4.17-1.56-5.31-4.77c-3.82-10.75-5.21-20.59-11.81-27.71c-2.2-2.36-4.28-3.37-6.07-3.37c-4.21,0-6.82,5.58-5.71,12.25
				c7.14,42.23,31.68,62.03,34.85,100.31c2.11,20.07-0.79,48.58-17.96,51.48c-1.2,0.18-2.37,0.27-3.5,0.27
				c-24.81,0-31.13-43.09-28.6-71.12c0.62-5.36,4.09-7.91,7.53-7.91c3.84,0,7.65,3.17,7.45,9.16c-0.44,13.3,0.22,47.17,11.83,51.39
				c0.92,0.38,1.76,0.55,2.53,0.55c10.06,0,7.66-30.39,2.75-47.81c-6.85-24.29-21.64-49.62-28.78-71.28
				C679.47,597.72,689.43,582.4,703.12,582.4 M703.13,581.02v1.37V581.02L703.13,581.02c-5.67,0-10.59,2.49-13.85,7.01
				c-6.4,8.85-6.3,24.71,0.28,44.68c3.2,9.71,7.84,19.96,12.76,30.82c6.01,13.28,12.23,27.02,16,40.4
				c4.49,15.93,6.01,38.36,1.32,44.54c-0.79,1.04-1.66,1.52-2.75,1.52c-0.6,0-1.28-0.15-2.01-0.45l-0.02-0.01l-0.03-0.01
				c-9.81-3.57-11.49-33.14-10.93-50.06c0.14-4.11-1.42-6.61-2.74-7.98c-1.62-1.68-3.78-2.6-6.08-2.6c-3.9,0-8.16,2.82-8.89,9.13
				c-1.04,11.46-0.52,24.33,1.42,35.33c2.33,13.23,6.6,23.55,12.35,29.83c4.54,4.97,9.99,7.49,16.19,7.49c1.2,0,2.45-0.1,3.7-0.29
				c19.15-3.24,21.03-34.83,19.12-52.98c-1.66-20.02-9.03-34.91-16.83-50.67c-7.19-14.51-14.62-29.52-18.03-49.72
				c-0.63-3.77,0.01-7.33,1.67-9.28c0.77-0.9,1.67-1.36,2.69-1.36c1.52,0,3.28,1.01,5.07,2.93c4.64,5.01,6.59,11.45,8.85,18.91
				c0.81,2.69,1.65,5.47,2.67,8.33c1.27,3.56,3.74,5.69,6.61,5.69c1.74,0,3.45-0.81,4.8-2.29c2.46-2.67,3.56-7.09,3.11-12.44
				c-2.17-25.75-15.81-36.84-16.96-37.74C716.5,584.12,709.59,581.02,703.13,581.02L703.13,581.02z"/>
		</g>
	</g>
	<g>
		<g>
			<path class="st8" d="M770.38,772.51c-2.18,0-4.2-0.86-5.69-2.41c-1.21-1.26-2.62-3.57-2.46-7.44
				c0.69-17.11,1.74-25.32,2.95-34.81c0.75-5.87,1.59-12.52,2.47-22.19c0.58-6.35,1.5-12.73,2.39-18.89
				c0.66-4.52,1.33-9.2,1.86-13.81c0.28-2.42,0.55-4.85,0.83-7.27c2.73-24.13,5.54-49.08,13.55-72.7c1.23-3.68,5.77-6.9,9.7-6.9
				c1.85,0,5.13,0.73,6.4,5.64c8.47,36.98,11.46,61.56,13.97,85.45c5.84,2.07,6.5,5.88,6.37,7.99c-0.24,3.78-3.1,7.18-5.74,8.08
				l0.35,3.37c2.68,25.83,4.79,46.23,8.56,63.28c0.89,3.93-0.23,6.39-1.33,7.76c-1.43,1.79-3.7,2.83-6.21,2.83
				c-3.59,0-7.81-2.28-9.11-7.37c-3.92-16.06-5.11-36.95-6.06-53.73c-0.33-5.76-0.64-11.22-1.03-15.96c-1.52,0-3.25-0.03-5.05-0.05
				c-2.29-0.03-4.72-0.07-7.03-0.07c-2.18,0-3.97,0.03-5.44,0.09c-2.89,19.03-3.97,37.06-5.11,56.14c-0.28,4.7-0.56,9.45-0.88,14.25
				C778.35,769.78,774.15,772.51,770.38,772.51z M800.68,676.99c-0.48-4.74-1.05-9.49-1.66-14.52c-0.69-5.71-1.4-11.61-1.96-17.46
				c-0.37-3.03-0.73-6.52-1.12-10.2c-0.59-5.69-1.21-11.54-1.88-16.3c-1.4,9.87-2.65,23.16-3.03,27.29l-0.08,0.8
				c-0.99,10-2.02,20.33-3.5,30.39H800.68z"/>
		</g>
		<g>
			<path class="st8" d="M795.98,586.77c2.5,0,4.78,1.41,5.73,5.12c8.71,38.01,11.61,63.09,13.99,85.79
				c11.17,3.65,5.07,14.19,0.52,15.05c2.9,27.98,5.01,49.37,8.98,67.31c1.45,6.4-2.54,9.75-6.87,9.75c-3.52,0-7.26-2.23-8.44-6.85
				c-5.28-21.64-5.55-51.48-7.12-70.21c-3.52,0-8.33-0.12-12.71-0.12c-2.19,0-4.27,0.03-6.04,0.12
				c-3.69,24.02-4.49,46.72-6.07,71.01c-0.25,5.38-3.92,8.09-7.57,8.09c-3.87,0-7.72-3.04-7.47-9.14
				c1.12-27.69,3.12-31.68,5.42-56.97c1-11,3-21.79,4.26-32.69c3.1-26.91,5.57-53.95,14.34-79.83
				C788.03,589.89,792.26,586.77,795.98,586.77 M786.66,677.68h14.78c-1.05-10.55-2.63-21.64-3.69-32.73
				c-1.05-8.71-2.11-21.38-3.43-29.3h-0.52c-1.32,8.44-2.65,21.38-3.44,30.09C789.3,656.29,788.24,667.13,786.66,677.68
				 M795.98,585.39L795.98,585.39c-4.2,0-9.04,3.45-10.36,7.38c-8.03,23.68-10.85,48.68-13.58,72.85c-0.27,2.42-0.55,4.84-0.82,7.26
				c-0.53,4.6-1.21,9.28-1.86,13.79c-0.89,6.17-1.82,12.56-2.4,18.93c-0.88,9.66-1.72,16.3-2.47,22.16
				c-1.21,9.51-2.26,17.73-2.95,34.87c-0.16,4.11,1.35,6.59,2.66,7.95c1.62,1.69,3.82,2.62,6.19,2.62c4.09,0,8.64-2.94,8.94-9.4
				c0.31-4.79,0.6-9.59,0.88-14.24c1.12-18.87,2.19-36.72,5.01-55.51c1.35-0.05,2.95-0.07,4.85-0.07c2.3,0,4.7,0.03,7.02,0.06
				c1.57,0.02,3.07,0.04,4.43,0.05c0.36,4.58,0.66,9.81,0.97,15.31c0.96,16.82,2.15,37.74,6.08,53.85c1.4,5.46,5.92,7.9,9.78,7.9
				c2.72,0,5.18-1.12,6.74-3.08c1.19-1.49,2.41-4.15,1.46-8.35c-3.76-17-5.87-37.38-8.54-63.17l-0.3-2.87
				c2.9-1.28,5.46-4.97,5.68-8.49c0.14-2.26-0.53-6.28-6.41-8.53c-2.5-23.79-5.5-48.32-13.93-85.09
				C802.03,587.64,799.46,585.39,795.98,585.39L795.98,585.39z M788.25,676.3c1.43-9.83,2.43-19.91,3.4-29.67l0.08-0.76
				c0.31-3.44,1.23-13.21,2.33-22.07c0.42,3.52,0.82,7.34,1.21,11.08c0.39,3.69,0.75,7.17,1.12,10.22
				c0.56,5.82,1.27,11.72,1.96,17.43c0.57,4.75,1.12,9.27,1.58,13.76H788.25L788.25,676.3z"/>
		</g>
	</g>
	<g>
		<g>
			<path class="st8" d="M462.25,984.15c-4.24,0-8.17-3.51-9.55-8.54c-11.15-34.76-16.31-70.38-21.31-104.82
				c-2.59-17.86-5.04-34.74-8.24-51.08c-0.38-2.37,0.16-4.48,1.56-6.13c1.58-1.86,4.15-2.97,6.87-2.97c3.04,0,6.68,1.46,7.8,5.56
				c4.53,24.51,7,43.48,9.38,61.83c1.16,8.9,2.25,17.3,3.54,26.1c1.91,15.3,3.87,29.32,5.83,41.76c0-15.62,0.04-30.26,0.49-41.94
				c0.77-28.12,1.83-58.04,5.47-87.41c0.65-5.32,4.52-7.21,7.64-7.21c2.38,0,4.67,1.02,6.11,2.72c1.36,1.61,1.88,3.66,1.51,5.93
				c-4.71,34.29-5.94,72.18-7.02,105.6c-0.58,18.06-1.14,35.13-2.16,50.68C469.62,981.54,465.72,984.15,462.25,984.15z"/>
		</g>
		<g>
			<path class="st8" d="M471.73,809.98c3.88,0,7.76,2.96,6.94,7.85c-7.2,52.37-6.21,111.18-9.19,156.35
				c-0.49,6.47-3.74,9.27-7.24,9.27c-3.62,0-7.5-2.99-8.89-8.04c-16.87-52.61-20.1-107.7-29.53-155.85
				c-0.86-5.3,3.49-8.28,7.76-8.28c3.12,0,6.19,1.6,7.14,5.06c6.7,36.23,8.93,60.8,12.91,87.85c1.49,11.91,3.72,28.79,6.45,45.66
				h0.74c0-16.87,0-33.25,0.49-45.92c0.74-27.04,1.75-57.32,5.46-87.35C465.34,812,468.53,809.98,471.73,809.98 M471.73,808.61
				c-3.4,0-7.61,2.05-8.32,7.82c-3.64,29.39-4.7,59.34-5.47,87.48c-0.36,9.41-0.46,20.75-0.48,32.98c-1.5-10.1-3-21.1-4.47-32.85
				c-1.3-8.83-2.39-17.23-3.55-26.13c-2.38-18.36-4.85-37.33-9.37-61.81l-0.01-0.06l-0.02-0.06c-1.01-3.69-4.33-6.07-8.46-6.07
				c-2.92,0-5.68,1.2-7.39,3.21c-1.54,1.81-2.13,4.12-1.72,6.67c3.2,16.37,5.65,33.23,8.24,51.09c5,34.46,10.16,70.1,21.33,104.93
				c1.47,5.31,5.67,9.02,10.21,9.02c3.78,0,8.02-2.77,8.61-10.54c1.03-15.58,1.58-32.65,2.16-50.72
				c1.08-33.41,2.3-71.27,7.01-105.55c0.52-3.09-0.62-5.22-1.67-6.45C476.79,809.72,474.31,808.61,471.73,808.61L471.73,808.61z"/>
		</g>
	</g>
	<g>
		<g>
			<g>
				<path class="st8" d="M668.68,984.72c-2.21,0-6.27-0.36-8.58-2.75c-1.16-1.2-1.72-2.75-1.66-4.59
					c0.93-26.89,2.63-95.38-1.74-150.56c-0.54-6.74-0.53-14.56,4.33-15.12c1.97-0.28,3.94-0.42,5.82-0.42
					c41.72,0,43.83,66.85,43.83,80.25c0.21,24.38-2.95,82.19-36.72,92.48C672.58,984.45,670.6,984.72,668.68,984.72L668.68,984.72z
					 M672.83,828.27c3.79,49,3.38,89.57,1.44,138.72c19.09-12.22,19.53-65.05,19.42-75.68
					C693.34,857.26,686.51,836.61,672.83,828.27z"/>
			</g>
			<g>
				<path class="st8" d="M666.85,811.97c35.96,0,43.15,51.24,43.15,79.57c0.26,29.78-4.46,82.14-36.23,91.82
					c-1.22,0.38-3.09,0.67-5.09,0.67c-4.53,0-9.72-1.47-9.54-6.62c1.49-42.93,2.01-103.17-1.74-150.64
					c-0.51-6.48-0.49-13.89,3.72-14.38C663.1,812.11,665.01,811.97,666.85,811.97 M673.53,968.22
					c17.86-9.67,21.09-53.36,20.85-76.92c-0.26-24.82-3.73-54.1-22.33-64.27C676,877.4,675.5,918.6,673.53,968.22 M666.85,810.6
					c-1.92,0-3.91,0.14-5.93,0.42c-6.1,0.71-5.26,11.32-4.9,15.85c4.37,55.15,2.67,123.61,1.74,150.48
					c-0.07,2.04,0.55,3.75,1.85,5.09c2.48,2.57,6.75,2.95,9.07,2.95c1.99,0,4.04-0.27,5.5-0.73c14.43-4.39,24.87-17.62,31.03-39.31
					c5.31-18.7,6.28-39.6,6.16-53.83c0-8.9-0.8-31.7-8.18-50.89C695.52,820.71,683.3,810.6,666.85,810.6L666.85,810.6z M675,965.62
					c1.87-48.08,2.26-88.07-1.39-136.02c12.7,8.66,19.05,28.9,19.38,61.71c0.07,7.24-0.13,25.95-3.61,43.39
					C686.31,950.15,681.36,960.75,675,965.62L675,965.62z"/>
			</g>
		</g>
	</g>
	<g>
		<g>
			<path class="st8" d="M404.21,770.06c-3.25,0-7.43-2.11-8.54-8.04c-2.13-11.43-2.9-23.32-3.42-34.46
				c-0.79-16.27-1.98-33.26-3.52-50.49c-1.79-19.92-3.77-46.1-3.13-71.96c0.06-10.91,4.45-17.96,11.18-17.96
				c0.66,0,1.33,0.07,2.01,0.21c16.11,5.67,27.14,15.15,32.86,28.22c7.15,16.31,5.61,37.99-4.31,61.06
				c-4.1,9.4-11.1,18.86-19.73,26.68c0.16,2.93,0.32,5.94,0.47,8.98c0.87,16.83,1.77,34.24,3.98,46.84c0.65,4.19-0.67,6.77-1.9,8.21
				C408.69,769.07,406.52,770.06,404.21,770.06C404.21,770.06,404.21,770.06,404.21,770.06z M401.74,607.17
				c-0.73,16.62,0.72,42.1,4.33,75.74c5.79-8.56,9.58-18.58,10.98-29.08C420.96,635.68,417.68,614.45,401.74,607.17z"/>
			<path class="st8" d="M396.79,587.84c0.61,0,1.24,0.06,1.87,0.19c41.57,14.64,43.08,53.4,28.06,88.33
				c-4.49,10.29-11.88,19.54-19.8,26.67c1.05,19,1.84,41.18,4.48,56.22c1.02,6.54-3.01,10.12-7.18,10.12
				c-3.41,0-6.91-2.38-7.86-7.48c-2.11-11.32-2.88-22.87-3.41-34.36c-0.82-16.82-2.01-33.69-3.53-50.51
				c-2.15-23.85-3.72-47.93-3.12-71.88C386.36,593.87,390.85,587.84,396.79,587.84 M405.59,684.81
				c6.08-8.45,10.56-19.01,12.15-30.89c3.69-17.16,1.32-40.39-16.64-47.78C399.78,632.27,404.54,675.04,405.59,684.81
				 M396.79,586.47c-7.14,0-11.8,7.32-11.87,18.66c-0.65,25.87,1.33,52.08,3.13,72.02c1.55,17.21,2.73,34.18,3.52,50.46
				c0.52,11.16,1.3,23.08,3.44,34.55c1.18,6.35,5.7,8.6,9.21,8.6c2.51,0,4.87-1.08,6.48-2.96c1.87-2.18,2.6-5.29,2.06-8.75
				c-2.2-12.58-3.1-29.97-3.97-46.78c-0.15-2.93-0.3-5.82-0.46-8.65c8.59-7.84,15.55-17.3,19.65-26.69
				c10-23.25,11.53-45.13,4.31-61.61c-5.8-13.25-16.96-22.86-33.17-28.56l-0.09-0.03l-0.09-0.02
				C398.21,586.54,397.49,586.47,396.79,586.47L396.79,586.47z M406.55,680.93c-3.38-31.98-4.79-56.4-4.17-72.69
				c14.79,7.52,17.77,27.93,14.01,45.39l-0.01,0.05l-0.01,0.05C415.07,663.49,411.7,672.82,406.55,680.93L406.55,680.93z"/>
		</g>
	</g>
	<g>
		<g>
			<path class="st8" d="M540.44,769.71c-2.86,0-5.65-2.5-6.47-5.8c-2.67-10.15-2.93-24.12-3.18-37.64c0-9.76-0.29-19.62-0.55-28.31
				c-0.09-3.05-0.18-5.95-0.24-8.64c-0.06-8.5-0.16-16.61-0.32-24.81l-0.02-1.47c-0.51-38.75-0.6-57.44-0.59-66.29
				c0.01-9.81,12.13-10.11,19.38-10.28c1.22-0.03,2.37-0.06,3.3-0.12c2.12-0.15,4.63-0.23,7.07-0.23c1.98,0,5.58,0.06,7.57,0.43
				c5.7,0.06,8.29,4.02,8.28,7.69c-0.01,4.16-3.16,8.38-9.15,8.38c-5.7,0-13.43,0-20.13-0.23c0.28,6.83,0.31,14.51,0.33,22.63
				c0.04,12.94,0.09,26.32,1.17,38.06c2.3,0.23,4.7,0.34,7.17,0.34c2.32,0,4.74-0.1,7.2-0.3c0.51-0.04,1-0.06,1.47-0.06
				c6.41,0,9.39,3.61,9.99,6.7c0.67,3.43-1.18,6.78-4.52,8.14c-4.44,1.81-8.53,2.05-11.95,2.05c-1.53,0-3.03-0.05-4.61-0.11
				c-1.36-0.05-2.75-0.1-4.17-0.11c0.03,4.09,0.28,8.42,0.52,12.2c0.28,10.65,0.53,21.04,0.53,31.45c0,2.21-0.03,4.43-0.05,6.67
				c-0.09,7.69-0.18,15.64,0.76,23.99c6.9-0.66,14.48-1.26,23.16-1.26c3.68,0,6.49,1.35,7.9,3.8c1.26,2.18,1.19,4.91-0.19,7.29
				c-1.86,3.23-5.59,5.08-10.21,5.08c0,0,0,0,0,0c-0.23,0-0.46,0-0.7-0.01c-1.18-0.08-2.52-0.12-4.14-0.12
				c-4.04,0-8.88,0.25-13.57,0.5C547.31,769.5,543.37,769.71,540.44,769.71z"/>
			<path class="st8" d="M558.82,586.79c3.08,0,5.97,0.13,7.5,0.43c10.67,0.05,9.99,14.69-0.8,14.69c-6.06,0-13.99,0-20.85-0.26
				c0.79,17.94-0.27,42.5,1.59,62.03c2.59,0.28,5.2,0.4,7.8,0.4c2.44,0,4.86-0.11,7.25-0.31c0.49-0.04,0.96-0.06,1.41-0.06
				c10.8,0,12.04,10.73,5.22,13.52c-4.02,1.64-7.83,2-11.69,2c-3.08,0-6.19-0.23-9.47-0.23c0,4.22,0.26,8.71,0.52,12.93
				c0.27,10.3,0.52,20.86,0.52,31.41c0,10.04-0.52,20.34,0.79,31.41c8.19-0.79,15.58-1.32,23.76-1.32c11.93,0,10.35,14.8-2.5,14.8
				c-0.22,0-0.44,0-0.67-0.01c-1.23-0.09-2.64-0.12-4.17-0.12c-7.69,0-18.44,0.92-24.61,0.92c-2.37,0-5.01-2.11-5.81-5.28
				c-2.64-10.03-2.9-23.75-3.16-37.49c0-13.2-0.54-26.65-0.79-36.95c-0.06-8.86-0.17-17.07-0.32-24.81
				c-0.07-5.7-0.63-47.06-0.61-67.75c0.01-10.67,15.42-9.26,22.04-9.72C553.89,586.88,556.41,586.79,558.82,586.79 M558.82,585.42
				C558.82,585.42,558.82,585.42,558.82,585.42c-2.46,0-4.99,0.08-7.12,0.23c-0.92,0.06-2.06,0.09-3.27,0.12
				c-7.49,0.18-20.04,0.49-20.05,10.97c-0.01,8.83,0.08,27.5,0.59,66.24l0.02,1.53c0.15,8.2,0.26,16.31,0.32,24.8
				c0.07,2.72,0.15,5.62,0.24,8.69c0.26,8.68,0.55,18.52,0.55,28.25c0.25,13.58,0.51,27.6,3.21,37.84c0.9,3.59,3.97,6.31,7.13,6.31
				c2.95,0,6.9-0.2,11.08-0.42c4.68-0.24,9.51-0.49,13.53-0.49c1.6,0,2.93,0.04,4.07,0.12c0.29,0.01,0.53,0.02,0.77,0.02
				c7.78,0,11.98-4.99,11.98-9.68c0-2.15-0.87-4.12-2.46-5.53c-1.7-1.52-4.13-2.33-7.02-2.33c-8.42,0-15.81,0.56-22.55,1.19
				c-0.86-8.07-0.77-15.77-0.68-23.23c0.03-2.2,0.05-4.47,0.05-6.68c0-10.43-0.25-20.83-0.52-31.45l0-0.03l0-0.03
				c-0.23-3.54-0.46-7.58-0.51-11.46c1.17,0.02,2.32,0.06,3.45,0.1c1.52,0.06,3.1,0.11,4.64,0.11c3.49,0,7.67-0.25,12.21-2.1
				c3.64-1.49,5.67-5.15,4.93-8.91c-1.05-5.35-6.4-7.25-10.67-7.25c-0.49,0-1.01,0.02-1.53,0.06c-2.44,0.2-4.84,0.3-7.14,0.3
				c-2.24,0-4.43-0.1-6.53-0.28c-1.02-11.57-1.07-24.71-1.11-37.43c-0.03-7.83-0.05-15.26-0.31-21.92
				c6.54,0.21,13.92,0.21,19.41,0.21c4.88,0,9.82-3.11,9.84-9.06c0.01-3.99-2.77-8.29-8.9-8.37
				C564.4,585.48,560.81,585.42,558.82,585.42L558.82,585.42L558.82,585.42z"/>
		</g>
	</g>
	<g>
		<g>
			<path class="st8" d="M514.4,984.01c-2.69,0-5.31-2.38-6.11-5.53c-2.47-9.52-2.73-22.72-2.98-35.49l0-0.19
				c0-9.04-0.27-18.2-0.5-26.28c-0.09-3.09-0.18-6.03-0.24-8.73c-0.06-8.39-0.16-16.08-0.29-23.51c-0.1-7.37-0.6-45.08-0.57-64.23
				c0.01-9.33,11.41-9.61,18.21-9.78c1.14-0.03,2.21-0.05,3.09-0.12c1.99-0.14,4.36-0.22,6.66-0.22c1.85,0,5.2,0.05,7.09,0.41
				c5.37,0.06,7.8,3.83,7.79,7.33c-0.01,3.96-2.97,7.98-8.62,7.98c-5.33,0-12.55,0-18.83-0.23c0.26,6.46,0.29,13.71,0.31,21.38
				c0.04,12.26,0.08,24.94,1.09,36.06c2.14,0.21,4.39,0.32,6.69,0.32c2.16,0,4.43-0.1,6.73-0.28c0.48-0.04,0.94-0.06,1.38-0.06
				c6.01,0,8.82,3.42,9.4,6.35c0.65,3.28-1.1,6.47-4.25,7.77c-4.16,1.72-8,1.95-11.19,1.95c-1.44,0-2.85-0.05-4.34-0.11
				c-1.26-0.05-2.56-0.1-3.88-0.11c0.03,3.87,0.26,7.98,0.48,11.52l0.02,0.62c0.24,9.54,0.48,19.39,0.48,29.19
				c0,2.12-0.02,4.24-0.05,6.39c-0.08,7.26-0.17,14.75,0.7,22.63c8.48-0.83,15-1.19,21.68-1.19c3.46,0,6.1,1.28,7.44,3.6
				c1.21,2.09,1.14,4.71-0.18,6.99c-1.76,3.05-5.26,4.8-9.6,4.8c0,0,0,0,0,0c-0.22,0-0.44,0-0.66-0.01
				c-1.09-0.08-2.34-0.11-3.83-0.11c-3.78,0-8.33,0.24-12.73,0.47C520.87,983.81,517.16,984.01,514.4,984.01z"/>
			<path class="st8" d="M531.65,810.63c2.88,0,5.57,0.13,7.02,0.41c10,0.05,9.36,13.93-0.76,13.93c-5.69,0-13.12,0-19.54-0.26
				c0.74,17-0.26,40.28,1.49,58.78c2.43,0.26,4.89,0.38,7.33,0.38c2.28,0,4.55-0.1,6.78-0.29c0.46-0.04,0.9-0.06,1.33-0.06
				c10.12,0,11.29,10.17,4.89,12.8c-3.76,1.55-7.33,1.9-10.94,1.9c-2.9,0-5.83-0.22-8.91-0.22c0,4,0.23,8.26,0.49,12.26
				c0.24,9.75,0.5,19.77,0.5,29.77c0,9.51-0.5,19.27,0.73,29.77c7.67-0.77,14.6-1.26,22.29-1.26c11.19,0,9.72,14.02-2.34,14.02
				c-0.21,0-0.42,0-0.63-0.01c-1.14-0.08-2.44-0.11-3.86-0.11c-7.21,0-17.32,0.87-23.12,0.87c-2.21,0-4.68-2.01-5.44-5.02
				c-2.46-9.49-2.71-22.49-2.96-35.52c0-12.49-0.51-25.25-0.74-35.01c-0.06-8.39-0.16-16.18-0.29-23.51
				c-0.07-5.4-0.6-44.61-0.57-64.21c0.01-10.11,14.47-8.77,20.66-9.21C527.01,810.71,529.39,810.63,531.65,810.63 M531.65,809.26
				c-2.31,0-4.69,0.08-6.7,0.22c-0.86,0.06-1.93,0.09-3.06,0.12c-7.06,0.17-18.87,0.47-18.88,10.46
				c-0.02,19.14,0.47,56.86,0.57,64.23c0.14,7.44,0.23,15.13,0.29,23.5c0.06,2.72,0.15,5.66,0.24,8.75
				c0.24,8.08,0.5,17.23,0.5,26.25l0,0.23c0.25,12.8,0.51,26.04,3,35.64c0.87,3.44,3.78,6.04,6.77,6.04c2.78,0,6.5-0.2,10.43-0.4
				c4.39-0.23,8.93-0.47,12.69-0.47c1.48,0,2.71,0.04,3.76,0.11c0.27,0.01,0.5,0.02,0.73,0.02c7.36,0,11.32-4.76,11.32-9.24
				c0-2.06-0.83-3.94-2.33-5.29c-1.62-1.46-3.91-2.23-6.65-2.23c-6.52,0-12.89,0.34-21.07,1.13c-0.79-7.59-0.71-14.85-0.62-21.88
				c0.02-2.1,0.05-4.28,0.05-6.4c0-9.81-0.25-19.68-0.49-29.23l-0.01-0.57l0-0.03l0-0.03c-0.21-3.32-0.43-7.14-0.48-10.78
				c1.07,0.02,2.13,0.06,3.16,0.1c1.43,0.05,2.92,0.11,4.37,0.11c3.27,0,7.18-0.24,11.46-2c3.46-1.42,5.37-4.94,4.66-8.54
				c-1.01-5.1-6.06-6.91-10.08-6.91c-0.47,0-0.95,0.02-1.44,0.06c-2.28,0.19-4.53,0.28-6.67,0.28c-2.08,0-4.11-0.09-6.06-0.26
				c-0.96-10.96-1-23.4-1.04-35.44c-0.02-7.38-0.05-14.38-0.28-20.66c6.11,0.2,12.98,0.2,18.11,0.2c4.61,0,9.29-2.98,9.3-8.66
				c0.01-3.81-2.62-7.93-8.41-8.01C536.86,809.31,533.5,809.26,531.65,809.26L531.65,809.26z"/>
		</g>
	</g>
	<g>
		<g>
			<path class="st8" d="M746.83,984.01c-2.69,0-5.31-2.38-6.11-5.53c-2.47-9.52-2.73-22.72-2.98-35.49l0-0.19
				c0-9.05-0.27-18.23-0.5-26.32c-0.09-3.08-0.18-5.99-0.24-8.68c-0.06-8.24-0.16-15.93-0.29-23.51c-0.1-7.37-0.6-45.11-0.57-64.23
				c0.01-9.33,11.41-9.61,18.22-9.78c1.14-0.03,2.21-0.05,3.09-0.12c1.99-0.14,4.36-0.22,6.66-0.22c1.85,0,5.2,0.05,7.09,0.41
				c5.37,0.06,7.8,3.83,7.79,7.33c-0.01,3.96-2.97,7.98-8.62,7.98c-5.33,0-12.55,0-18.83-0.23c0.26,6.46,0.29,13.72,0.31,21.39
				c0.04,12.26,0.08,24.93,1.09,36.05c2.14,0.21,4.39,0.32,6.69,0.32c2.16,0,4.43-0.1,6.73-0.28c0.48-0.04,0.94-0.06,1.38-0.06
				c6.01,0,8.82,3.42,9.4,6.35c0.65,3.28-1.1,6.47-4.24,7.77c-4.16,1.72-8,1.95-11.19,1.95c-1.44,0-2.85-0.05-4.34-0.11
				c-1.26-0.05-2.56-0.1-3.88-0.11c0.03,3.86,0.26,7.97,0.48,11.52l0.01,0.56c0.24,9.55,0.49,19.43,0.49,29.25
				c0,2.12-0.03,4.25-0.05,6.39c-0.08,7.26-0.17,14.75,0.7,22.63c8.48-0.83,15-1.19,21.68-1.19c3.46,0,6.1,1.28,7.44,3.6
				c1.21,2.09,1.14,4.71-0.18,6.99c-1.76,3.05-5.26,4.8-9.6,4.8c0,0,0,0,0,0c-0.22,0-0.44,0-0.66-0.01
				c-1.09-0.08-2.34-0.11-3.83-0.11c-3.78,0-8.33,0.24-12.73,0.47C753.3,983.81,749.59,984.01,746.83,984.01z"/>
			<path class="st8" d="M764.08,810.63c2.88,0,5.57,0.13,7.02,0.41c10,0.05,9.36,13.93-0.76,13.93c-5.68,0-13.11,0-19.54-0.26
				c0.75,17-0.26,40.28,1.49,58.78c2.44,0.26,4.89,0.38,7.33,0.38c2.28,0,4.55-0.1,6.79-0.29c0.46-0.04,0.9-0.06,1.33-0.06
				c10.12,0,11.28,10.17,4.89,12.8c-3.76,1.55-7.33,1.9-10.94,1.9c-2.9,0-5.83-0.22-8.91-0.22c0,4,0.23,8.26,0.49,12.26
				c0.24,9.75,0.5,19.77,0.5,29.77c0,9.51-0.5,19.27,0.73,29.77c7.67-0.77,14.6-1.26,22.29-1.26c11.19,0,9.72,14.02-2.34,14.02
				c-0.21,0-0.42,0-0.63-0.01c-1.14-0.08-2.44-0.11-3.86-0.11c-7.21,0-17.32,0.87-23.12,0.87c-2.21,0-4.69-2.01-5.44-5.02
				c-2.46-9.49-2.71-22.49-2.96-35.52c0-12.49-0.51-25.25-0.74-35.01c-0.06-8.39-0.16-16.18-0.29-23.51
				c-0.07-5.4-0.6-44.61-0.57-64.21c0.01-10.11,14.47-8.77,20.66-9.21C759.44,810.71,761.82,810.63,764.08,810.63 M764.08,809.26
				c-2.31,0-4.69,0.08-6.7,0.22c-0.86,0.06-1.93,0.09-3.06,0.12c-7.06,0.17-18.87,0.47-18.88,10.46
				c-0.02,19.12,0.47,56.86,0.57,64.23c0.14,7.57,0.23,15.25,0.29,23.5c0.06,2.72,0.15,5.66,0.24,8.75
				c0.24,8.08,0.5,17.24,0.5,26.25l0,0.22c0.25,12.8,0.51,26.04,3,35.64c0.87,3.44,3.78,6.04,6.77,6.04c2.78,0,6.49-0.2,10.43-0.4
				c4.39-0.23,8.93-0.47,12.69-0.47c1.48,0,2.71,0.04,3.76,0.11c0.27,0.01,0.5,0.02,0.73,0.02c7.35,0,11.32-4.76,11.32-9.24
				c0-2.06-0.83-3.94-2.33-5.29c-1.61-1.46-3.91-2.23-6.65-2.23c-6.52,0-12.89,0.34-21.07,1.13c-0.79-7.59-0.71-14.85-0.62-21.88
				c0.02-2.1,0.05-4.28,0.05-6.4c0-9.81-0.25-19.68-0.49-29.23l-0.01-0.57l0-0.03l0-0.03c-0.21-3.32-0.43-7.13-0.48-10.78
				c1.07,0.02,2.13,0.06,3.16,0.1c1.43,0.05,2.92,0.11,4.37,0.11c3.27,0,7.18-0.24,11.46-2c3.46-1.42,5.37-4.94,4.66-8.54
				c-1.01-5.1-6.06-6.91-10.07-6.91c-0.47,0-0.95,0.02-1.44,0.06c-2.29,0.19-4.53,0.28-6.67,0.28c-2.08,0-4.11-0.09-6.06-0.26
				c-0.96-10.95-1-23.38-1.04-35.42c-0.02-7.39-0.05-14.4-0.28-20.68c6.11,0.2,12.98,0.2,18.11,0.2c4.61,0,9.29-2.98,9.31-8.66
				c0.01-3.81-2.62-7.93-8.41-8.01C769.29,809.31,765.93,809.26,764.08,809.26L764.08,809.26z"/>
		</g>
	</g>
	<g>
		<g>
			<path class="st8" d="M629.51,987.42c-2,0-3.93-0.7-5.58-2.04c-12.93-10.51-17.25-31.45-21.07-49.93
				c-2.76-13.37-5.38-26.04-10.79-33.47c0.47,24.21,1,49.22,3.44,74.61c0.22,2.15-0.31,4.02-1.54,5.38
				c-1.35,1.49-3.51,2.35-5.94,2.35c-4.04,0-8.49-2.41-8.76-6.88c-1.44-27.93-2.98-71.57-2.97-110.32c0-15.73,0.28-29.23,0.83-40.17
				c0.18-1.29,0.28-2.25,0.37-3.05c0.22-2.07,0.35-3.22,1.25-5.56c1.6-4.13,5.84-8.55,12.95-8.55c3.39,0,7.15,1,11.19,2.99
				c17.41,8.81,27.01,29.52,23.9,51.54c-1.96,14.54-9.95,26.04-21.44,30.97c7.6,10.19,10,23.41,12.33,36.2
				c2.88,15.86,5.87,32.25,18.79,42.88c2.18,1.77,2.9,4.27,1.98,6.86C637.2,984.77,633.36,987.42,629.51,987.42
				C629.51,987.42,629.51,987.42,629.51,987.42z M592.58,884.17c14.81,0,18.24-17.03,18.94-22.25c1.67-14-4.65-31.39-17.76-35.72
				c-0.25,8.72-0.96,34.5-1.21,57.97C592.56,884.17,592.57,884.17,592.58,884.17z"/>
			<path class="st8" d="M591.71,810.49c3.02,0,6.63,0.83,10.89,2.92c16.71,8.45,26.68,28.49,23.52,50.83
				c-1.74,12.91-8.69,25.57-21.85,30.78c17.63,22.58,7.94,60.31,31.77,79.91c5.27,4.29-0.19,11.8-6.52,11.8
				c-1.72,0-3.5-0.56-5.15-1.88c-22.58-18.36-18.36-68.24-33.01-84.86c0.5,26.06,1,50.87,3.48,76.68c0.5,4.8-3.05,6.98-6.8,6.98
				c-3.81,0-7.83-2.24-8.08-6.23c-1.56-30.25-2.98-73.62-2.96-110.27v-0.02c0-14.95,0.26-28.74,0.83-40.11
				c0.61-4.39,0.35-5.24,1.57-8.39C580.77,815.04,584.62,810.49,591.71,810.49 M592.58,884.86c13.6,0,18.41-13.82,19.62-22.85
				c1.74-14.64-4.96-32.75-19.1-36.73c-0.26,8.69-1,35.5-1.24,59.57C592.1,884.85,592.34,884.86,592.58,884.86 M591.71,809.12
				L591.71,809.12c-7.47,0-11.92,4.64-13.6,8.99c-0.94,2.42-1.07,3.67-1.3,5.73c-0.09,0.82-0.19,1.75-0.36,2.97l-0.01,0.06l0,0.06
				c-0.55,10.94-0.83,24.45-0.83,40.18c-0.01,38.79,1.52,82.44,2.97,110.37c0.3,4.9,5.09,7.54,9.45,7.54c2.63,0,4.98-0.94,6.45-2.57
				c1.37-1.52,1.96-3.56,1.72-5.92c-2.35-24.53-2.93-48.71-3.39-72.17c4.47,7.47,6.87,19.07,9.38,31.25
				c3.84,18.59,8.19,39.66,21.3,50.32c1.78,1.43,3.86,2.19,6.01,2.19c4.12,0,8.24-2.84,9.58-6.61c1.02-2.88,0.22-5.66-2.2-7.63
				c-12.72-10.46-15.68-26.74-18.54-42.47c-2.29-12.58-4.65-25.58-11.95-35.8c11.29-5.21,19.11-16.72,21.06-31.17
				c3.16-22.31-6.59-43.3-24.26-52.24C599.07,810.15,595.2,809.12,591.71,809.12L591.71,809.12z M593.25,883.47
				c0.24-22.53,0.9-46.9,1.17-56.31c12.18,4.69,18.02,21.26,16.42,34.68C610.17,866.83,606.94,882.96,593.25,883.47L593.25,883.47z"
				/>
		</g>
		<line class="st9" x1="576.99" y1="867.13" x2="576.99" y2="867.13"/>
	</g>
	<g>
		<g>
			<path class="st8" d="M652.49,769.54c-2.9,0-6.38-1.66-7.45-6.32c-3.56-19.18-9.13-39.53-14.52-59.22
				c-4.16-15.19-8.43-30.81-11.8-45.94c2.38,39.36,3.71,74.18-0.32,101.66c-1.21,6.19-5.3,8.95-8.82,8.95c0,0,0,0,0,0
				c-2.03,0-3.88-0.85-5.21-2.39c-1.71-1.98-2.36-4.94-1.85-8.34c5.06-40.43,2.2-114.32,0.66-154.02
				c-0.15-3.76-0.28-7.22-0.39-10.31c0-5.53,4.5-8.51,8.73-8.51c3.89,0,7.94,2.45,8.22,7.92c1.82,26.83,9.25,54.25,17.11,83.27
				c3.97,14.65,8.06,29.75,11.39,44.85c0.03-24.1-1.87-44.17-3.71-63.63c-1.98-20.99-3.86-40.81-3.47-64.99
				c0.15-6.74,4.94-10.38,9.38-10.38c2.02,0,3.88,0.76,5.23,2.13c1.6,1.63,2.41,4.03,2.35,6.94c-0.34,23.46,0.9,48.38,2.11,72.47
				c1.61,32.28,3.28,65.66,1.32,97.3C661.12,766.34,656.64,769.54,652.49,769.54z"/>
		</g>
		<g>
			<path class="st8" d="M650.44,582.83c3.64,0,7.01,2.67,6.89,8.38c-0.79,54.65,6.85,114.31,3.43,169.74
				c-0.3,4.93-4.38,7.91-8.26,7.91c-2.99,0-5.86-1.77-6.78-5.79c-6.87-36.96-20.86-77.09-28.25-114.31
				c2.9,46.2,4.49,82.1,0.27,110.87c-1.11,5.68-4.76,8.36-8.15,8.36c-3.85,0-7.36-3.47-6.38-9.94
				c5.55-44.34,1.59-128.82,0.27-164.46c0-5.07,4.07-7.79,8.05-7.79c3.68,0,7.28,2.32,7.53,7.27c2.9,42.77,20.32,88.17,29.83,134.37
				c0.79-53.06-7.92-85.79-7.12-134.89C641.89,586.23,646.34,582.83,650.44,582.83 M650.44,581.45v1.37V581.45L650.44,581.45
				c-4.76,0-9.9,3.87-10.06,11.05c-0.39,24.22,1.48,44.06,3.47,65.07c1.68,17.73,3.4,35.96,3.67,57.28
				c-3.04-13.06-6.57-26.06-10-38.74c-7.86-28.99-15.27-56.37-17.09-83.15c-0.3-5.9-4.69-8.55-8.9-8.55c-4.57,0-9.42,3.21-9.42,9.17
				v0.03l0,0.03c0.11,3.09,0.25,6.54,0.39,10.3c1.54,39.68,4.4,113.55-0.65,153.94c-0.54,3.56,0.17,6.72,2.01,8.85
				c1.46,1.7,3.5,2.64,5.74,2.64c5.28,0,8.57-4.76,9.49-9.47l0.01-0.03l0-0.03c3.76-25.64,2.86-57.6,0.8-93.67
				c3.02,12.63,6.54,25.48,9.97,38.03c5.38,19.67,10.95,40.01,14.5,59.13l0.01,0.03l0.01,0.03c0.97,4.23,4.08,6.86,8.11,6.86
				c4.46,0,9.29-3.44,9.64-9.2c1.96-31.68,0.29-65.07-1.32-97.37c-1.2-24.08-2.44-48.99-2.1-72.43c0.08-3.91-1.34-6.2-2.54-7.43
				C654.68,582.29,652.65,581.45,650.44,581.45L650.44,581.45z"/>
		</g>
	</g>
</g>
<path class="st1" d="M493.66,468.14"/>
</svg>
