<svg id="Layer_1" data-name="Layer 1" xmlns="http://www.w3.org/2000/svg" viewBox="0 0 956.06 873.74"><defs><style>.cls-1{fill:#0065a2;}.cls-2{fill:#5ab2df;}.cls-3{fill:#8cc64f;}.cls-4{fill:#fff;}</style></defs><title>Logointrasoft1</title><path class="cls-1" d="M122,1034.15,137,899h31.36l-15,135.11Z" transform="translate(-121.97 -163.13)"/><path class="cls-1" d="M245.32,1034.15,211.7,953.1h-2.29l-7.71,81.05H171.49L186.26,899h29.07l32.93,67.55h2.27L257.79,899H288l-14.76,135.11Z" transform="translate(-121.97 -163.13)"/><path class="cls-1" d="M323.67,1034.15l12.05-108.08h-33.4l2.73-27h98.34l-2.94,27H367.07L355,1034.15Z" transform="translate(-121.97 -163.13)"/><path class="cls-1" d="M474.05,1034.15c-4.31-13.5-9.54-35.2-14.32-51.76-2.71.2-5.9-.15-17.93-.15l-5.46,51.91H405.22l14.54-139.66c21.13-2,37.71-2.39,45.89-2.39,17.94,0,26.12,1.54,33.4,5.38,8.16,4.3,13.16,12.83,13.16,26.91,0,28.62-8,44.3-25.21,52.27l21.11,57.49ZM444.28,953.1h11.83c8.4,0,13.84,2.94,17.73-1.15,4.07-4.31,5.88-13.39,5.88-21.16,0-11.33-5.67-13.48-16.34-13.48-2.28,0-6.61-2.53-14.77-2.11Z" transform="translate(-121.97 -163.13)"/><path class="cls-1" d="M513.35,1034.15,563.1,899h51.1l19.53,135.11H600.58l-4.33-27H557.41l-10.9,27Zm52.24-54.07H594l-6.58-54h-3.19Z" transform="translate(-121.97 -163.13)"/><path class="cls-1" d="M648.27,1005.32c17,3.19,29.29,4.11,34.53,4.11,15,0,25.22-2.75,25.22-18.19,0-5-1.14-8.17-9.33-11.57l-21.8-9.33c-12.48-5.45-19.75-13.37-19.75-29.76,0-29.75,13.16-48.13,46.1-48.13a203,203,0,0,1,39.52,4.76L740,923.54a230.6,230.6,0,0,0-33.85-3.37c-14.08,0-18.63,4.06-18.63,16.79,0,3.85.91,6.83,8,9.77l23.17,9.78c12.93,5.69,20.22,13,20.22,27.68,0,33.84-17.73,52.68-53.15,52.68a165.76,165.76,0,0,1-40.19-5.17Z" transform="translate(-121.97 -163.13)"/><path class="cls-1" d="M753.22,995.32c0-5.9.45-14.28,3.18-38.62,6.36-57.44,20.91-64.25,59.5-64.25,29.76,0,47.25,4.55,47.25,41.54,0,5.91-.44,14.33-3.18,38.61-6.36,57.5-20.9,64.27-59.5,64.27C770.71,1036.87,753.22,1032.35,753.22,995.32ZM828.86,971c2.27-21.35,2.72-28.59,2.72-34.06,0-15.43-5.68-17.7-18.4-17.7-18.4,0-22.26,4.07-25.67,39.06-2.26,21.35-2.72,28.6-2.72,34,0,15.47,5.68,17.75,18.4,17.75C821.58,1010.11,825.45,1006,828.86,971Z" transform="translate(-121.97 -163.13)"/><path class="cls-1" d="M868.17,1034.15,882.93,899h83.82l-3,27H911.54l-3.86,27h38.63l-3,27H904.73l-5.46,54.07Z" transform="translate(-121.97 -163.13)"/><path class="cls-1" d="M998.32,1034.15l12-108.08H977l2.72-27H1078l-3,27h-33.39l-12,108.08Z" transform="translate(-121.97 -163.13)"/><path class="cls-1" d="M618.59,797.75a2.89,2.89,0,0,1-2.88-2.88v-1.14a2.86,2.86,0,0,1,2.88-2.88h0a2.87,2.87,0,0,1,2.87,2.88v1.14a2.87,2.87,0,0,1-2.87,2.88Zm0-14.1a2.87,2.87,0,0,1-2.88-2.89v-1.14a2.85,2.85,0,0,1,2.86-2.88h0a2.86,2.86,0,0,1,2.86,2.85v1.14a2.92,2.92,0,0,1-2.86,2.92Zm0-14.12a2.91,2.91,0,0,1-2.88-2.9v-1.14a2.88,2.88,0,0,1,2.87-2.89h0a2.88,2.88,0,0,1,2.88,2.89v1.14a2.91,2.91,0,0,1-2.88,2.9Zm0-14.15a2.85,2.85,0,0,1-2.88-2.82v-1.18a3,3,0,0,1,2.87-2.93h0a2.9,2.9,0,0,1,2.89,2.93v1.14a2.85,2.85,0,0,1-2.86,2.86Zm0-14.07a2.87,2.87,0,0,1-2.88-2.87V737.3a2.91,2.91,0,0,1,2.87-2.93h0a2.88,2.88,0,0,1,2.87,2.88v1.14a2.91,2.91,0,0,1-2.86,2.92Zm0-14.14a2.87,2.87,0,0,1-2.87-2.88v-1.14a2.84,2.84,0,0,1,2.85-2.87h0a2.86,2.86,0,0,1,2.88,2.87v1.14a2.87,2.87,0,0,1-2.87,2.88Zm0-14.1a2.87,2.87,0,0,1-2.88-2.89V709a2.84,2.84,0,0,1,2.87-2.83h0a2.86,2.86,0,0,1,2.88,2.83v1.17a2.9,2.9,0,0,1-2.88,2.89Z" transform="translate(-121.97 -163.13)"/><path class="cls-1" d="M777.57,523.87a3.88,3.88,0,0,1-1.13-.24,2.9,2.9,0,1,1,3.8-1.57l0,0A2.89,2.89,0,0,1,777.57,523.87Zm5-12.05a2.6,2.6,0,0,1-1.11-.21,2.89,2.89,0,0,1-1.56-3.76l.45-1.07a2.88,2.88,0,0,1,5.32,2.21l-.42,1.08A2.91,2.91,0,0,1,782.55,511.82Zm5.41-13a3.62,3.62,0,0,1-1.1-.21,2.93,2.93,0,0,1-1.57-3.8l.44-1.07a2.93,2.93,0,0,1,3.79-1.53,2.87,2.87,0,0,1,1.53,3.75l-.43,1.06A2.87,2.87,0,0,1,788,498.81Zm5.41-13a2.72,2.72,0,0,1-1.1-.23,2.89,2.89,0,0,1-1.56-3.75l.44-1.09a2.88,2.88,0,0,1,5.32,2.22L796,484A2.89,2.89,0,0,1,793.37,485.77Zm5.41-13a2.77,2.77,0,0,1-1.1-.22,2.89,2.89,0,0,1-1.56-3.77l.44-1.08a2.88,2.88,0,0,1,5.32,2.22l-.44,1.08A2.89,2.89,0,0,1,798.78,472.73Zm5.41-13.06a2.58,2.58,0,0,1-1.11-.21,2.85,2.85,0,0,1-1.54-3.76l.44-1.07a2.87,2.87,0,0,1,3.75-1.56,2.91,2.91,0,0,1,1.56,3.8l-.45,1.05A2.83,2.83,0,0,1,804.19,459.67Zm5.41-13a2.6,2.6,0,0,1-1.11-.25,2.85,2.85,0,0,1-1.56-3.73l.46-1.08a2.87,2.87,0,1,1,5.3,2.2l-.42,1.07A2.94,2.94,0,0,1,809.6,446.67ZM815,433.61a2.71,2.71,0,0,1-1.07-.23,2.89,2.89,0,0,1-1.59-3.76l.45-1.05a2.88,2.88,0,0,1,5.33,2.17l-.44,1.1A2.87,2.87,0,0,1,815,433.61Zm5.44-13a2.59,2.59,0,0,1-1.11-.22,2.9,2.9,0,0,1-1.56-3.77l.44-1.05a2.88,2.88,0,0,1,5.33,2.2l-.46,1.07A2.86,2.86,0,0,1,820.43,420.57Zm5.4-13a2.82,2.82,0,0,1-1.13-.23,2.9,2.9,0,0,1-1.53-3.78l.44-1.06a2.88,2.88,0,0,1,5.32,2.2l-.44,1.06A2.9,2.9,0,0,1,825.83,407.55Zm5.41-13a2.82,2.82,0,0,1-1.1-.23,2.85,2.85,0,0,1-1.56-3.75l.45-1.09a2.87,2.87,0,0,1,5.3,2.21l-.43,1.09A2.85,2.85,0,0,1,831.24,394.51Zm5.41-13a2.89,2.89,0,0,1-2.67-4l.45-1.07a2.88,2.88,0,0,1,5.32,2.21l-.44,1A2.86,2.86,0,0,1,836.65,381.47Zm5.4-13.05a2.73,2.73,0,0,1-1.1-.22,2.88,2.88,0,0,1-1.55-3.76l.44-1.05a2.87,2.87,0,0,1,3.76-1.58,2.9,2.9,0,0,1,1.56,3.77l-.45,1.07A2.84,2.84,0,0,1,842.05,368.42Zm5.41-13a3,3,0,0,1-1.09-.22,2.87,2.87,0,0,1-1.55-3.76l.43-1.07a2.88,2.88,0,1,1,5.32,2.21l-.44,1A2.88,2.88,0,0,1,847.46,355.39Zm5.41-13a3,3,0,0,1-1.11-.24,2.89,2.89,0,0,1-1.55-3.76l.44-1.07a2.88,2.88,0,0,1,5.33,2.2l-.45,1.1A2.89,2.89,0,0,1,852.87,342.36Z" transform="translate(-121.97 -163.13)"/><path class="cls-1" d="M462,394.75H462l-1.14,0a2.88,2.88,0,0,1,0-5.76h1.21a2.91,2.91,0,0,1,2.82,2.95A2.85,2.85,0,0,1,462,394.75Zm-14.13-.27h-1.2a2.9,2.9,0,0,1-2.82-3,2.85,2.85,0,0,1,2.86-2.83h.07l1.16,0a2.88,2.88,0,0,1-.07,5.76Zm-14.1-.3h-.07l-1.15,0a2.86,2.86,0,0,1-2.83-2.91,2.79,2.79,0,0,1,2.93-2.85l1.16,0a2.9,2.9,0,0,1,2.82,3A2.87,2.87,0,0,1,433.8,394.18Zm-14.13-.27h-.05l-1.15,0a2.85,2.85,0,0,1-2.82-2.92,3,3,0,0,1,2.93-2.81h1.15a2.88,2.88,0,0,1-.06,5.75Zm-14.11-.27h-.06l-1.14,0a2.88,2.88,0,0,1,.05-5.76h.06l1.15,0a2.88,2.88,0,0,1-.06,5.76Zm-14.09-.28h-.08l-1.15,0a2.89,2.89,0,0,1-2.83-3,2.93,2.93,0,0,1,2.95-2.8l1.15,0a2.88,2.88,0,0,1,0,5.76Zm-14.13-.27h0l-1.15,0a2.92,2.92,0,0,1-2.84-2.93,2.77,2.77,0,0,1,2.93-2.85l1.17,0a2.89,2.89,0,0,1-.06,5.77Zm-14.12-.3H362a2.93,2.93,0,0,1-2.83-3,3,3,0,0,1,2.95-2.83l1.15,0a2.88,2.88,0,0,1-.06,5.76Zm-14.11-.27h-.05l-1.17,0a2.87,2.87,0,0,1-2.8-2.92,2.8,2.8,0,0,1,2.93-2.84l1.15,0a2.88,2.88,0,0,1-.06,5.75ZM335,392.25h-1.2a2.93,2.93,0,0,1-2.83-3,3,3,0,0,1,2.93-2.84l1.16,0a2.89,2.89,0,0,1-.06,5.77ZM320.89,392h-1.2a2.88,2.88,0,0,1,.05-5.76h.06l1.16,0a2.88,2.88,0,0,1-.07,5.75Z" transform="translate(-121.97 -163.13)"/><path class="cls-1" d="M556.39,496.09a2.81,2.81,0,0,1-2.1-.91,2.86,2.86,0,0,1,.15-4.06l.84-.81a2.89,2.89,0,1,1,3.92,4.24l-.84.77A2.85,2.85,0,0,1,556.39,496.09Zm10.36-9.58a2.87,2.87,0,0,1-1.94-5l.83-.8a2.89,2.89,0,1,1,3.92,4.24l-.86.8A2.83,2.83,0,0,1,566.75,486.51Zm10.37-9.58A3,3,0,0,1,575,476a2.88,2.88,0,0,1,.16-4.07l.85-.77a2.86,2.86,0,1,1,3.9,4.19l-.83.82A3,3,0,0,1,577.12,476.93Zm10.37-9.57a2.91,2.91,0,0,1-2.12-.93,2.88,2.88,0,0,1,.17-4.07l.84-.77a2.87,2.87,0,1,1,3.91,4.21l-.85.79A2.76,2.76,0,0,1,587.49,467.36Zm10.36-9.6a2.88,2.88,0,0,1-2-5l.85-.77a2.89,2.89,0,0,1,4.08.15,2.93,2.93,0,0,1-.17,4.1l-.86.77A2.89,2.89,0,0,1,597.85,457.76Zm10.37-9.58a2.85,2.85,0,0,1-1.94-5l.83-.8a2.9,2.9,0,0,1,3.91,4.28l-.85.74A2.84,2.84,0,0,1,608.22,448.18Zm10.36-9.58a2.86,2.86,0,0,1-1.94-5l.82-.77a2.88,2.88,0,1,1,3.93,4.22l-.85.79A2.92,2.92,0,0,1,618.58,438.6ZM629,429a2.78,2.78,0,0,1-2.12-.92,2.85,2.85,0,0,1,.16-4.06l.83-.78a2.89,2.89,0,0,1,4.09.15,2.93,2.93,0,0,1-.17,4.08l-.83.77A3,3,0,0,1,629,429Zm10.35-9.59a2.88,2.88,0,0,1-2-5l.86-.77a2.88,2.88,0,1,1,3.91,4.22l-.85.81A3,3,0,0,1,639.31,419.44Zm10.42-9.64a2.92,2.92,0,0,1-2.09-.92,2.8,2.8,0,0,1,.08-4l.14-.12a2.88,2.88,0,0,1,3.92,4.21A3.09,3.09,0,0,1,649.73,409.8Z" transform="translate(-121.97 -163.13)"/><path class="cls-1" d="M552.11,367.74a2.87,2.87,0,0,1-1.77-5.12l.9-.73a2.87,2.87,0,0,1,3.54,4.53l-.91.7A2.93,2.93,0,0,1,552.11,367.74Zm11-8.67A2.86,2.86,0,0,1,560.9,358a2.89,2.89,0,0,1,.46-4.05l.92-.67a2.85,2.85,0,1,1,3.54,4.48l-.89.71A2.89,2.89,0,0,1,563.15,359.07Zm11-8.65a3,3,0,0,1-2.27-1.1,2.88,2.88,0,0,1,.49-4l.9-.69a2.85,2.85,0,1,1,3.53,4.47l-.89.74A2.88,2.88,0,0,1,574.19,350.42Zm11-8.69a2.84,2.84,0,0,1-1.79-5.08l.91-.73a2.87,2.87,0,0,1,3.54,4.52l-.91.69A2.73,2.73,0,0,1,585.24,341.73Zm11-8.64A2.87,2.87,0,0,1,594.5,328l.9-.71a2.87,2.87,0,0,1,3.52,4.53l-.89.72A3,3,0,0,1,596.26,333.09Zm11-8.67a2.86,2.86,0,0,1-1.77-5.11l.9-.72a2.86,2.86,0,0,1,4,.49,2.91,2.91,0,0,1-.51,4.05l-.89.67A2.89,2.89,0,0,1,607.3,324.42Zm11.05-8.67a3,3,0,0,1-2.27-1.08,2.87,2.87,0,0,1,.49-4l.89-.71a2.87,2.87,0,0,1,3.57,4.5l-.91.71A2.93,2.93,0,0,1,618.35,315.75Zm11-8.67a2.89,2.89,0,0,1-2.26-1.08,2.86,2.86,0,0,1,.48-4l.91-.71a2.87,2.87,0,0,1,3.54,4.51l-.91.69A2.83,2.83,0,0,1,629.39,307.08Zm11-8.66a2.89,2.89,0,0,1-2.25-1.1,2.84,2.84,0,0,1,.49-4l.89-.7a2.86,2.86,0,1,1,3.54,4.5l-.9.72A3,3,0,0,1,640.42,298.42Zm11.05-8.65a2.87,2.87,0,0,1-1.78-5.12l.91-.72a2.9,2.9,0,0,1,4,.5,2.86,2.86,0,0,1-.5,4l-.89.73A3.19,3.19,0,0,1,651.47,289.77Zm11-8.64a3,3,0,0,1-2.26-1.12,2.85,2.85,0,0,1,.5-4l.88-.72a2.87,2.87,0,1,1,3.54,4.53l-.9.69A2.69,2.69,0,0,1,662.51,281.13Zm11-8.67a2.81,2.81,0,0,1-2.25-1.12,2.84,2.84,0,0,1,.47-4l.91-.69a2.86,2.86,0,1,1,3.53,4.49l-.89.71A2.82,2.82,0,0,1,673.55,272.46Zm11-8.69a2.86,2.86,0,0,1-1.77-5.11l.9-.72a2.88,2.88,0,0,1,4,.5,2.85,2.85,0,0,1-.49,4l-.9.69A2.6,2.6,0,0,1,684.58,263.77Zm11-8.66a2.74,2.74,0,0,1-2.25-1.09,2.83,2.83,0,0,1,.48-4l.89-.73a2.87,2.87,0,1,1,3.55,4.5l-.9.71A2.86,2.86,0,0,1,695.63,255.11Zm11-8.65a2.87,2.87,0,0,1-1.77-5.13l.9-.72a2.87,2.87,0,0,1,3.53,4.52l-.91.69A2.76,2.76,0,0,1,706.67,246.46Zm11-8.67a2.8,2.8,0,0,1-2.25-1.1,2.85,2.85,0,0,1,.48-4l.9-.71a2.87,2.87,0,0,1,3.53,4.53l-.9.68A2.76,2.76,0,0,1,717.71,237.79Zm11-8.66A2.87,2.87,0,0,1,727,224l.88-.69a2.86,2.86,0,1,1,3.53,4.49l-.89.71A2.76,2.76,0,0,1,728.75,229.13Zm11-8.68a2.81,2.81,0,0,1-2.25-1.09,2.84,2.84,0,0,1,.48-4l.89-.72a2.87,2.87,0,1,1,3.54,4.51l-.91.71A2.72,2.72,0,0,1,739.79,220.45Z" transform="translate(-121.97 -163.13)"/><path class="cls-1" d="M462,393.19a2.75,2.75,0,0,1-.59-5.44l1.07-.22a2.75,2.75,0,0,1,3.26,2.11,2.78,2.78,0,0,1-2.11,3.28l-1.06.21A3,3,0,0,1,462,393.19Zm13.14-2.82a2.74,2.74,0,0,1-.56-5.43l1.06-.24a2.78,2.78,0,0,1,3.27,2.14,2.73,2.73,0,0,1-2.13,3.25l-1.07.25Zm13.16-2.81a2.75,2.75,0,0,1-.57-5.44l1.08-.23a2.75,2.75,0,1,1,1.13,5.39l-1.06.22A3.8,3.8,0,0,1,488.33,387.56Zm13.17-2.82a2.74,2.74,0,0,1-2.69-2.16,2.78,2.78,0,0,1,2.11-3.29l1.08-.2a2.74,2.74,0,1,1,1.14,5.36l-1.08.23A5.62,5.62,0,0,1,501.5,384.74Zm13.16-2.83a2.74,2.74,0,0,1-.58-5.43l1.07-.25a2.79,2.79,0,0,1,3.27,2.11,2.73,2.73,0,0,1-2.11,3.27l-1.09.23A2.1,2.1,0,0,1,514.66,381.91Zm13.15-2.82a2.75,2.75,0,0,1-2.69-2.15,2.78,2.78,0,0,1,2.11-3.29l1.07-.21a2.73,2.73,0,0,1,3.27,2.11,2.78,2.78,0,0,1-2.11,3.27l-1.07.21A1.88,1.88,0,0,1,527.81,379.09ZM541,376.26a2.78,2.78,0,0,1-2.69-2.16,2.71,2.71,0,0,1,2.11-3.23l1.08-.25a2.71,2.71,0,0,1,3.26,2.09,2.77,2.77,0,0,1-2.09,3.28l-1.1.21A3.55,3.55,0,0,1,541,376.26Z" transform="translate(-121.97 -163.13)"/><path class="cls-1" d="M474.64,570.47a2.89,2.89,0,0,1-2.86-2.6l-.12-1.15a2.88,2.88,0,1,1,5.73-.62l.12,1.18a2.91,2.91,0,0,1-2.57,3.17A1.56,1.56,0,0,1,474.64,570.47Zm-1.46-14.05a2.88,2.88,0,0,1-2.84-2.58l-.11-1.17a2.88,2.88,0,0,1,5.72-.59l.1,1.19a2.84,2.84,0,0,1-2.56,3.1A.63.63,0,0,1,473.18,556.42Zm-1.43-14a2.88,2.88,0,0,1-2.87-2.61l-.12-1.15a2.89,2.89,0,0,1,2.58-3.15,2.83,2.83,0,0,1,3.16,2.58l.11,1.15a2.85,2.85,0,0,1-2.57,3.14A.75.75,0,0,1,471.75,542.38Zm-1.44-14.06a2.88,2.88,0,0,1-2.87-2.61l-.11-1.13a2.87,2.87,0,0,1,5.72-.57l.11,1.13a2.87,2.87,0,0,1-2.56,3.18Zm-1.45-14a2.89,2.89,0,0,1-2.86-2.61l-.13-1.11a2.87,2.87,0,0,1,2.57-3.16A2.84,2.84,0,0,1,471.6,510l.13,1.13a2.85,2.85,0,0,1-2.56,3.14A.74.74,0,0,1,468.86,514.29Zm-1.46-14a2.87,2.87,0,0,1-2.85-2.58l-.1-1.15a2.87,2.87,0,1,1,5.72-.56l.1,1.11a2.87,2.87,0,0,1-2.56,3.18Zm-1.44-14a2.9,2.9,0,0,1-2.86-2.58l-.11-1.16a2.88,2.88,0,1,1,5.73-.57l.11,1.13a2.84,2.84,0,0,1-2.56,3.15A1.05,1.05,0,0,1,466,486.2Zm-1.44-14a2.86,2.86,0,0,1-2.85-2.58l-.13-1.12a2.89,2.89,0,0,1,2.58-3.18,2.85,2.85,0,0,1,3.15,2.57l.13,1.14a2.9,2.9,0,0,1-2.58,3.17Zm-1.44-14a2.84,2.84,0,0,1-2.85-2.59l-.12-1.15a2.87,2.87,0,1,1,5.72-.57L466,455a2.9,2.9,0,0,1-2.57,3.16Zm-1.44-14a2.86,2.86,0,0,1-2.86-2.58l-.12-1.15a2.89,2.89,0,0,1,2.57-3.17,2.92,2.92,0,0,1,3.16,2.58l.12,1.15a2.88,2.88,0,0,1-2.56,3.15A1.78,1.78,0,0,1,461.64,444.08ZM460.19,430a2.88,2.88,0,0,1-2.86-2.58l-.12-1.15a2.89,2.89,0,0,1,2.57-3.16,2.94,2.94,0,0,1,3.17,2.57l.11,1.16a2.87,2.87,0,0,1-2.57,3.15Zm-1.46-14a2.85,2.85,0,0,1-2.85-2.58l-.1-1.16a2.85,2.85,0,0,1,2.55-3.14,2.91,2.91,0,0,1,3.17,2.58l.11,1.15a2.87,2.87,0,0,1-2.56,3.15Zm-1.42-14a2.88,2.88,0,0,1-2.87-2.58l-.12-1.14a2.88,2.88,0,1,1,5.73-.6l.12,1.17a2.88,2.88,0,0,1-2.56,3.15Z" transform="translate(-121.97 -163.13)"/><path class="cls-1" d="M714.63,575.78h-1.17a2.83,2.83,0,0,1-2.79-2.91,2.77,2.77,0,0,1,2.86-2.8h1.15a2.88,2.88,0,0,1,2.81,2.89A2.84,2.84,0,0,1,714.63,575.78Zm-13.92-.16h-1.16a2.85,2.85,0,0,1,0-5.7h1.16a2.92,2.92,0,0,1,2.83,2.91A2.85,2.85,0,0,1,700.71,575.62Zm-13.93-.16h-1.16a2.83,2.83,0,0,1-2.81-2.9,2.75,2.75,0,0,1,2.87-2.79h1.14a2.86,2.86,0,0,1,2.8,2.91A2.81,2.81,0,0,1,686.78,575.46Zm-13.92-.15h-1.17a2.87,2.87,0,0,1-2.82-2.88,2.91,2.91,0,0,1,2.88-2.79h1.15a2.84,2.84,0,0,1,0,5.67Zm-13.93-.16h-1.17a2.82,2.82,0,0,1-2.8-2.87,2.9,2.9,0,0,1,2.87-2.8H659a2.84,2.84,0,0,1,0,5.67ZM645,575h-1.17a2.83,2.83,0,1,1,0-5.66H645a2.83,2.83,0,1,1,0,5.66Zm-13.92-.12H631l-1.11,0a2.84,2.84,0,0,1-2.83-2.85,2.7,2.7,0,0,1,2.88-2.84h1.13a2.86,2.86,0,0,1,0,5.72Zm-13.94-.18H616a2.85,2.85,0,0,1,0-5.69h0l1.14,0a2.83,2.83,0,0,1-.05,5.66Zm-13.93-.13h-1.16a2.89,2.89,0,0,1-2.81-2.9,2.81,2.81,0,0,1,2.84-2.79h1.18a2.85,2.85,0,0,1,0,5.69Zm-13.93-.15h0l-1.13,0a2.84,2.84,0,0,1-2.83-2.87,2.78,2.78,0,0,1,2.88-2.8l1.13,0a2.82,2.82,0,0,1,2.82,2.83A2.86,2.86,0,0,1,589.28,574.41Zm-13.92-.14h0l-1.13,0a2.83,2.83,0,1,1,0-5.66h1.17a2.81,2.81,0,0,1,2.83,2.83A2.86,2.86,0,0,1,575.36,574.27Zm-13.92-.17h0l-1.15,0a2.85,2.85,0,0,1,.07-5.69l1.14,0a2.85,2.85,0,0,1,0,5.69ZM547.51,574h0l-1.14-.05a2.82,2.82,0,1,1,0-5.64h1.14a2.85,2.85,0,0,1,0,5.69Zm-13.92-.18h-.05l-1.11,0a2.81,2.81,0,0,1-2.83-2.86,2.84,2.84,0,0,1,2.85-2.8h1.17a2.84,2.84,0,0,1,0,5.67Zm-13.93-.16h-1.17a2.84,2.84,0,0,1-2.81-2.87,2.67,2.67,0,0,1,2.88-2.78h1.13a2.83,2.83,0,1,1,0,5.65Zm-13.93-.13h0l-1.12,0a2.84,2.84,0,1,1,.06-5.67h1.13a2.85,2.85,0,0,1,0,5.69Zm-13.92-.15h-1.19a2.86,2.86,0,0,1-2.8-2.88,3.09,3.09,0,0,1,2.88-2.83h1.13a2.84,2.84,0,0,1,2.8,2.89A2.8,2.8,0,0,1,491.81,573.33Z" transform="translate(-121.97 -163.13)"/><path class="cls-1" d="M710.77,770.52a2.84,2.84,0,0,1-2.88-2.88v-1.1a2.88,2.88,0,0,1,2.87-2.91h0a2.88,2.88,0,0,1,2.88,2.85v1.16a2.87,2.87,0,0,1-2.87,2.88Zm0-14.1a2.88,2.88,0,0,1-2.87-2.87v-1.14a2.84,2.84,0,0,1,2.86-2.88h0a2.88,2.88,0,0,1,2.89,2.88l0,1.14a2.89,2.89,0,0,1-2.89,2.87Zm0-14.09a2.87,2.87,0,0,1-2.88-2.88v-1.17a2.91,2.91,0,0,1,2.86-2.92h0a2.88,2.88,0,0,1,2.86,2.91l0,1.18a2.91,2.91,0,0,1-2.88,2.88Zm-.06-14.1a2.89,2.89,0,0,1-2.87-2.88v-1.21a2.85,2.85,0,0,1,2.87-2.85h0a2.86,2.86,0,0,1,2.89,2.85v1.14a2.92,2.92,0,0,1-2.88,3Zm0-14.17a2.84,2.84,0,0,1-2.88-2.85v-1.14a2.86,2.86,0,0,1,2.86-2.9h0a2.87,2.87,0,0,1,2.86,2.9v1.14a2.83,2.83,0,0,1-2.86,2.85Zm0-14.1a2.85,2.85,0,0,1-2.89-2.86v-1.17a2.88,2.88,0,0,1,2.86-2.88,2.76,2.76,0,0,1,2.89,2.85v1.2a2.86,2.86,0,0,1-2.87,2.86Zm-.05-14.11a2.87,2.87,0,0,1-2.88-2.88v-1.14a2.87,2.87,0,0,1,2.87-2.88h0a2.9,2.9,0,0,1,2.89,2.88v1.11a2.89,2.89,0,0,1-2.88,2.91Zm0-14.12a2.89,2.89,0,0,1-2.89-2.88v-1.12a2.87,2.87,0,0,1,2.89-2.9h0a2.87,2.87,0,0,1,2.86,2.9v1.12a2.84,2.84,0,0,1-2.86,2.88Zm0-14.1a2.86,2.86,0,0,1-2.88-2.88v-1.14a2.85,2.85,0,0,1,2.86-2.89h0a2.88,2.88,0,0,1,2.86,2.87v1.13a2.9,2.9,0,0,1-2.86,2.91Zm-.06-14.11a2.9,2.9,0,0,1-2.87-2.91v-1.12a2.89,2.89,0,0,1,2.86-2.9h0a2.89,2.89,0,0,1,2.89,2.9v1.12a2.91,2.91,0,0,1-2.89,2.91Zm0-14.14a2.84,2.84,0,0,1-2.88-2.83v-1.18a2.92,2.92,0,0,1,2.86-2.91h0a2.9,2.9,0,0,1,2.89,2.91v1.13a2.86,2.86,0,0,1-2.86,2.88Zm0-14.07a2.87,2.87,0,0,1-2.88-2.88v-1.15a2.9,2.9,0,0,1,2.88-2.9h0a2.88,2.88,0,0,1,2.87,2.87v1.13a2.91,2.91,0,0,1-2.86,2.93Zm0-14.15a2.86,2.86,0,0,1-2.88-2.86v-1.14a2.84,2.84,0,0,1,2.85-2.88h0a2.87,2.87,0,0,1,2.88,2.88v1.14a2.87,2.87,0,0,1-2.88,2.86Zm0-14.08a2.89,2.89,0,0,1-2.89-2.91V583a2.85,2.85,0,0,1,2.88-2.84h0a2.86,2.86,0,0,1,2.87,2.84v1.16a2.89,2.89,0,0,1-2.87,2.91Z" transform="translate(-121.97 -163.13)"/><path class="cls-1" d="M421.42,728.51a2.85,2.85,0,0,1-1.55-5.25l1-.63a2.87,2.87,0,0,1,3.93.88,2.8,2.8,0,0,1-.84,3.91l-.95.63A2.81,2.81,0,0,1,421.42,728.51Zm11.71-7.57a2.9,2.9,0,0,1-2.4-1.3,2.84,2.84,0,0,1,.84-3.93l1-.65a2.84,2.84,0,1,1,3.1,4.76l-.94.61A3.14,3.14,0,0,1,433.13,720.94Zm11.71-7.62a2.82,2.82,0,0,1-2.39-1.28,2.87,2.87,0,0,1,.85-4l.95-.61a2.91,2.91,0,0,1,3.95.8,2.86,2.86,0,0,1-.86,4l-.95.67A3.33,3.33,0,0,1,444.84,713.32Zm11.71-7.62a2.83,2.83,0,0,1-1.54-5.23l1-.63a2.85,2.85,0,0,1,3.08,4.8l-.95.62A2.7,2.7,0,0,1,456.55,705.7Zm11.71-7.58a2.89,2.89,0,0,1-2.39-1.31,2.81,2.81,0,0,1,.84-3.91l.94-.65a2.86,2.86,0,0,1,3.13,4.79l-1,.6A2.83,2.83,0,0,1,468.26,698.12ZM480,690.53a2.9,2.9,0,0,1-2.39-1.32,2.83,2.83,0,0,1,.86-3.93l.95-.62a2.81,2.81,0,0,1,3.92.84,2.87,2.87,0,0,1-.84,4l-.94.59A2.79,2.79,0,0,1,480,690.53Zm11.71-7.6a2.89,2.89,0,0,1-2.39-1.31,2.82,2.82,0,0,1,.85-3.92l.95-.64a2.85,2.85,0,0,1,4,.82,2.88,2.88,0,0,1-.84,4l-1,.62A3,3,0,0,1,491.68,682.93Zm11.71-7.62a2.84,2.84,0,0,1-1.56-5.23l1-.62a2.84,2.84,0,1,1,3.09,4.77l-1,.62A2.73,2.73,0,0,1,503.39,675.31Zm11.7-7.58a2.89,2.89,0,0,1-2.37-1.28,2.85,2.85,0,0,1,.82-4l1-.62a2.85,2.85,0,0,1,4,.84,2.8,2.8,0,0,1-.86,3.91l-1,.64A2.76,2.76,0,0,1,515.09,667.73Zm11.73-7.6a2.86,2.86,0,0,1-1.56-5.26l1-.6a2.85,2.85,0,1,1,3.11,4.78l-1,.62A2.91,2.91,0,0,1,526.82,660.13Zm11.71-7.6a2.88,2.88,0,0,1-1.56-5.29l1-.58a2.85,2.85,0,1,1,3.1,4.78l-1,.61A2.71,2.71,0,0,1,538.53,652.53Z" transform="translate(-121.97 -163.13)"/><path class="cls-1" d="M618.61,700.58a2.78,2.78,0,0,1-1.63-.51l-.93-.65a2.82,2.82,0,0,1-.75-4,2.9,2.9,0,0,1,4-.79l1,.66a2.9,2.9,0,0,1,.73,4A2.83,2.83,0,0,1,618.61,700.58Zm-11.65-8a2.73,2.73,0,0,1-1.62-.53l-.94-.66a2.87,2.87,0,1,1,3.25-4.74l1,.66a2.89,2.89,0,0,1-1.64,5.27Zm-11.63-8a2.67,2.67,0,0,1-1.63-.51l-1-.63a2.87,2.87,0,0,1-.74-4,2.92,2.92,0,0,1,4-.72l1,.66a2.87,2.87,0,0,1-1.64,5.22Zm-11.63-8a2.77,2.77,0,0,1-1.64-.5l-1-.66a2.87,2.87,0,0,1,3.26-4.73l1,.65a2.85,2.85,0,0,1,.74,4A2.8,2.8,0,0,1,583.7,676.62Zm-11.66-8a2.93,2.93,0,0,1-1.61-.47l-.95-.67a2.87,2.87,0,1,1,3.24-4.74l.95.64a2.86,2.86,0,0,1-1.63,5.24Zm-11.63-8a3,3,0,0,1-1.63-.47l-.95-.67a2.87,2.87,0,0,1-.75-4,3,3,0,0,1,4-.75l.94.68a2.86,2.86,0,0,1,.76,4A3,3,0,0,1,560.41,660.65Zm-11.65-7.94a2.8,2.8,0,0,1-1.62-.53l-1-.65a2.88,2.88,0,0,1,3.26-4.76l1,.67a2.89,2.89,0,0,1-1.64,5.27Z" transform="translate(-121.97 -163.13)"/><path class="cls-1" d="M472.92,573a.47.47,0,0,1-.23,0l-1.14-.09a2.89,2.89,0,1,1,.49-5.75l1.14.12a2.89,2.89,0,0,1-.26,5.76Zm-14.05-1.16a.61.61,0,0,1-.23,0l-1.16-.11a2.87,2.87,0,1,1,.46-5.72l1.16.1a2.85,2.85,0,0,1,2.63,3.07A2.9,2.9,0,0,1,458.87,571.84Zm-14.06-1.2h-.25l-1.14-.12a2.85,2.85,0,0,1-2.63-3.07,2.89,2.89,0,0,1,3.09-2.66l1.16.09a2.89,2.89,0,0,1-.23,5.76Zm-14.09-1.16a.63.63,0,0,1-.23,0l-1.15-.07a2.89,2.89,0,0,1-2.63-3.13,2.8,2.8,0,0,1,3.11-2.63l1.16.1a2.89,2.89,0,0,1,2.63,3.08A2.92,2.92,0,0,1,430.72,569.48Zm-14-1.16c-.1,0-.17,0-.28,0l-1.13-.09a2.92,2.92,0,0,1-2.64-3.14,2.83,2.83,0,0,1,3.13-2.63l1.14.12a2.88,2.88,0,0,1,2.64,3.1A2.94,2.94,0,0,1,416.68,568.32Zm-14.08-1.2-.23,0-1.14-.08a2.88,2.88,0,1,1,.46-5.75l1.14.09a2.89,2.89,0,0,1-.23,5.76ZM388.53,566c-.09,0-.15-.05-.24-.05l-1.16-.08a2.88,2.88,0,0,1,.49-5.74l1.15.08a2.9,2.9,0,0,1-.24,5.79Zm-14.06-1.19h-.24l-1.17-.13a2.86,2.86,0,0,1-2.62-3.13,2.8,2.8,0,0,1,3.12-2.6l1.15.12a2.87,2.87,0,0,1-.24,5.74Zm-14.07-1.17a.74.74,0,0,1-.25,0l-1.14-.07a2.89,2.89,0,0,1-2.62-3.13,2.77,2.77,0,0,1,3.1-2.63l1.16.08a2.93,2.93,0,0,1,2.62,3.13A2.89,2.89,0,0,1,360.4,563.62Zm-14.06-1.19h-.25l-1.14-.12a2.87,2.87,0,1,1,.47-5.72l1.15.1a2.87,2.87,0,0,1-.23,5.74Zm-14.07-1.18H332l-1.15-.09a2.89,2.89,0,0,1,.47-5.76l1.15.1a2.88,2.88,0,0,1-.23,5.75Zm-14.07-1.18H318l-1.13-.08a2.85,2.85,0,0,1-2.63-3.11,2.75,2.75,0,0,1,3.1-2.62l1.15.06a2.93,2.93,0,0,1,2.63,3.13A2.87,2.87,0,0,1,318.2,560.07Zm-14.07-1.17h-.24l-1.15-.11a2.86,2.86,0,0,1-2.63-3.09,2.8,2.8,0,0,1,3.12-2.63l1.14.1a2.87,2.87,0,0,1-.24,5.73Z" transform="translate(-121.97 -163.13)"/><path class="cls-1" d="M461.81,374.94a2.74,2.74,0,0,1-.8-.1,2.87,2.87,0,0,1-2-3.57l.31-1.09a2.87,2.87,0,1,1,5.53,1.57l-.32,1.11A2.88,2.88,0,0,1,461.81,374.94Zm3.92-13.55a3.74,3.74,0,0,1-.81-.1,2.9,2.9,0,0,1-1.95-3.6l.31-1.09a2.88,2.88,0,1,1,5.54,1.59l-.33,1.11A2.88,2.88,0,0,1,465.73,361.39Zm3.93-13.56a2.25,2.25,0,0,1-.81-.12,2.85,2.85,0,0,1-2-3.55l.31-1.12a2.89,2.89,0,0,1,3.58-2,2.86,2.86,0,0,1,2,3.56l-.32,1.11A2.86,2.86,0,0,1,469.66,347.83Zm3.9-13.56a2.71,2.71,0,0,1-.79-.12,2.87,2.87,0,0,1-2-3.56l.31-1.1a2.88,2.88,0,0,1,5.54,1.57l-.32,1.13A2.87,2.87,0,0,1,473.56,334.27Zm3.93-13.58a2.2,2.2,0,0,1-.8-.1,2.87,2.87,0,0,1-2-3.54l.32-1.13a2.88,2.88,0,0,1,5.54,1.6l-.31,1.09A2.9,2.9,0,0,1,477.49,320.69Zm3.92-13.54a3.42,3.42,0,0,1-.81-.11,2.88,2.88,0,0,1-2-3.58l.32-1.1A2.88,2.88,0,1,1,484.5,304l-.32,1.1A2.86,2.86,0,0,1,481.41,307.15Zm3.92-13.57a3.64,3.64,0,0,1-.79-.1,2.88,2.88,0,0,1-2-3.56l.31-1.12a2.88,2.88,0,0,1,3.58-2,2.84,2.84,0,0,1,1.94,3.55l-.31,1.11A2.89,2.89,0,0,1,485.33,293.58ZM489.27,280a3.93,3.93,0,0,1-.82-.11,2.88,2.88,0,0,1-2-3.56l.32-1.13a2.88,2.88,0,0,1,5.53,1.61L492,278A2.87,2.87,0,0,1,489.27,280Zm3.91-13.55a3.3,3.3,0,0,1-.8-.12,2.9,2.9,0,0,1-2-3.58l.33-1.09a2.88,2.88,0,1,1,5.53,1.59l-.33,1.12A2.9,2.9,0,0,1,493.18,266.48Zm3.92-13.58a2.74,2.74,0,0,1-.8-.1,2.87,2.87,0,0,1-2-3.57l.32-1.1a2.88,2.88,0,1,1,5.53,1.59l-.31,1.11A2.91,2.91,0,0,1,497.1,252.9ZM501,239.37a3.39,3.39,0,0,1-.82-.12,2.9,2.9,0,0,1-2-3.58l.32-1.12a2.89,2.89,0,0,1,5.54,1.62l-.33,1.09A2.86,2.86,0,0,1,501,239.37ZM505,225.79a1.82,1.82,0,0,1-.8-.12,2.88,2.88,0,0,1-2-3.57l.31-1.08a2.89,2.89,0,0,1,5.56,1.58l-.33,1.11A2.89,2.89,0,0,1,505,225.79Zm3.93-13.55a2.75,2.75,0,0,1-.81-.13,2.86,2.86,0,0,1-2-3.55l.32-1.12A2.87,2.87,0,0,1,512,209l-.32,1.12A2.87,2.87,0,0,1,508.88,212.24Zm3.9-13.58a2.24,2.24,0,0,1-.79-.12,2.84,2.84,0,0,1-2-3.53l.32-1.11a2.87,2.87,0,1,1,5.52,1.59l-.32,1.11A2.87,2.87,0,0,1,512.78,198.66Z" transform="translate(-121.97 -163.13)"/><path class="cls-1" d="M721.4,327.63a2.5,2.5,0,0,1-2.18-1.27l-.49-.87a2.5,2.5,0,0,1,4.35-2.46l.48.85a2.47,2.47,0,0,1-.91,3.4A2.42,2.42,0,0,1,721.4,327.63ZM715.33,317a2.44,2.44,0,0,1-2.15-1.24l-.51-.88a2.5,2.5,0,0,1,4.34-2.49l.49.9a2.48,2.48,0,0,1-.93,3.41A2.58,2.58,0,0,1,715.33,317Zm-6.05-10.61a2.55,2.55,0,0,1-2.17-1.26l-.49-.85a2.5,2.5,0,0,1,4.33-2.49l.49.86a2.51,2.51,0,0,1-2.16,3.74Zm-6.07-10.63a2.52,2.52,0,0,1-2.17-1.24l-.5-.89a2.5,2.5,0,1,1,4.35-2.46l.48.86a2.48,2.48,0,0,1-.92,3.4A2.38,2.38,0,0,1,703.21,295.75Zm-6.06-10.6a2.51,2.51,0,0,1-2.17-1.29l-.49-.85a2.5,2.5,0,0,1,.91-3.42,2.53,2.53,0,0,1,3.43.94l.48.84a2.52,2.52,0,0,1-.91,3.43A2.59,2.59,0,0,1,697.15,285.15Zm-6.07-10.65a2.48,2.48,0,0,1-2.18-1.25l-.48-.87a2.49,2.49,0,1,1,4.33-2.46l.5.84a2.53,2.53,0,0,1-.93,3.42A2.47,2.47,0,0,1,691.08,274.5ZM685,263.9a2.5,2.5,0,0,1-2.16-1.29l-.5-.85a2.52,2.52,0,0,1,.95-3.42,2.49,2.49,0,0,1,3.4.94l.48.87a2.51,2.51,0,0,1-.92,3.41A2.7,2.7,0,0,1,685,263.9ZM679,253.27a2.55,2.55,0,0,1-2.17-1.26l-.49-.87a2.51,2.51,0,0,1,4.35-2.49l.48.88a2.5,2.5,0,0,1-.94,3.42A2.43,2.43,0,0,1,679,253.27Zm-6.05-10.64a2.49,2.49,0,0,1-2.18-1.27l-.49-.85a2.5,2.5,0,0,1,4.34-2.48l.5.85a2.52,2.52,0,0,1-.93,3.42A2.29,2.29,0,0,1,672.9,242.63Zm-6-10.61a2.55,2.55,0,0,1-2.19-1.25l-.47-.87a2.49,2.49,0,1,1,4.31-2.5l.5.89a2.51,2.51,0,0,1-.93,3.42A2.73,2.73,0,0,1,666.85,232Zm-6.08-10.62a2.49,2.49,0,0,1-2.17-1.27l-.49-.84a2.52,2.52,0,0,1,.92-3.43,2.48,2.48,0,0,1,3.4.93l.5.87a2.51,2.51,0,0,1-2.16,3.74Zm-6.06-10.63a2.49,2.49,0,0,1-2.17-1.26l-.51-.87a2.51,2.51,0,0,1,.94-3.4,2.46,2.46,0,0,1,3.4.93l.49.88a2.49,2.49,0,0,1-.91,3.4A2.55,2.55,0,0,1,654.71,210.77Zm-6.06-10.62a2.58,2.58,0,0,1-2.19-1.27L646,198a2.49,2.49,0,0,1,4.34-2.44l.48.85a2.49,2.49,0,0,1-.92,3.42A2.38,2.38,0,0,1,648.65,200.15Zm-6.12-10.65a2.42,2.42,0,0,1-2.14-1.27l0-.06a2.48,2.48,0,0,1,1-3.37,2.46,2.46,0,0,1,3.39,1,2.5,2.5,0,0,1-1,3.4A2.53,2.53,0,0,1,642.53,189.5Z" transform="translate(-121.97 -163.13)"/><path class="cls-1" d="M710.2,579.06c-.06,0-.15,0-.25,0a2.88,2.88,0,0,1-2.61-3.1l.11-1.19a2.88,2.88,0,0,1,5.74.52l-.1,1.17A2.89,2.89,0,0,1,710.2,579.06ZM711.5,565a1.14,1.14,0,0,1-.27,0,2.89,2.89,0,0,1-2.61-3.16l.1-1.13a2.88,2.88,0,0,1,5.74.53l-.1,1.18A2.88,2.88,0,0,1,711.5,565Zm1.28-14.07h-.27a2.88,2.88,0,0,1-2.61-3.13l.1-1.17a2.89,2.89,0,0,1,5.75.55l-.11,1.14A2.89,2.89,0,0,1,712.78,550.92Zm1.28-14.06h-.28a2.85,2.85,0,0,1-2.6-3.11l.1-1.16A2.83,2.83,0,0,1,714.4,530a2.91,2.91,0,0,1,2.63,3.13l-.11,1.15A2.88,2.88,0,0,1,714.06,536.86Zm1.27-14a.69.69,0,0,1-.26,0,2.9,2.9,0,0,1-2.62-3.15l.11-1.12a2.88,2.88,0,1,1,5.73.54l-.09,1.13A2.9,2.9,0,0,1,715.33,522.83Zm1.28-14.08a1.27,1.27,0,0,1-.28,0,2.85,2.85,0,0,1-2.59-3.13l.1-1.14a2.88,2.88,0,0,1,5.73.52l-.11,1.14A2.85,2.85,0,0,1,716.61,508.75Zm1.26-14.05a1.23,1.23,0,0,1-.26,0,2.89,2.89,0,0,1-2.61-3.13l.11-1.14a2.88,2.88,0,0,1,5.74.51l-.12,1.15A2.87,2.87,0,0,1,717.87,494.7Zm1.29-14.07a.8.8,0,0,1-.27,0,2.82,2.82,0,0,1-2.6-3.1l.1-1.14a2.88,2.88,0,0,1,5.73.49L722,478A2.89,2.89,0,0,1,719.16,480.63Zm1.26-14a1,1,0,0,1-.24,0,2.88,2.88,0,0,1-2.62-3.13l.1-1.16a2.88,2.88,0,0,1,5.74.51l-.1,1.15A2.92,2.92,0,0,1,720.42,466.59Zm1.3-14.07h-.28a2.86,2.86,0,0,1-2.59-3.14l.1-1.14a2.88,2.88,0,0,1,5.73.51l-.12,1.15A2.86,2.86,0,0,1,721.72,452.52Zm1.27-14a1.06,1.06,0,0,1-.26,0,2.86,2.86,0,0,1-2.61-3.12l.11-1.15a2.87,2.87,0,1,1,5.72.5l-.1,1.16A2.89,2.89,0,0,1,723,438.47Zm1.27-14.06H724a2.84,2.84,0,0,1-2.6-3.12l.1-1.15a2.88,2.88,0,0,1,5.73.49l-.11,1.17A2.87,2.87,0,0,1,724.26,424.41Zm1.28-14.06a1.27,1.27,0,0,1-.27,0,2.85,2.85,0,0,1-2.61-3.11l.11-1.16a2.83,2.83,0,0,1,3.11-2.59,2.88,2.88,0,0,1,2.63,3.13l-.11,1.11A2.87,2.87,0,0,1,725.54,410.35Zm1.28-14.06h-.27a2.86,2.86,0,0,1-2.61-3.11L724,392a2.88,2.88,0,0,1,5.74.52l-.1,1.14A2.86,2.86,0,0,1,726.82,396.29Zm1.27-14.05a1.14,1.14,0,0,1-.26,0,2.87,2.87,0,0,1-2.61-3.13l.1-1.14a2.88,2.88,0,0,1,5.74.51l-.11,1.15A2.88,2.88,0,0,1,728.09,382.24Zm1.28-14.07a.77.77,0,0,1-.26,0,2.84,2.84,0,0,1-2.62-3.1l.11-1.14a2.85,2.85,0,0,1,3.13-2.61,2.9,2.9,0,0,1,2.62,3.13l-.12,1.12A2.89,2.89,0,0,1,729.37,368.17Zm1.28-14.05a.77.77,0,0,1-.27,0,2.84,2.84,0,0,1-2.61-3.1l.1-1.17a2.88,2.88,0,0,1,5.74.52l-.1,1.14A2.9,2.9,0,0,1,730.65,354.12Z" transform="translate(-121.97 -163.13)"/><path class="cls-1" d="M888.91,589.51h-.22l-1.16-.12a2.85,2.85,0,0,1-2.65-3.06,2.89,2.89,0,0,1,3.11-2.65l1.14.07a2.87,2.87,0,0,1,2.65,3.08A2.9,2.9,0,0,1,888.91,589.51Zm-14.08-1.11a1.06,1.06,0,0,1-.24,0l-1.14-.09a2.91,2.91,0,0,1-2.64-3.1,2.88,2.88,0,0,1,3.11-2.64l1.15.1a2.84,2.84,0,0,1,2.63,3.07A2.91,2.91,0,0,1,874.83,588.4Zm-14.07-1.12h-.22l-1.15-.1a2.88,2.88,0,0,1,.44-5.75l1.15.11a2.87,2.87,0,0,1-.22,5.74Zm-14.07-1.13h-.24L845.3,586a2.83,2.83,0,0,1-2.61-3.08,2.86,2.86,0,0,1,3.09-2.63l1.15.1a2.86,2.86,0,0,1-.24,5.72Zm-14.07-1.09h-.22l-1.15-.12a2.86,2.86,0,0,1-2.65-3.1,2.89,2.89,0,0,1,3.1-2.63l1.14.1a2.85,2.85,0,0,1,2.65,3.06A2.89,2.89,0,0,1,832.62,585.06ZM818.55,584l-.23,0-1.15-.1a2.84,2.84,0,0,1-2.63-3.09,2.9,2.9,0,0,1,3.09-2.64l1.16.09a2.89,2.89,0,0,1-.24,5.76Zm-14.07-1.14h-.21l-1.17-.07a2.89,2.89,0,0,1,.45-5.76l1.16.09a2.87,2.87,0,0,1-.23,5.74Zm-14.06-1.09h-.25l-1.14-.09a2.87,2.87,0,1,1,.46-5.73l1.16.06a2.89,2.89,0,0,1-.23,5.76Zm-14.08-1.12h-.23L775,580.5a2.86,2.86,0,0,1-2.66-3.06,3,3,0,0,1,3.09-2.7l1.15.1a2.88,2.88,0,0,1-.21,5.76Zm-14.07-1.09-.22,0-1.16-.1a2.84,2.84,0,0,1-2.64-3.08,2.92,2.92,0,0,1,3.09-2.65l1.15.1a2.88,2.88,0,0,1-.22,5.76Zm-14.08-1.13H748l-1.13-.08a2.9,2.9,0,0,1-2.67-3.08,2.94,2.94,0,0,1,3.11-2.68l1.15.12a2.87,2.87,0,0,1-.24,5.73Zm-14.09-1.11h-.2l-1.15-.11a2.86,2.86,0,1,1,.45-5.71l1.15.06a2.88,2.88,0,0,1-.25,5.76Zm-14.05-1.1h-.24l-1.14-.09A2.92,2.92,0,0,1,716,573a3,3,0,0,1,3.11-2.64l1.15.06a3,3,0,0,1,2.65,3.13A2.9,2.9,0,0,1,720.05,576.17Z" transform="translate(-121.97 -163.13)"/><polygon class="cls-2" points="760.04 429.3 653.48 356.5 659.98 346.98 766.55 419.78 760.04 429.3"/><polygon class="cls-2" points="659.41 357.12 655.44 346.32 776.59 301.81 780.57 312.63 659.41 357.12"/><polygon class="cls-2" points="592.22 414.44 584.78 405.63 653.7 347.31 661.15 356.1 592.22 414.44"/><polygon class="cls-2" points="649.44 479.61 584.42 414.11 592.6 405.98 657.6 471.48 649.44 479.61"/><polygon class="cls-2" points="708.45 533.23 649.64 479.8 657.4 471.27 716.2 524.72 708.45 533.23"/><polygon class="cls-2" points="593.37 606.44 583.11 601.22 648.39 472.93 658.66 478.14 593.37 606.44"/><polygon class="cls-2" points="454.52 99.09 385.57 43.79 392.76 34.83 461.73 90.08 454.52 99.09"/><polygon class="cls-2" points="522.07 246.13 452.89 97.02 463.35 92.18 532.52 241.28 522.07 246.13"/><polygon class="cls-2" points="583.09 412.02 521.89 245.73 532.72 241.75 593.91 408.06 583.09 412.02"/><polygon class="cls-2" points="585.86 415.16 431.24 335.22 436.52 324.99 591.14 404.91 585.86 415.16"/><polygon class="cls-2" points="429.78 334.13 329.67 232.97 337.87 224.85 437.97 326.04 429.78 334.13"/><polygon class="cls-2" points="328.39 230.94 279.93 101.98 290.71 97.94 339.17 226.88 328.39 230.94"/><polygon class="cls-2" points="462.59 98.22 453.66 90.95 513.28 17.75 522.2 25.04 462.59 98.22"/><polygon class="cls-2" points="614.25 181.1 602.74 180.51 609.13 58.96 620.63 59.58 614.25 181.1"/><polygon class="cls-2" points="501.29 537.97 492 531.12 583.87 406.64 593.14 413.47 501.29 537.97"/><polygon class="cls-2" points="384.81 626.4 377.86 617.2 493.18 530.01 500.11 539.14 384.81 626.4"/><rect class="cls-2" x="326.26" y="602.54" width="157.53" height="11.51" transform="translate(-364.63 106.68) rotate(-28.75)"/><rect class="cls-2" x="387.79" y="489.29" width="168.07" height="11.51" transform="translate(-132.3 -153.07) rotate(-1.21)"/><polygon class="cls-2" points="264.39 339.32 163.9 313.1 166.78 301.98 267.31 328.16 264.39 339.32"/><polygon class="cls-2" points="300.02 567.03 289.2 563.12 346.71 405.31 357.52 409.25 300.02 567.03"/><polygon class="cls-2" points="356.07 411.47 348.16 403.11 429.92 325.9 437.83 334.27 356.07 411.47"/><polygon class="cls-2" points="609.02 186.56 607.94 175.07 733.19 163.43 734.26 174.9 609.02 186.56"/><polygon class="cls-2" points="530.82 248.28 523.78 239.17 604.97 176.28 612.02 185.39 530.82 248.28"/><polygon class="cls-2" points="525.45 249.19 424.38 214.81 428.09 203.9 529.15 238.27 525.45 249.19"/><polygon class="cls-2" points="423.86 488.32 419.21 477.8 585.92 404.54 590.56 415.07 423.86 488.32"/><polygon class="cls-2" points="651.73 352.59 638.67 269.21 650.06 267.4 663.13 350.84 651.73 352.59"/><polygon class="cls-2" points="182.31 397.55 175.82 388.03 262.6 328.99 269.08 338.47 182.31 397.55"/><path class="cls-3" d="M908.86,497.63a28.53,28.53,0,1,0-35.6-19,28.54,28.54,0,0,0,35.6,19" transform="translate(-121.97 -163.13)"/><path class="cls-4" d="M900.55,500.31h0a30,30,0,1,1,8.74-1.3A30.17,30.17,0,0,1,900.55,500.31Zm0-57.07a27.1,27.1,0,0,0,0,54.19h0a27.1,27.1,0,0,0,0-54.19Z" transform="translate(-121.97 -163.13)"/><path class="cls-3" d="M788.25,542.15a28.54,28.54,0,1,0-35.59-19,28.52,28.52,0,0,0,35.59,19" transform="translate(-121.97 -163.13)"/><path class="cls-4" d="M779.93,544.84h0a30,30,0,0,1-8.71-58.67,30.43,30.43,0,0,1,8.76-1.31,30,30,0,0,1,0,60Zm0-57.09a27.09,27.09,0,0,0-25.93,35,26.87,26.87,0,0,0,25.88,19.19h0a25.9,25.9,0,0,0,7.9-1.17,27.09,27.09,0,0,0-7.87-53Z" transform="translate(-121.97 -163.13)"/><path class="cls-3" d="M551.81,673.48a28.52,28.52,0,1,0-35.6-19,28.53,28.53,0,0,0,35.6,19" transform="translate(-121.97 -163.13)"/><path class="cls-4" d="M543.49,676.14h0a30,30,0,0,1-8.73-58.63,30.46,30.46,0,0,1,8.78-1.3,30,30,0,0,1,8.7,58.65A30.23,30.23,0,0,1,543.49,676.14Zm0-57a27.08,27.08,0,1,0,0,54.15h0a27.68,27.68,0,0,0,7.92-1.14,27.16,27.16,0,0,0,18-33.83A26.89,26.89,0,0,0,543.54,619.11Z" transform="translate(-121.97 -163.13)"/><path class="cls-3" d="M481.91,594.28a24.95,24.95,0,1,0-31.15-16.59,25,25,0,0,0,31.15,16.59" transform="translate(-121.97 -163.13)"/><path class="cls-4" d="M474.61,596.82h0a26.4,26.4,0,1,1,7.72-1.15A26.22,26.22,0,0,1,474.61,596.82Zm.05-49.93a23.17,23.17,0,0,0-6.89,1,23.46,23.46,0,0,0-15.63,29.34,23.38,23.38,0,0,0,22.47,16.66h0a22.73,22.73,0,0,0,6.88-1,23.51,23.51,0,0,0-6.83-46Z" transform="translate(-121.97 -163.13)"/><path class="cls-3" d="M556.54,399.77a28.53,28.53,0,1,0-35.62-19,28.52,28.52,0,0,0,35.62,19" transform="translate(-121.97 -163.13)"/><path class="cls-4" d="M548.2,402.48h0a30.35,30.35,0,1,1,8.77-1.36A28.85,28.85,0,0,1,548.2,402.48Zm0-57.09a27.25,27.25,0,0,0-7.9,1.18,27.08,27.08,0,0,0,7.86,53h0a27.47,27.47,0,0,0,7.9-1.16,27.1,27.1,0,0,0-7.88-53Z" transform="translate(-121.97 -163.13)"/><path class="cls-3" d="M624.86,718.17A21.41,21.41,0,1,0,598.17,704a21.37,21.37,0,0,0,26.69,14.22" transform="translate(-121.97 -163.13)"/><path class="cls-4" d="M618.6,720.54h0a22.64,22.64,0,0,1-21.81-16.16,22.83,22.83,0,1,1,21.81,16.16Zm0-42.82a19.48,19.48,0,0,0-5.82.9,19.94,19.94,0,0,0,5.78,39h0a21,21,0,0,0,5.83-.81,20,20,0,0,0-5.79-39.11Z" transform="translate(-121.97 -163.13)"/><path class="cls-3" d="M625.88,819.72a24.94,24.94,0,1,0-31.13-16.6,24.94,24.94,0,0,0,31.13,16.6" transform="translate(-121.97 -163.13)"/><path class="cls-4" d="M618.62,822.25h0a26.39,26.39,0,0,1-7.68-51.65,25.79,25.79,0,0,1,7.7-1.14,26.4,26.4,0,0,1,7.67,51.65A26.82,26.82,0,0,1,618.62,822.25Zm0-49.91a24.25,24.25,0,0,0-6.87,1,23.51,23.51,0,0,0,6.85,46h0a23.1,23.1,0,0,0,6.85-1,23.51,23.51,0,0,0-6.83-46Z" transform="translate(-121.97 -163.13)"/><path class="cls-3" d="M425.44,755.5a28.53,28.53,0,1,0-35.61-19,28.52,28.52,0,0,0,35.61,19" transform="translate(-121.97 -163.13)"/><path class="cls-4" d="M417.12,758.2h0a30,30,0,0,1-8.74-58.67,31.18,31.18,0,0,1,8.76-1.3,30,30,0,0,1,0,60Zm0-57.1a27.63,27.63,0,0,0-7.91,1.2,27.1,27.1,0,0,0,7.89,53h0a27.11,27.11,0,0,0,0-54.22Z" transform="translate(-121.97 -163.13)"/><path class="cls-3" d="M395,517.19a21.39,21.39,0,1,0-27-13.67,21.37,21.37,0,0,0,27,13.67" transform="translate(-121.97 -163.13)"/><path class="cls-4" d="M388.34,519.68h0a22.56,22.56,0,1,1,7.13-1.09A24.37,24.37,0,0,1,388.34,519.68Zm0-42.78a19.55,19.55,0,0,0-6.2,1,19.95,19.95,0,0,0,6.18,38.91h0a20.33,20.33,0,0,0,6.23-1,20,20,0,0,0,11.59-9.94,20,20,0,0,0-17.8-29Z" transform="translate(-121.97 -163.13)"/><path class="cls-3" d="M308.31,579.83a25,25,0,1,0-31.15-16.58,25,25,0,0,0,31.15,16.58" transform="translate(-121.97 -163.13)"/><path class="cls-4" d="M301,582.34h0a26.35,26.35,0,1,1,7.71-1.14A26.27,26.27,0,0,1,301,582.34Zm0-49.9a23.11,23.11,0,0,0-6.85,1,23.51,23.51,0,0,0,6.82,46h0a23.86,23.86,0,0,0,6.87-1,23.51,23.51,0,0,0-6.84-46Z" transform="translate(-121.97 -163.13)"/><path class="cls-3" d="M464.61,419.33a28.52,28.52,0,1,0-35.61-19,28.51,28.51,0,0,0,35.61,19" transform="translate(-121.97 -163.13)"/><path class="cls-4" d="M456.27,422h0a30,30,0,0,1-8.72-58.63,30.15,30.15,0,0,1,8.75-1.33A30,30,0,0,1,465,420.72,30.65,30.65,0,0,1,456.27,422Zm0-57.06a27.58,27.58,0,0,0-7.9,1.17,27.11,27.11,0,0,0,7.87,53,27.57,27.57,0,0,0,7.91-1.19,27.09,27.09,0,0,0-7.88-53Z" transform="translate(-121.97 -163.13)"/><path class="cls-3" d="M320.76,416.51a28.54,28.54,0,1,0-35.59-19,28.54,28.54,0,0,0,35.59,19" transform="translate(-121.97 -163.13)"/><path class="cls-4" d="M312.41,419.18h0a30.05,30.05,0,1,1,8.77-1.33A29.23,29.23,0,0,1,312.41,419.18Zm0-57.05a27.05,27.05,0,0,0-23.9,14.34,27.08,27.08,0,0,0,23.85,39.83h0a27.12,27.12,0,0,0,25.95-35A26.91,26.91,0,0,0,312.46,362.13Z" transform="translate(-121.97 -163.13)"/><path class="cls-3" d="M656.05,427.31a21.39,21.39,0,1,0-26.71-14.22,21.37,21.37,0,0,0,26.71,14.22" transform="translate(-121.97 -163.13)"/><path class="cls-4" d="M649.8,429.68h0A22.82,22.82,0,0,1,643.15,385a22.36,22.36,0,0,1,6.66-1,22.85,22.85,0,0,1,6.65,44.7A22.48,22.48,0,0,1,649.8,429.68Zm0-42.77a20.21,20.21,0,0,0-5.81.84,20,20,0,0,0-13.27,24.93A19.8,19.8,0,0,0,649.8,426.8h0a20.14,20.14,0,0,0,5.83-.87,19.94,19.94,0,0,0-5.82-39Z" transform="translate(-121.97 -163.13)"/><path class="cls-3" d="M589,285a28.53,28.53,0,1,0-35.61-19A28.52,28.52,0,0,0,589,285" transform="translate(-121.97 -163.13)"/><path class="cls-4" d="M580.63,287.68h0a30,30,0,1,1,8.75-1.3A30.25,30.25,0,0,1,580.63,287.68Zm0-57.07a27.57,27.57,0,0,0-7.91,1.19,27.09,27.09,0,0,0,7.89,53h0a26.51,26.51,0,0,0,7.9-1.2,27.08,27.08,0,0,0-7.88-53Z" transform="translate(-121.97 -163.13)"/><path class="cls-3" d="M519.44,229.76a28.54,28.54,0,1,0-35.61-19,28.57,28.57,0,0,0,35.61,19" transform="translate(-121.97 -163.13)"/><path class="cls-4" d="M511.11,232.42h0a30,30,0,0,1-8.72-58.64,31.06,31.06,0,0,1,8.75-1.3,30,30,0,0,1,8.72,58.65A30.94,30.94,0,0,1,511.11,232.42Zm0-57.06a27.1,27.1,0,0,0,0,54.2h0a26.22,26.22,0,0,0,7.91-1.21,27.08,27.08,0,0,0-7.88-53Z" transform="translate(-121.97 -163.13)"/><path class="cls-3" d="M739.31,371.23a28.51,28.51,0,1,0-35.58-19,28.5,28.5,0,0,0,35.58,19" transform="translate(-121.97 -163.13)"/><path class="cls-4" d="M731,373.94h0a30,30,0,0,1-8.73-58.65A30.43,30.43,0,0,1,731,314a30,30,0,0,1,0,60Zm0-57.09a27.26,27.26,0,0,0-7.9,1.19A27.08,27.08,0,0,0,731,371a27.65,27.65,0,0,0,7.91-1.17,27.09,27.09,0,0,0-7.89-53Z" transform="translate(-121.97 -163.13)"/><path class="cls-3" d="M745.15,249.69a28.51,28.51,0,1,0-35.58-19,28.52,28.52,0,0,0,35.58,19" transform="translate(-121.97 -163.13)"/><path class="cls-4" d="M736.83,252.38h0a30.23,30.23,0,1,1,8.76-1.34A29.29,29.29,0,0,1,736.83,252.38Zm0-57A27.7,27.7,0,0,0,729,196.5a27.08,27.08,0,0,0,7.86,53h0a27.18,27.18,0,0,0,7.89-1.18,27.06,27.06,0,0,0-7.85-53Z" transform="translate(-121.97 -163.13)"/><path class="cls-3" d="M840.54,712.57a21.39,21.39,0,1,0-26.71-14.27,21.42,21.42,0,0,0,26.71,14.27" transform="translate(-121.97 -163.13)"/><path class="cls-4" d="M834.26,715h0a23.16,23.16,0,1,1,6.69-1A22.76,22.76,0,0,1,834.26,715Zm0-42.81a21.58,21.58,0,0,0-5.84.84,20,20,0,0,0,5.8,39.09h0a21.34,21.34,0,0,0,5.84-.88,19.91,19.91,0,0,0,13.26-24.9A20,20,0,0,0,834.3,672.16Z" transform="translate(-121.97 -163.13)"/><path class="cls-1" d="M772.56,451.9a21.41,21.41,0,1,0-26.68-14.22,21.42,21.42,0,0,0,26.68,14.22" transform="translate(-121.97 -163.13)"/><path class="cls-2" d="M770.7,445.75a15,15,0,1,0-18.69-10,15,15,0,0,0,18.69,10" transform="translate(-121.97 -163.13)"/><path class="cls-4" d="M766.33,448.9h0a17.44,17.44,0,1,1,5.11-.75A17.81,17.81,0,0,1,766.33,448.9Zm0-29.94a13.33,13.33,0,0,0-3.63.56,12.45,12.45,0,0,0,3.63,24.36h0a12.82,12.82,0,0,0,3.63-.54A12.47,12.47,0,0,0,766.33,419Z" transform="translate(-121.97 -163.13)"/><path class="cls-1" d="M509.52,805.41a21.4,21.4,0,1,0-26.7-14.25,21.4,21.4,0,0,0,26.7,14.25" transform="translate(-121.97 -163.13)"/><path class="cls-2" d="M507.31,798.21A13.86,13.86,0,1,0,490,789a13.89,13.89,0,0,0,17.29,9.25" transform="translate(-121.97 -163.13)"/><path class="cls-4" d="M503.28,801.35h0a16.41,16.41,0,0,1-4.77-32.1,15.26,15.26,0,0,1,4.78-.71,16.39,16.39,0,0,1,4.77,32.08A16.7,16.7,0,0,1,503.28,801.35Zm0-27.76a11.83,11.83,0,0,0-3.29.46,11.37,11.37,0,0,0,3.28,22.25h0a12.08,12.08,0,0,0,3.31-.51,11.34,11.34,0,0,0-3.3-22.2Z" transform="translate(-121.97 -163.13)"/><path class="cls-1" d="M566.78,527.32a35.65,35.65,0,1,0-44.51-23.68,35.6,35.6,0,0,0,44.51,23.68" transform="translate(-121.97 -163.13)"/><path class="cls-2" d="M563.59,516.82a24.67,24.67,0,1,0-30.77-16.4,24.66,24.66,0,0,0,30.77,16.4" transform="translate(-121.97 -163.13)"/><path class="cls-4" d="M556.39,520.41h0a27.19,27.19,0,0,1-7.92-53.19,27.85,27.85,0,0,1,7.94-1.17,27.17,27.17,0,0,1,7.89,53.16A27.63,27.63,0,0,1,556.39,520.41Zm0-49.34a22.15,22.15,0,1,0,0,44.29h0a21.82,21.82,0,0,0,6.45-1,22.14,22.14,0,0,0-6.43-43.33Z" transform="translate(-121.97 -163.13)"/><path class="cls-1" d="M343.23,670.08a25,25,0,1,0-31.14-16.62,25,25,0,0,0,31.14,16.62" transform="translate(-121.97 -163.13)"/><path class="cls-2" d="M340.58,661.37a15.86,15.86,0,1,0-19.78-10.55,15.86,15.86,0,0,0,19.78,10.55" transform="translate(-121.97 -163.13)"/><path class="cls-4" d="M335.94,664.6h0a18.39,18.39,0,0,1-5.35-36,17.4,17.4,0,0,1,5.39-.81,18.38,18.38,0,0,1,5.33,36A19.15,19.15,0,0,1,335.94,664.6Zm0-31.77a14.39,14.39,0,0,0-3.91.57,13.42,13.42,0,0,0-8.88,16.7,13.23,13.23,0,0,0,12.75,9.42h0a12.26,12.26,0,0,0,3.92-.58,13.2,13.2,0,0,0,7.89-6.47A13.38,13.38,0,0,0,336,632.83Z" transform="translate(-121.97 -163.13)"/><path class="cls-1" d="M292.5,487.71a17.83,17.83,0,1,0-22.26-11.88,17.8,17.8,0,0,0,22.26,11.88" transform="translate(-121.97 -163.13)"/><path class="cls-2" d="M290.27,480.36a10.17,10.17,0,1,0-12.69-6.73,10.12,10.12,0,0,0,12.69,6.73" transform="translate(-121.97 -163.13)"/><path class="cls-4" d="M287.3,483.33h0a12.64,12.64,0,1,1,3.7-.54A12.6,12.6,0,0,1,287.3,483.33Zm0-20.33a7.75,7.75,0,0,0-2.23.35,7.64,7.64,0,0,0,2.22,15h0a8.22,8.22,0,0,0,2.24-.34,7.64,7.64,0,0,0,4.51-3.72,7.41,7.41,0,0,0,.56-5.79A7.56,7.56,0,0,0,287.31,463Z" transform="translate(-121.97 -163.13)"/><path class="cls-1" d="M416.62,293.8a32.1,32.1,0,1,0-40-21.36,32.1,32.1,0,0,0,40,21.36" transform="translate(-121.97 -163.13)"/><path class="cls-2" d="M413.83,284.56a22.44,22.44,0,1,0-28-14.95,22.48,22.48,0,0,0,28,14.95" transform="translate(-121.97 -163.13)"/><path class="cls-4" d="M407.29,288.05h0A25,25,0,0,1,400,239.21a25.4,25.4,0,0,1,7.27-1.08A25,25,0,0,1,414.57,287,25.14,25.14,0,0,1,407.29,288.05Zm0-44.91a19.94,19.94,0,0,0-19.05,25.75A19.8,19.8,0,0,0,407.29,283h0a20.76,20.76,0,0,0,5.8-.84,19.95,19.95,0,0,0-5.8-39Z" transform="translate(-121.97 -163.13)"/><path class="cls-1" d="M646.26,205a21.39,21.39,0,1,0-26.7-14.23A21.38,21.38,0,0,0,646.26,205" transform="translate(-121.97 -163.13)"/><path class="cls-2" d="M643.58,197.22A13.26,13.26,0,1,0,627,188.39a13.26,13.26,0,0,0,16.56,8.83" transform="translate(-121.97 -163.13)"/><path class="cls-4" d="M639.7,200.29a15.86,15.86,0,0,1-15.08-11.19,15.82,15.82,0,0,1,15.09-20.36,15.78,15.78,0,0,1,4.6,30.88A15,15,0,0,1,639.7,200.29Zm0-26.51a10.77,10.77,0,0,0-9.49,5.71,10.66,10.66,0,0,0-.78,8.17,10.94,10.94,0,0,0,13.4,7.15A10.76,10.76,0,0,0,650,181.4,10.7,10.7,0,0,0,639.71,173.78Z" transform="translate(-121.97 -163.13)"/><path class="cls-1" d="M864,359.58a28.53,28.53,0,1,0-35.61-19,28.54,28.54,0,0,0,35.61,19" transform="translate(-121.97 -163.13)"/><path class="cls-2" d="M861.43,351.13A19.69,19.69,0,1,0,836.85,338a19.7,19.7,0,0,0,24.58,13.1" transform="translate(-121.97 -163.13)"/><path class="cls-4" d="M855.7,354.52h0A22.22,22.22,0,0,1,849.21,311a22.43,22.43,0,0,1,6.49-1,22.23,22.23,0,0,1,6.46,43.49A22.62,22.62,0,0,1,855.7,354.52Zm0-39.42a17.6,17.6,0,0,0-5,.75,17.18,17.18,0,0,0,5,33.62h0a17.19,17.19,0,0,0,0-34.37Z" transform="translate(-121.97 -163.13)"/><path class="cls-1" d="M892.81,617.29A32.08,32.08,0,1,0,852.75,596a32.06,32.06,0,0,0,40.06,21.32" transform="translate(-121.97 -163.13)"/><path class="cls-2" d="M889.27,605.7a20,20,0,1,0-24.93-13.27,20,20,0,0,0,24.93,13.27" transform="translate(-121.97 -163.13)"/><path class="cls-4" d="M883.43,609.1h0a22.48,22.48,0,0,1-6.54-44,22.48,22.48,0,1,1,13.11,43A22.84,22.84,0,0,1,883.43,609.1Zm0-40a18.2,18.2,0,0,0-5.12.77,17.46,17.46,0,0,0,5.08,34.16,16.72,16.72,0,0,0,5.1-.8,17.44,17.44,0,0,0-5.06-34.13Z" transform="translate(-121.97 -163.13)"/><path class="cls-1" d="M721.16,801.09a35.67,35.67,0,1,0-44.5-23.76,35.7,35.7,0,0,0,44.5,23.76" transform="translate(-121.97 -163.13)"/><path class="cls-2" d="M717.64,789.5a23.58,23.58,0,1,0-29.41-15.67,23.55,23.55,0,0,0,29.41,15.67" transform="translate(-121.97 -163.13)"/><path class="cls-4" d="M710.77,793h0a26.08,26.08,0,0,1-7.61-51,27.54,27.54,0,0,1,7.63-1.14,26.09,26.09,0,1,1,0,52.17Zm0-47.12a21.19,21.19,0,0,0-6.16.92,21,21,0,0,0-14,26.27A21.14,21.14,0,0,0,710.77,788h0a21.58,21.58,0,0,0,6.15-.89,21.1,21.1,0,0,0,14-26.31A21.2,21.2,0,0,0,710.79,745.9Z" transform="translate(-121.97 -163.13)"/><path class="cls-1" d="M723.68,617.16A46.22,46.22,0,1,0,666,586.41a46.18,46.18,0,0,0,57.66,30.75" transform="translate(-121.97 -163.13)"/><path class="cls-2" d="M720.08,605.33a33.85,33.85,0,1,0-42.25-22.52,33.89,33.89,0,0,0,42.25,22.52" transform="translate(-121.97 -163.13)"/><path class="cls-4" d="M710.2,609.3h0a36.28,36.28,0,1,1,10.62-1.57A37.56,37.56,0,0,1,710.2,609.3Zm0-67.7a31.33,31.33,0,1,0,0,62.66h0a32,32,0,0,0,9.16-1.34,31.34,31.34,0,0,0-9.13-61.32Z" transform="translate(-121.97 -163.13)"/></svg>