<?xml version="1.0" encoding="utf-8"?>
<!-- Generator: Adobe Illustrator 24.0.2, SVG Export Plug-In . SVG Version: 6.00 Build 0)  -->
<svg version="1.1" id="Capa_1" xmlns="http://www.w3.org/2000/svg" xmlns:xlink="http://www.w3.org/1999/xlink" x="0px" y="0px"
	 viewBox="0 0 1200 1200" style="enable-background:new 0 0 1200 1200;" xml:space="preserve">
<style type="text/css">
	.st0{fill:#FFFFFF;}
	.st1{font-family:'Streetwear';}
	.st2{font-size:309.6548px;}
	.st3{font-family:'Rubik-LightItalic';}
	.st4{font-size:211.5312px;}
	.st5{fill:none;stroke:#FFFFFF;stroke-width:5.3417;stroke-linejoin:round;stroke-miterlimit:10;}
	.st6{fill:#E72329;}
	.st7{fill:#FAC118;}
	.st8{fill:#3D5DAA;}
</style>
<g>
	<circle cx="600" cy="600" r="577"/>
</g>
<g>
	<path d="M600,1131.99c-71.82,0-141.49-14.07-207.08-41.81c-63.35-26.79-120.24-65.15-169.1-114.01
		c-48.86-48.86-87.22-105.75-114.01-169.1C82.07,741.49,68.01,671.82,68.01,600s14.07-141.49,41.81-207.08
		c26.79-63.35,65.15-120.24,114.01-169.1c48.86-48.86,105.75-87.22,169.1-114.01C458.51,82.07,528.18,68.01,600,68.01
		s141.49,14.07,207.08,41.81c63.35,26.79,120.24,65.15,169.1,114.01c48.86,48.86,87.22,105.75,114.01,169.1
		c27.74,65.58,41.81,135.25,41.81,207.08s-14.07,141.49-41.81,207.08c-26.79,63.35-65.15,120.24-114.01,169.1
		c-48.86,48.86-105.75,87.22-169.1,114.01C741.49,1117.93,671.82,1131.99,600,1131.99z"/>
	<path class="st0" d="M600,71.47c71.35,0,140.57,13.97,205.73,41.53c62.94,26.62,119.46,64.73,168,113.27s86.65,105.07,113.27,168
		c27.56,65.16,41.53,134.37,41.53,205.73s-13.97,140.57-41.53,205.73c-26.62,62.94-64.73,119.46-113.27,168
		s-105.07,86.65-168,113.27c-65.16,27.56-134.37,41.53-205.73,41.53s-140.57-13.97-205.73-41.53
		c-62.94-26.62-119.46-64.73-168-113.27s-86.65-105.07-113.27-168C85.44,740.57,71.47,671.35,71.47,600S85.44,459.43,113,394.27
		c26.62-62.94,64.73-119.46,113.27-168s105.07-86.65,168-113.27C459.43,85.44,528.65,71.47,600,71.47 M600,64.54
		C304.28,64.54,64.54,304.28,64.54,600S304.28,1135.46,600,1135.46S1135.46,895.72,1135.46,600S895.72,64.54,600,64.54L600,64.54z"
		/>
</g>
<g>
	<g>
		<text transform="matrix(1 0 0 1 161.4795 627.395)" class="st0 st1 st2">Juan</text>
		<g>
			<text transform="matrix(1 0 0 1 183.7285 796.9253)" class="st0 st3 st4">Restrepo</text>
		</g>
		<path class="st0" d="M483.03,320.96c-4.06,0-8.13,0-12.19,0c-10.04,0-20.07,0-30.11,0c-12.8,0-25.6,0-38.39,0
			c-12.35,0-24.69,0-37.04,0c-18.66,0-37.88,1.73-55.73-4.76c-6.56-2.38-12.79-5.63-18.55-9.56c-4.98-3.4-9.62-7.35-13.55-11.93
			c-1.86-2.16-3.56-4.46-5.02-6.91c-0.71-1.18-1.36-2.4-1.95-3.65c-0.36-0.76-1.72-2.94-1.52-3.76
			c-3.92,16.64,1.21,30.82,9.21,42.08c20.33,28.6,57.52,33.48,87.57,34.16c18.79,0.43,131.97-1.84,131.97-1.84
			S486.65,329.3,483.03,320.96z"/>
	</g>
	<line class="st5" x1="194.74" y1="880.82" x2="777.11" y2="880.82"/>
	<g>
		<rect x="956.86" y="845.3" class="st6" width="39.68" height="39.68"/>
	</g>
	<polygon class="st7" points="848.51,884.98 827.43,884.98 837.97,866.72 848.51,848.46 859.05,866.72 869.59,884.98 	"/>
	<circle class="st8" cx="912.61" cy="865.14" r="19.84"/>
	<ellipse class="st0" cx="798.23" cy="880.69" rx="4.14" ry="4.15"/>
</g>
</svg>
